{"glyphs":{"0":{"ha":856,"x_min":94,"x_max":761,"o":"m 428 -17 q 296 13 354 -17 q 201 90 238 42 q 139 204 164 138 q 104 340 114 271 q 94 486 94 410 q 109 652 94 572 q 158 812 124 732 q 263 940 193 892 q 428 989 332 989 q 587 944 519 989 q 690 825 654 900 q 744 666 726 750 q 761 486 761 582 q 753 355 761 419 q 721 221 744 290 q 661 101 697 151 q 565 17 625 50 q 428 -17 504 -17 m 428 71 q 657 486 657 71 q 647 637 657 568 q 612 768 636 706 q 540 866 588 831 q 428 901 493 901 q 310 863 358 901 q 238 758 261 824 q 206 627 215 693 q 196 486 196 561 q 428 71 196 71 m 490 424 q 477 410 490 424 q 428 397 464 397 q 366 424 392 397 q 340 485 340 450 q 366 546 340 519 q 428 572 392 572 q 490 546 464 572 q 515 485 515 519 q 490 424 515 450 z "},"1":{"ha":856,"x_min":139,"x_max":717,"o":"m 478 93 l 717 93 l 717 0 l 139 0 l 139 93 l 381 93 l 381 839 l 167 761 l 167 857 l 478 978 l 478 93 z "},"2":{"ha":856,"x_min":136,"x_max":718,"o":"m 136 0 q 156 151 136 85 q 216 267 175 217 q 290 347 257 318 q 382 419 322 375 q 403 435 396 429 q 482 498 457 476 q 543 557 507 519 q 594 633 579 594 q 608 715 608 671 q 560 849 608 796 q 432 901 513 901 q 293 859 347 901 q 222 744 239 817 l 136 783 q 238 931 158 872 q 433 989 318 989 q 636 915 563 989 q 710 715 710 840 q 692 617 710 664 q 656 540 675 569 q 593 469 638 510 q 527 413 549 429 q 449 357 506 397 q 348 278 385 310 q 276 196 311 247 q 239 93 240 144 l 718 93 l 718 0 l 136 0 z "},"3":{"ha":856,"x_min":122,"x_max":733,"o":"m 424 -17 q 230 44 300 -17 q 122 211 160 104 l 213 249 q 295 116 244 158 q 424 74 346 74 q 572 122 514 74 q 631 264 631 171 q 574 408 631 356 q 414 461 518 461 l 349 461 l 349 550 l 400 550 q 539 598 486 550 q 592 726 592 646 q 543 851 592 804 q 426 899 494 899 q 239 749 294 899 l 149 783 q 249 929 179 869 q 422 989 319 989 q 616 920 539 989 q 693 740 693 851 q 660 617 693 675 q 569 528 626 558 q 690 429 646 497 q 733 267 733 361 q 642 65 733 146 q 424 -17 550 -17 z "},"4":{"ha":856,"x_min":90,"x_max":765,"o":"m 528 0 l 528 263 l 90 263 l 90 313 l 564 972 l 625 972 l 625 346 l 765 346 l 765 263 l 625 263 l 625 0 l 528 0 m 528 346 l 528 789 l 214 346 l 528 346 z "},"5":{"ha":856,"x_min":124,"x_max":732,"o":"m 407 -17 q 235 20 311 -17 q 124 107 160 57 l 181 178 q 406 71 278 71 q 565 140 501 71 q 629 307 629 210 q 578 471 629 406 q 439 536 526 536 q 244 443 325 536 l 163 468 l 242 972 l 681 972 l 681 885 l 319 885 l 264 546 q 460 628 339 628 q 655 540 578 628 q 732 315 732 453 q 642 84 732 185 q 407 -17 553 -17 z "},"6":{"ha":856,"x_min":126,"x_max":729,"o":"m 432 -17 q 206 88 286 -17 q 126 360 126 193 q 266 752 126 568 q 607 989 406 936 l 607 913 q 370 756 475 872 q 243 514 265 639 q 456 603 313 603 q 651 512 572 603 q 729 306 729 421 q 642 76 729 169 q 432 -17 554 -17 m 428 71 q 578 134 521 71 q 636 292 636 197 q 580 456 636 392 q 428 519 524 519 q 278 455 338 519 q 219 292 219 390 q 280 135 219 199 q 428 71 340 71 z "},"7":{"ha":856,"x_min":150,"x_max":704,"o":"m 150 972 l 704 972 l 704 908 q 406 0 408 554 l 308 0 q 373 465 311 251 q 593 889 435 678 l 150 889 l 150 972 z "},"8":{"ha":856,"x_min":110,"x_max":746,"o":"m 656 67 q 610 25 656 67 q 428 -17 565 -17 q 200 67 290 -17 q 110 274 110 150 q 158 437 110 364 q 282 538 206 510 q 188 619 222 564 q 154 738 154 674 q 233 915 154 840 q 428 989 313 989 q 622 915 543 989 q 701 738 701 840 q 668 618 701 672 q 572 538 635 564 q 698 436 650 508 q 746 274 746 364 q 656 67 746 150 m 301 611 q 325 589 301 611 q 428 567 349 567 q 555 611 507 567 q 603 725 603 656 q 553 853 603 806 q 428 901 504 901 q 302 853 351 901 q 253 725 253 806 q 301 611 253 656 m 272 129 q 303 100 272 129 q 428 71 333 71 q 583 129 522 71 q 644 288 644 188 q 584 440 644 376 q 428 503 524 503 q 272 440 332 503 q 211 288 211 376 q 272 129 211 188 z "},"9":{"ha":856,"x_min":111,"x_max":744,"o":"m 267 -17 l 267 60 q 506 219 404 100 q 626 467 608 338 q 396 372 553 372 q 194 460 278 372 q 111 667 111 547 q 204 896 111 803 q 433 989 297 989 q 665 884 585 989 q 744 613 744 779 q 609 219 744 401 q 267 -17 474 36 m 426 450 q 586 515 524 450 q 649 678 649 579 q 584 837 649 772 q 426 901 519 901 q 266 838 328 901 q 204 678 204 774 q 265 514 204 578 q 426 450 325 450 z "},"\u0000":{"ha":856,"x_min":0,"x_max":0,"o":""}," ":{"ha":856,"x_min":0,"x_max":0,"o":""},"!":{"ha":856,"x_min":340,"x_max":515,"o":"m 401 268 l 381 688 l 381 989 l 481 989 l 481 688 l 458 268 l 401 268 m 490 7 q 477 -6 490 7 q 428 -19 464 -19 q 366 7 392 -19 q 340 68 340 33 q 366 129 340 103 q 428 156 392 156 q 490 129 464 156 q 515 68 515 103 q 490 7 515 33 z "},"\"":{"ha":856,"x_min":243,"x_max":611,"o":"m 243 972 l 364 972 l 339 601 l 265 601 l 243 972 m 489 972 l 611 972 l 586 601 l 513 601 l 489 972 z "},"#":{"ha":856,"x_min":31,"x_max":824,"o":"m 158 0 l 201 283 l 31 283 l 47 371 l 214 371 l 251 618 l 92 618 l 106 703 l 264 703 l 306 972 l 400 972 l 360 703 l 557 703 l 599 972 l 693 972 l 651 703 l 824 703 l 810 618 l 639 618 l 600 371 l 763 371 l 749 283 l 588 283 l 544 0 l 450 0 l 493 283 l 296 283 l 253 0 l 158 0 m 308 371 l 506 371 l 544 618 l 347 618 l 308 371 z "},"$":{"ha":856,"x_min":124,"x_max":732,"o":"m 382 -136 l 382 -12 q 219 53 288 0 q 124 181 150 107 l 215 214 q 302 111 244 149 q 438 74 360 74 q 580 119 529 74 q 631 250 631 164 q 424 476 631 394 q 324 521 365 500 q 240 576 283 542 q 173 657 196 610 q 150 763 150 704 q 213 913 150 850 q 382 986 275 975 l 382 1096 l 481 1096 l 481 985 q 614 934 560 975 q 685 835 668 893 l 594 804 q 531 872 576 846 q 421 899 486 899 q 297 863 342 899 q 251 764 251 826 q 306 653 251 696 q 463 569 361 611 q 559 524 518 547 q 643 463 600 500 q 709 372 686 425 q 732 253 732 318 q 663 67 732 136 q 481 -14 594 -3 l 481 -136 l 382 -136 z "},"%":{"ha":856,"x_min":14,"x_max":842,"o":"m 139 -17 l 46 -17 l 710 989 l 803 989 l 139 -17 m 379 578 q 353 542 379 578 q 222 506 328 506 q 65 576 117 506 q 14 742 14 646 q 66 904 14 831 q 222 978 118 978 q 379 908 328 978 q 431 742 431 838 q 379 578 431 650 m 222 575 q 317 623 283 575 q 350 742 350 671 q 317 863 350 818 q 222 908 285 908 q 126 861 158 908 q 94 742 94 814 q 127 621 94 667 q 222 575 160 575 m 790 67 q 765 31 790 67 q 633 -6 739 -6 q 476 65 528 -6 q 425 231 425 135 q 477 393 425 319 q 633 467 529 467 q 790 397 739 467 q 842 231 842 326 q 790 67 842 139 m 633 64 q 728 112 694 64 q 761 231 761 160 q 728 352 761 307 q 633 397 696 397 q 538 350 569 397 q 506 231 506 303 q 538 110 506 156 q 633 64 571 64 z "},"&":{"ha":856,"x_min":21,"x_max":835,"o":"m 835 0 l 714 0 l 607 126 q 292 -17 475 -17 q 95 55 169 -17 q 21 244 21 126 q 81 413 21 346 q 253 546 142 479 q 158 682 183 631 q 132 785 132 733 q 197 933 132 878 q 357 989 261 989 q 517 931 454 989 q 581 785 581 874 q 531 649 581 706 q 389 532 481 592 l 600 281 q 650 443 642 360 l 742 443 q 664 204 732 315 l 835 0 m 224 783 q 244 714 224 749 q 336 594 265 679 q 450 681 411 640 q 489 778 489 722 q 451 868 489 833 q 356 903 413 903 q 260 870 296 903 q 224 783 224 838 m 311 71 q 546 199 439 71 l 307 482 q 163 373 213 424 q 113 253 113 322 q 168 121 113 171 q 311 71 224 71 z "},"'":{"ha":856,"x_min":367,"x_max":488,"o":"m 367 972 l 488 972 l 463 601 l 389 601 l 367 972 z "},"(":{"ha":856,"x_min":289,"x_max":664,"o":"m 556 -181 q 289 394 289 42 q 571 989 289 768 l 664 989 q 588 913 629 961 q 497 788 546 864 q 417 608 449 713 q 385 394 385 503 q 649 -181 385 67 l 556 -181 z "},")":{"ha":856,"x_min":192,"x_max":567,"o":"m 207 -181 q 471 394 471 67 q 439 608 471 503 q 358 788 407 713 q 268 913 310 864 q 192 989 226 961 l 285 989 q 567 394 567 768 q 300 -181 567 42 l 207 -181 z "},"*":{"ha":856,"x_min":110,"x_max":746,"o":"m 306 171 l 224 218 l 307 363 l 386 451 l 271 428 l 110 428 l 110 522 l 271 522 l 386 499 l 308 588 l 225 732 l 307 779 l 390 635 l 428 522 l 465 635 l 549 779 l 631 732 l 547 588 l 469 499 l 585 522 l 746 522 l 746 428 l 585 428 l 469 451 l 547 363 l 631 218 l 549 171 l 465 315 l 428 428 l 389 315 l 306 171 z "},"+":{"ha":856,"x_min":101,"x_max":754,"o":"m 476 428 l 476 150 l 376 150 l 376 428 l 101 428 l 101 522 l 376 522 l 376 803 l 476 803 l 476 522 l 754 522 l 754 428 l 476 428 z "},",":{"ha":856,"x_min":335,"x_max":519,"o":"m 393 -237 l 339 -224 q 426 -26 424 -122 q 360 0 386 -24 q 335 63 335 24 q 360 126 335 101 q 424 151 386 151 q 492 122 464 151 q 519 35 519 92 q 481 -121 519 -44 q 393 -237 443 -197 z "},"-":{"ha":856,"x_min":101,"x_max":754,"o":"m 101 367 l 101 461 l 754 461 l 754 367 l 101 367 z "},".":{"ha":856,"x_min":340,"x_max":515,"o":"m 490 7 q 477 -6 490 7 q 428 -19 464 -19 q 366 7 392 -19 q 340 68 340 33 q 366 129 340 103 q 428 156 392 156 q 490 129 464 156 q 515 68 515 103 q 490 7 515 33 z "},"/":{"ha":856,"x_min":107,"x_max":747,"o":"m 107 -181 l 653 989 l 747 989 l 201 -181 l 107 -181 z "},":":{"ha":856,"x_min":340,"x_max":515,"o":"m 490 522 q 477 509 490 522 q 428 496 464 496 q 366 522 392 496 q 340 583 340 549 q 366 644 340 618 q 428 671 392 671 q 490 644 464 671 q 515 583 515 618 q 490 522 515 549 m 490 7 q 477 -6 490 7 q 428 -19 464 -19 q 366 7 392 -19 q 340 68 340 33 q 366 129 340 103 q 428 156 392 156 q 490 129 464 156 q 515 68 515 103 q 490 7 515 33 z "},";":{"ha":856,"x_min":335,"x_max":519,"o":"m 484 522 q 471 509 484 522 q 422 496 458 496 q 360 522 386 496 q 335 583 335 549 q 360 644 335 618 q 422 671 386 671 q 484 644 458 671 q 510 583 510 618 q 484 522 510 549 m 393 -237 l 339 -224 q 426 -26 424 -122 q 360 0 386 -24 q 335 63 335 24 q 360 126 335 101 q 424 151 386 151 q 492 122 464 151 q 519 35 519 92 q 481 -121 519 -44 q 393 -237 443 -197 z "},"<":{"ha":856,"x_min":101,"x_max":754,"o":"m 754 176 l 101 439 l 101 531 l 754 794 l 754 701 l 208 486 l 754 271 l 754 176 z "},"=":{"ha":856,"x_min":101,"x_max":754,"o":"m 101 572 l 101 667 l 754 667 l 754 572 l 101 572 m 101 283 l 101 378 l 754 378 l 754 283 l 101 283 z "},">":{"ha":856,"x_min":101,"x_max":754,"o":"m 754 439 l 101 176 l 101 268 l 647 486 l 101 701 l 101 794 l 754 531 l 754 439 z "},"?":{"ha":856,"x_min":128,"x_max":728,"o":"m 367 236 l 367 268 q 394 397 367 340 q 459 490 421 454 q 535 560 497 526 q 601 638 574 593 q 628 736 628 682 q 576 852 628 806 q 435 899 525 899 q 277 846 335 899 q 219 710 219 793 l 128 710 q 211 910 128 831 q 435 989 294 989 q 650 916 572 989 q 728 733 728 843 q 701 615 728 667 q 635 528 674 563 q 559 461 597 494 q 494 379 521 428 q 467 268 467 331 l 467 236 l 367 236 m 476 7 q 463 -6 476 7 q 414 -19 450 -19 q 352 7 378 -19 q 326 68 326 33 q 352 129 326 103 q 414 156 378 156 q 476 129 450 156 q 501 68 501 103 q 476 7 501 33 z "},"@":{"ha":856,"x_min":47,"x_max":807,"o":"m 426 -17 q 156 113 264 -17 q 47 465 47 242 q 165 840 47 692 q 447 989 283 989 q 707 874 607 989 q 807 574 807 760 q 756 322 807 422 q 629 222 704 222 q 525 328 542 222 q 386 210 475 210 q 273 277 318 210 q 228 447 228 344 q 285 645 228 556 q 431 735 342 735 q 511 700 479 735 q 551 601 543 665 l 567 717 l 636 717 l 592 394 q 590 369 590 386 q 640 299 590 299 q 713 378 685 299 q 742 579 742 457 q 656 831 742 740 q 450 921 569 921 q 212 791 306 921 q 118 464 118 661 q 203 169 118 288 q 431 51 288 51 q 586 78 525 51 l 571 4 q 426 -17 511 -17 m 407 288 q 499 349 463 288 q 535 499 535 410 q 506 613 535 568 q 436 657 476 657 q 341 596 376 657 q 306 446 306 535 q 333 330 306 372 q 407 288 360 288 z "},"A":{"ha":856,"x_min":68,"x_max":788,"o":"m 689 0 l 608 251 l 249 251 l 169 0 l 68 0 l 389 972 l 464 972 l 788 0 l 689 0 m 276 338 l 579 338 l 454 726 q 426 814 429 800 q 400 726 419 786 l 276 338 z "},"B":{"ha":856,"x_min":147,"x_max":733,"o":"m 147 0 l 147 972 l 401 972 q 628 899 558 972 q 699 718 699 826 q 658 592 699 646 q 546 513 617 539 q 681 430 629 492 q 733 272 733 368 q 660 78 733 157 q 424 0 588 0 l 147 0 m 244 547 l 378 547 q 549 594 490 547 q 608 721 608 640 q 410 885 608 885 l 244 885 l 244 547 m 244 88 l 440 88 q 597 138 550 88 q 643 264 643 188 q 394 463 643 463 l 244 463 l 244 88 z "},"C":{"ha":856,"x_min":115,"x_max":733,"o":"m 471 -17 q 308 26 379 -17 q 197 140 238 68 q 135 300 156 213 q 115 486 115 388 q 151 735 115 625 q 270 917 188 846 q 471 989 353 989 q 626 947 569 989 q 719 832 683 904 l 633 782 q 566 869 603 838 q 471 901 529 901 q 322 835 382 901 q 240 680 263 769 q 217 486 217 590 q 281 191 217 311 q 471 71 344 71 q 647 194 589 71 l 733 161 q 635 34 701 85 q 471 -17 569 -17 z "},"D":{"ha":856,"x_min":146,"x_max":740,"o":"m 146 0 l 146 972 l 367 972 q 542 931 467 972 q 658 818 617 889 q 720 664 700 747 q 740 486 740 581 q 730 349 740 415 q 692 219 719 283 q 624 106 665 154 q 515 29 582 58 q 361 0 447 0 l 146 0 m 243 88 l 360 88 q 494 122 438 88 q 581 217 551 157 q 625 343 611 276 q 639 486 639 410 q 574 769 639 654 q 375 885 508 885 l 243 885 l 243 88 z "},"E":{"ha":856,"x_min":147,"x_max":719,"o":"m 147 0 l 147 972 l 689 972 l 689 879 l 244 879 l 244 549 l 554 549 l 554 457 l 244 457 l 244 93 l 719 93 l 719 0 l 147 0 z "},"F":{"ha":856,"x_min":147,"x_max":733,"o":"m 147 0 l 147 972 l 733 972 l 733 879 l 244 879 l 244 549 l 581 549 l 581 457 l 244 457 l 244 0 l 147 0 z "},"G":{"ha":856,"x_min":119,"x_max":744,"o":"m 453 -17 q 261 58 339 -17 q 151 242 183 132 q 119 486 119 351 q 204 845 119 701 q 453 989 289 989 q 613 947 554 989 q 708 832 671 904 l 622 782 q 553 869 592 838 q 453 901 514 901 q 317 835 372 901 q 242 680 263 769 q 221 486 221 590 q 244 283 221 374 q 321 131 267 192 q 453 71 375 71 q 591 136 540 71 q 642 313 642 201 l 642 371 l 463 371 l 463 457 l 744 457 l 744 350 q 663 80 744 176 q 453 -17 581 -17 z "},"H":{"ha":856,"x_min":147,"x_max":708,"o":"m 147 0 l 147 972 l 244 972 l 244 551 l 611 551 l 611 972 l 708 972 l 708 0 l 611 0 l 611 460 l 244 460 l 244 0 l 147 0 z "},"I":{"ha":856,"x_min":147,"x_max":708,"o":"m 708 881 l 476 881 l 476 92 l 708 92 l 708 0 l 147 0 l 147 92 l 379 92 l 379 881 l 147 881 l 147 972 l 708 972 l 708 881 z "},"J":{"ha":856,"x_min":142,"x_max":699,"o":"m 404 -17 q 142 149 207 -17 l 218 190 q 285 98 249 125 q 406 71 322 71 q 544 123 488 71 q 601 292 601 175 l 601 972 l 699 972 l 699 308 q 672 147 699 214 q 599 46 644 79 q 505 -2 553 13 q 404 -17 457 -17 z "},"K":{"ha":856,"x_min":147,"x_max":763,"o":"m 653 0 l 364 551 l 244 399 l 244 0 l 147 0 l 147 972 l 244 972 l 244 529 l 588 972 l 696 972 l 431 635 l 763 0 l 653 0 z "},"L":{"ha":856,"x_min":147,"x_max":714,"o":"m 147 0 l 147 972 l 244 972 l 244 93 l 714 93 l 714 0 l 147 0 z "},"M":{"ha":856,"x_min":147,"x_max":708,"o":"m 147 0 l 147 972 l 260 972 l 408 365 q 428 263 422 310 q 447 365 431 297 l 596 972 l 708 972 l 708 0 l 615 0 l 615 651 q 618 743 615 708 q 600 651 610 690 l 439 0 l 417 0 l 256 651 q 238 743 246 690 q 240 651 240 674 l 240 0 l 147 0 z "},"N":{"ha":856,"x_min":147,"x_max":708,"o":"m 147 0 l 147 972 l 246 972 l 593 250 q 613 206 610 213 q 611 251 611 232 l 611 972 l 708 972 l 708 0 l 610 0 l 264 708 q 243 756 254 728 q 244 710 244 733 l 244 0 l 147 0 z "},"O":{"ha":856,"x_min":115,"x_max":740,"o":"m 574 27 q 543 5 574 27 q 428 -17 511 -17 q 281 27 344 -17 q 183 145 218 71 q 132 305 149 219 q 115 486 115 390 q 132 667 115 582 q 183 827 149 753 q 281 945 218 901 q 428 989 344 989 q 574 945 511 989 q 672 827 638 901 q 724 667 707 753 q 740 486 740 582 q 724 305 740 390 q 672 145 707 219 q 574 27 638 71 m 428 71 q 526 108 483 71 q 593 207 569 144 q 628 340 617 269 q 639 486 639 410 q 628 641 639 569 q 593 772 617 713 q 527 867 569 832 q 428 901 485 901 q 329 865 372 901 q 263 765 286 828 q 228 633 239 703 q 217 486 217 563 q 228 331 217 403 q 263 200 239 260 q 328 106 286 140 q 428 71 371 71 z "},"P":{"ha":856,"x_min":147,"x_max":733,"o":"m 147 0 l 147 972 l 426 972 q 660 890 588 972 q 733 686 733 807 q 657 488 733 574 q 426 401 581 401 l 244 401 l 244 0 l 147 0 m 244 489 l 435 489 q 590 547 540 489 q 640 686 640 606 q 592 825 640 765 q 435 885 544 885 l 244 885 l 244 489 z "},"Q":{"ha":856,"x_min":115,"x_max":740,"o":"m 740 486 q 707 235 740 351 q 604 53 674 118 l 685 -68 l 618 -118 l 535 6 q 428 -17 486 -17 q 281 27 344 -17 q 183 145 218 71 q 132 305 149 219 q 115 486 115 390 q 132 667 115 582 q 183 827 149 753 q 281 945 218 901 q 428 989 344 989 q 574 945 511 989 q 672 827 638 901 q 724 667 707 753 q 740 486 740 582 m 428 71 q 483 82 457 71 l 419 176 l 489 226 l 550 133 q 639 486 639 246 q 628 641 639 569 q 593 772 617 713 q 527 867 569 832 q 428 901 485 901 q 329 865 372 901 q 263 765 286 828 q 228 633 239 703 q 217 486 217 563 q 228 331 217 403 q 263 200 239 260 q 328 106 286 140 q 428 71 371 71 z "},"R":{"ha":856,"x_min":147,"x_max":726,"o":"m 726 706 q 708 594 726 646 q 637 499 689 543 q 504 442 585 456 l 721 0 l 614 0 l 406 435 l 244 435 l 244 0 l 147 0 l 147 972 l 426 972 q 656 896 586 972 q 726 706 726 819 m 244 885 l 244 522 l 429 522 q 585 574 538 522 q 633 701 633 625 q 586 829 633 774 q 429 885 539 885 l 244 885 z "},"S":{"ha":856,"x_min":140,"x_max":711,"o":"m 433 -17 q 247 40 326 -17 q 140 181 168 97 l 232 214 q 311 110 258 149 q 433 71 364 71 q 564 117 517 71 q 611 250 611 164 q 418 478 611 394 q 327 523 365 501 q 249 578 289 544 q 188 658 208 611 q 167 763 167 706 q 236 924 167 858 q 422 989 306 989 q 581 946 515 989 q 664 835 646 903 l 574 804 q 518 874 558 846 q 419 901 478 901 q 308 864 349 901 q 267 764 267 826 q 317 652 267 694 q 464 568 368 610 q 552 522 514 546 q 629 460 590 497 q 690 371 668 424 q 711 253 711 318 q 635 55 711 126 q 433 -17 558 -17 z "},"T":{"ha":856,"x_min":101,"x_max":754,"o":"m 379 0 l 379 879 l 101 879 l 101 972 l 754 972 l 754 879 l 476 879 l 476 0 l 379 0 z "},"U":{"ha":856,"x_min":122,"x_max":733,"o":"m 733 367 q 428 -17 733 -17 q 122 367 122 -17 l 122 972 l 219 972 l 219 367 q 428 71 219 71 q 636 367 636 71 l 636 972 l 733 972 l 733 367 z "},"V":{"ha":856,"x_min":69,"x_max":786,"o":"m 393 0 l 69 972 l 171 972 l 410 222 q 428 151 422 181 q 446 222 433 181 l 685 972 l 786 972 l 463 0 l 393 0 z "},"W":{"ha":856,"x_min":72,"x_max":783,"o":"m 229 0 l 72 972 l 168 972 l 265 299 q 269 268 267 289 q 272 240 271 247 q 281 299 278 281 l 389 972 l 469 972 l 578 307 q 581 281 579 299 q 585 257 583 264 q 589 286 586 268 l 590 306 l 689 972 l 783 972 l 626 0 l 546 0 l 438 660 q 429 721 435 676 q 421 663 424 681 l 310 0 l 229 0 z "},"X":{"ha":856,"x_min":97,"x_max":757,"o":"m 757 0 l 653 0 l 422 424 l 200 0 l 97 0 l 378 504 l 118 972 l 224 972 l 428 597 l 628 972 l 729 972 l 472 517 l 757 0 z "},"Y":{"ha":856,"x_min":104,"x_max":751,"o":"m 651 972 l 751 972 l 478 385 l 478 0 l 381 0 l 381 385 l 104 972 l 211 972 l 429 472 l 651 972 z "},"Z":{"ha":856,"x_min":122,"x_max":736,"o":"m 736 972 l 736 901 l 244 92 l 731 92 l 731 0 l 122 0 l 122 68 l 614 881 l 154 881 l 154 972 l 736 972 z "},"[":{"ha":856,"x_min":343,"x_max":633,"o":"m 343 -181 l 343 989 l 633 989 l 633 901 l 440 901 l 440 -93 l 633 -93 l 633 -181 l 343 -181 z "},"\\":{"ha":856,"x_min":168,"x_max":808,"o":"m 714 -181 l 168 989 l 263 989 l 808 -181 l 714 -181 z "},"]":{"ha":856,"x_min":343,"x_max":633,"o":"m 633 -181 l 343 -181 l 343 -93 l 536 -93 l 536 901 l 343 901 l 343 989 l 633 989 l 633 -181 z "},"^":{"ha":856,"x_min":169,"x_max":808,"o":"m 708 503 l 489 868 l 269 503 l 169 503 l 435 989 l 540 989 l 808 503 l 708 503 z "},"_":{"ha":856,"x_min":56,"x_max":800,"o":"m 56 -246 l 56 -139 l 800 -139 l 800 -246 l 56 -246 z "},"`":{"ha":856,"x_min":315,"x_max":661,"o":"m 563 800 l 315 1017 l 464 1017 l 661 800 l 563 800 z "},"a":{"ha":856,"x_min":133,"x_max":690,"o":"m 383 -17 q 201 45 268 -17 q 133 224 133 107 q 210 399 133 339 q 400 458 286 458 q 600 408 507 458 l 600 468 q 444 642 600 642 q 219 565 340 642 l 192 649 q 454 726 321 726 q 535 716 497 726 q 609 680 572 706 q 668 603 646 654 q 690 481 690 553 l 690 0 l 600 0 l 600 69 q 383 -17 504 -17 m 393 68 q 600 178 511 68 l 600 315 q 410 374 513 374 q 276 335 329 374 q 224 224 224 297 q 268 110 224 153 q 393 68 313 68 z "},"b":{"ha":856,"x_min":153,"x_max":751,"o":"m 457 -17 q 363 -3 406 -17 q 301 25 321 11 q 250 64 281 39 l 250 0 l 153 0 l 153 954 l 250 1003 l 250 640 q 449 726 329 726 q 669 628 588 726 q 751 356 751 529 q 674 80 751 176 q 457 -17 596 -17 m 442 71 q 597 146 544 71 q 650 356 650 221 q 597 566 650 493 q 442 639 544 639 q 324 606 375 639 q 250 531 274 572 l 250 182 q 331 101 279 131 q 442 71 382 71 z "},"c":{"ha":856,"x_min":156,"x_max":701,"o":"m 444 -17 q 233 81 310 -17 q 156 354 156 178 q 235 628 156 529 q 456 726 314 726 q 600 688 539 726 q 692 578 661 649 l 603 543 q 451 639 561 639 q 257 354 257 639 q 449 71 257 71 q 551 100 508 71 q 614 179 594 129 l 701 146 q 606 27 675 71 q 444 -17 538 -17 z "},"d":{"ha":856,"x_min":104,"x_max":703,"o":"m 407 -17 q 185 84 267 -17 q 104 356 104 185 q 185 628 104 529 q 407 726 267 726 q 606 660 522 726 l 606 954 l 703 1003 l 703 0 l 606 0 l 606 61 q 407 -17 528 -17 m 418 71 q 606 182 544 71 l 606 536 q 418 639 542 639 q 260 565 315 639 q 206 356 206 492 q 264 152 206 233 q 418 71 322 71 z "},"e":{"ha":856,"x_min":124,"x_max":732,"o":"m 732 383 q 729 315 732 346 l 226 315 q 297 138 240 201 q 446 74 354 74 q 615 129 536 74 l 668 64 q 442 -17 565 -17 q 210 91 296 -17 q 124 356 124 199 q 210 628 124 531 q 442 726 296 726 q 650 640 568 726 q 732 383 732 553 m 224 403 l 633 403 q 574 585 632 532 q 442 639 517 639 q 284 576 339 639 q 224 403 229 514 z "},"f":{"ha":856,"x_min":193,"x_max":678,"o":"m 539 899 q 481 892 503 899 q 451 869 460 885 q 440 840 442 853 q 438 801 438 826 l 438 710 l 626 710 l 626 622 l 438 622 l 438 88 l 626 88 l 626 0 l 193 0 l 193 88 l 340 88 l 340 622 l 193 622 l 193 710 l 340 710 l 340 817 q 392 949 340 908 q 529 989 444 989 q 678 956 603 989 l 678 868 q 539 899 614 899 z "},"g":{"ha":856,"x_min":103,"x_max":704,"o":"m 371 -296 l 326 -219 q 547 -161 486 -211 q 607 -28 607 -111 l 607 81 q 403 -17 542 -17 q 190 81 276 -17 q 103 356 103 179 q 188 627 103 528 q 408 726 272 726 q 607 643 536 726 l 607 710 l 704 710 l 704 11 q 371 -296 704 -282 m 425 71 q 528 103 478 71 q 607 189 578 135 l 607 531 q 526 610 578 581 q 425 639 474 639 q 260 566 315 639 q 204 356 204 493 q 266 147 204 222 q 425 71 328 71 z "},"h":{"ha":856,"x_min":153,"x_max":704,"o":"m 153 0 l 153 957 l 250 1003 l 250 631 q 442 726 315 726 q 641 647 578 726 q 704 393 704 568 l 704 0 l 607 0 l 607 433 q 560 590 607 540 q 433 639 513 639 q 250 436 250 639 l 250 0 l 153 0 z "},"i":{"ha":856,"x_min":206,"x_max":694,"o":"m 496 874 q 487 865 496 874 q 450 856 478 856 q 404 874 422 856 q 386 919 386 892 q 405 967 386 947 q 450 986 424 986 q 496 967 478 986 q 514 919 514 947 q 496 874 514 892 m 499 88 l 694 88 l 694 0 l 206 0 l 206 88 l 401 88 l 401 622 l 206 622 l 206 710 l 499 710 l 499 88 z "},"j":{"ha":856,"x_min":235,"x_max":544,"o":"m 526 874 q 517 865 526 874 q 481 856 508 856 q 435 874 453 856 q 417 919 417 892 q 435 967 417 947 q 481 986 454 986 q 526 967 508 986 q 544 919 544 947 q 526 874 544 892 m 529 710 l 529 -44 q 469 -230 529 -169 q 279 -296 408 -290 l 235 -212 q 392 -162 353 -201 q 432 -28 432 -124 l 432 622 l 236 622 l 236 710 l 529 710 z "},"k":{"ha":856,"x_min":153,"x_max":722,"o":"m 615 0 l 386 453 l 250 308 l 250 0 l 153 0 l 153 956 l 250 1003 l 250 424 l 515 710 l 628 710 l 454 525 l 722 0 l 615 0 z "},"l":{"ha":856,"x_min":163,"x_max":672,"o":"m 476 88 l 672 88 l 672 0 l 183 0 l 183 88 l 379 88 l 379 915 l 206 915 l 163 1003 l 476 1003 l 476 88 z "},"m":{"ha":856,"x_min":74,"x_max":782,"o":"m 608 726 q 740 669 697 726 q 782 492 782 613 l 782 0 l 682 0 l 682 435 q 664 590 682 543 q 590 636 646 636 q 505 578 532 636 q 478 425 478 519 l 478 0 l 378 0 l 378 453 q 375 522 378 493 q 364 578 372 550 q 338 622 356 607 q 292 636 319 636 q 204 576 235 636 q 174 425 174 517 l 174 0 l 74 0 l 74 710 l 168 710 l 168 624 q 304 726 213 726 q 398 694 361 726 q 449 615 435 663 q 608 726 507 726 z "},"n":{"ha":856,"x_min":153,"x_max":704,"o":"m 442 726 q 641 647 578 726 q 704 393 704 568 l 704 0 l 607 0 l 607 433 q 560 590 607 540 q 433 639 513 639 q 250 436 250 639 l 250 0 l 153 0 l 153 710 l 244 710 l 244 625 q 442 726 311 726 z "},"o":{"ha":856,"x_min":100,"x_max":756,"o":"m 666 83 q 621 33 666 83 q 428 -17 576 -17 q 190 81 279 -17 q 100 354 100 179 q 190 627 100 528 q 428 726 279 726 q 666 628 576 726 q 756 356 756 531 q 666 83 756 182 m 428 71 q 594 147 535 71 q 654 356 654 222 q 596 565 654 490 q 428 639 538 639 q 259 566 317 639 q 201 354 201 493 q 260 145 201 219 q 428 71 318 71 z "},"p":{"ha":856,"x_min":153,"x_max":757,"o":"m 153 -282 l 153 710 l 250 710 l 250 646 q 336 706 292 685 q 449 726 381 726 q 674 626 592 726 q 757 356 757 525 q 673 82 757 181 q 454 -17 589 -17 q 250 72 326 -17 l 250 -233 l 153 -282 m 443 71 q 600 144 544 71 q 656 356 656 218 q 598 563 656 486 q 438 639 540 639 q 250 529 311 639 l 250 181 q 443 71 335 71 z "},"q":{"ha":856,"x_min":101,"x_max":703,"o":"m 606 -278 l 606 72 q 407 -17 526 -17 q 183 81 265 -17 q 101 354 101 179 q 182 626 101 525 q 407 726 263 726 q 606 646 504 726 l 606 710 l 703 710 l 703 -233 l 606 -278 m 411 71 q 499 92 457 71 q 560 132 540 113 q 606 183 579 151 l 606 529 q 421 639 543 639 q 261 558 319 639 q 203 354 203 478 q 256 144 203 217 q 411 71 310 71 z "},"r":{"ha":856,"x_min":71,"x_max":747,"o":"m 597 726 q 747 694 699 726 l 747 457 l 649 457 l 649 622 q 590 626 624 626 q 402 573 485 626 q 319 426 319 519 l 319 88 l 532 88 l 532 0 l 71 0 l 71 88 l 218 88 l 218 622 l 71 622 l 71 710 l 314 710 l 314 585 q 436 688 354 649 q 597 726 518 726 z "},"s":{"ha":856,"x_min":168,"x_max":668,"o":"m 421 -17 q 283 17 350 -17 q 168 107 215 51 l 236 167 q 429 69 321 69 q 535 97 493 69 q 576 172 576 124 q 562 227 576 203 q 516 272 547 251 q 460 303 485 292 q 392 331 436 314 q 306 368 339 351 q 239 410 274 385 q 188 469 204 435 q 171 546 171 503 q 238 676 171 626 q 408 726 304 726 q 647 618 554 726 l 583 564 q 406 640 504 640 q 301 615 340 640 q 263 547 263 590 q 273 508 263 526 q 296 478 283 490 q 336 452 308 467 q 381 431 364 438 q 433 411 397 425 q 519 376 489 390 q 590 333 549 361 q 649 267 631 306 q 668 178 668 229 q 601 36 668 89 q 421 -17 535 -17 z "},"t":{"ha":856,"x_min":156,"x_max":660,"o":"m 492 -17 q 324 153 324 -17 l 324 622 l 156 622 l 156 710 l 324 710 l 324 954 l 421 1003 l 421 710 l 658 710 l 658 622 l 421 622 l 421 194 q 441 105 421 135 q 525 75 461 75 q 660 117 599 75 l 649 15 q 492 -17 589 -17 z "},"u":{"ha":856,"x_min":151,"x_max":703,"o":"m 421 -17 q 215 64 278 -17 q 151 325 151 144 l 151 710 l 251 710 l 251 286 q 297 125 251 176 q 421 74 343 74 q 603 283 603 74 l 603 710 l 703 710 l 703 0 l 603 0 l 603 71 q 523 3 565 22 q 421 -17 481 -17 z "},"v":{"ha":856,"x_min":125,"x_max":732,"o":"m 394 0 l 125 710 l 225 710 l 407 221 q 432 151 425 174 q 457 221 439 174 l 635 710 l 732 710 l 463 0 l 394 0 z "},"w":{"ha":856,"x_min":42,"x_max":814,"o":"m 217 0 l 42 710 l 142 710 l 257 201 q 267 149 264 163 q 272 174 268 154 q 278 206 275 194 l 388 710 l 468 710 l 579 204 q 592 142 582 192 q 603 204 594 167 l 714 710 l 814 710 l 639 0 l 549 0 l 439 483 q 426 546 433 503 q 415 486 419 500 l 308 0 l 217 0 z "},"x":{"ha":856,"x_min":111,"x_max":744,"o":"m 111 0 l 375 367 l 128 710 l 233 710 l 394 486 q 428 438 406 471 q 461 486 450 471 l 622 710 l 728 710 l 481 367 l 744 0 l 639 0 l 461 247 q 428 296 450 263 q 394 247 406 263 l 217 0 l 111 0 z "},"y":{"ha":856,"x_min":121,"x_max":733,"o":"m 275 -269 l 381 22 l 121 710 l 219 710 l 399 206 q 411 167 403 192 q 422 133 419 142 l 447 206 l 629 710 l 733 710 l 371 -269 l 275 -269 z "},"z":{"ha":856,"x_min":174,"x_max":682,"o":"m 174 0 l 174 60 l 553 622 l 201 622 l 201 710 l 682 710 l 682 651 l 300 88 l 681 88 l 681 0 l 174 0 z "},"{":{"ha":856,"x_min":218,"x_max":638,"o":"m 607 -181 q 416 -96 486 -178 q 346 140 346 -14 l 346 211 q 317 322 346 279 q 240 365 288 365 l 218 365 l 218 444 l 240 444 q 317 487 288 444 q 346 599 346 529 l 346 668 q 417 906 346 824 q 607 989 488 989 l 638 989 l 638 907 l 607 907 q 487 851 528 907 q 446 694 446 796 l 446 617 q 409 457 446 501 q 294 407 372 413 l 294 401 q 410 354 375 396 q 446 192 446 313 l 446 114 q 487 -43 446 13 q 607 -99 528 -99 l 638 -99 l 638 -181 l 607 -181 z "},"|":{"ha":856,"x_min":379,"x_max":476,"o":"m 379 -525 l 379 1475 l 476 1475 l 476 -525 l 379 -525 z "},"}":{"ha":856,"x_min":218,"x_max":638,"o":"m 218 -181 l 218 -99 l 249 -99 q 369 -43 328 -99 q 410 114 410 13 l 410 192 q 445 354 410 313 q 561 401 481 396 l 561 407 q 447 457 483 413 q 410 617 410 501 l 410 694 q 369 851 410 796 q 249 907 328 907 l 218 907 l 218 989 l 249 989 q 439 906 368 989 q 510 668 510 824 l 510 599 q 539 487 510 529 q 615 444 568 444 l 638 444 l 638 365 l 615 365 q 539 322 568 365 q 510 211 510 279 l 510 140 q 440 -96 510 -14 q 249 -181 369 -178 l 218 -181 z "},"~":{"ha":856,"x_min":165,"x_max":813,"o":"m 640 385 q 477 428 581 385 q 329 472 374 472 q 253 448 283 472 q 221 385 224 424 l 165 385 q 207 514 165 463 q 338 565 249 565 q 504 522 400 565 q 649 478 608 478 q 724 502 694 478 q 757 565 754 526 l 813 565 q 770 436 813 488 q 640 385 728 385 z "}," ":{"ha":856,"x_min":0,"x_max":0,"o":""},"¡":{"ha":856,"x_min":340,"x_max":515,"o":"m 490 578 q 477 565 490 578 q 428 551 464 551 q 366 578 392 551 q 340 639 340 604 q 366 700 340 674 q 428 726 392 726 q 490 700 464 726 q 515 639 515 674 q 490 578 515 604 m 375 -278 l 375 19 l 418 439 l 433 439 l 475 19 l 475 -278 l 375 -278 z "},"¢":{"ha":856,"x_min":163,"x_max":692,"o":"m 392 -17 l 392 118 q 224 236 285 140 q 163 486 163 332 q 222 733 163 639 q 392 850 282 826 l 392 989 l 488 989 l 488 854 q 688 706 639 842 l 593 669 q 461 761 558 761 q 313 690 363 761 q 264 486 264 618 q 313 281 264 353 q 454 210 361 210 q 546 238 507 210 q 599 317 585 267 l 692 283 q 488 115 646 128 l 488 -17 l 392 -17 z "},"£":{"ha":856,"x_min":163,"x_max":814,"o":"m 169 0 l 169 110 q 267 226 238 140 q 297 397 297 311 l 297 417 l 163 417 l 163 496 l 275 496 q 257 529 271 503 q 238 568 243 556 q 223 606 232 581 q 210 658 214 631 q 207 721 207 686 q 288 911 207 833 q 519 989 368 989 q 794 899 679 989 l 757 810 q 519 896 653 896 q 365 843 418 896 q 313 719 313 790 q 328 631 313 674 q 362 551 343 588 q 385 496 381 515 l 613 496 l 613 417 l 403 417 l 403 401 q 256 90 403 224 l 814 90 l 814 0 l 169 0 z "},"¤":{"ha":856,"x_min":57,"x_max":797,"o":"m 426 119 q 221 183 301 119 l 131 92 l 57 167 l 151 261 q 100 463 100 339 q 150 665 100 582 l 57 758 l 126 831 l 218 740 q 426 807 308 807 q 633 742 546 807 l 724 831 l 797 754 l 707 664 q 756 463 756 579 q 701 257 756 340 l 797 163 l 728 92 l 635 185 q 426 119 553 119 m 426 213 q 593 283 529 213 q 657 463 657 353 q 593 642 657 571 q 426 714 529 714 q 262 642 325 714 q 199 463 199 571 q 262 283 199 353 q 426 213 325 213 z "},"¥":{"ha":856,"x_min":82,"x_max":774,"o":"m 472 429 l 688 429 l 688 346 l 476 346 l 476 254 l 688 254 l 688 171 l 476 171 l 476 0 l 379 0 l 379 171 l 151 171 l 151 254 l 379 254 l 379 346 l 151 346 l 151 429 l 382 429 l 82 972 l 190 972 l 426 522 l 674 972 l 774 972 l 472 429 z "},"¦":{"ha":856,"x_min":379,"x_max":476,"o":"m 379 508 l 379 1146 l 476 1146 l 476 508 l 379 508 m 379 -312 l 379 325 l 476 325 l 476 -312 l 379 -312 z "},"§":{"ha":856,"x_min":140,"x_max":714,"o":"m 432 -167 q 255 -131 333 -167 q 140 -47 176 -96 l 214 18 q 428 -72 289 -72 q 613 53 613 -72 q 597 111 613 85 q 547 158 581 138 q 488 190 514 178 q 416 220 461 203 q 354 244 371 238 q 276 280 301 267 q 218 317 251 293 q 171 373 185 342 q 157 446 157 404 q 186 540 157 500 q 261 596 215 579 q 157 789 157 654 q 233 935 157 882 q 422 989 310 989 q 686 879 596 989 l 611 819 q 422 892 542 892 q 261 782 261 892 q 274 738 261 758 q 304 703 288 717 q 358 671 321 689 q 418 644 394 653 q 494 615 442 635 q 578 580 549 594 q 644 539 608 565 q 697 476 681 513 q 714 388 714 439 q 626 240 714 281 q 714 57 714 176 q 639 -108 714 -50 q 432 -167 564 -167 m 536 283 q 613 383 613 315 q 597 438 613 414 q 540 483 581 461 q 472 515 500 504 q 378 549 443 526 q 292 513 324 540 q 261 446 261 486 q 276 401 261 421 q 323 364 290 381 q 382 337 356 347 q 460 310 408 326 q 536 283 511 293 z "},"¨":{"ha":856,"x_min":247,"x_max":608,"o":"m 313 842 q 267 861 286 842 q 247 907 247 881 q 266 953 247 935 q 313 972 285 972 q 359 953 340 972 q 378 907 378 935 q 359 860 378 879 q 313 842 340 842 m 543 842 q 497 861 517 842 q 478 907 478 881 q 497 953 478 935 q 543 972 515 972 q 590 953 571 972 q 608 907 608 935 q 590 860 608 879 q 543 842 571 842 z "},"©":{"ha":856,"x_min":22,"x_max":833,"o":"m 717 128 q 658 56 717 128 q 428 -17 600 -17 q 139 128 256 -17 q 22 486 22 272 q 139 844 22 700 q 428 989 256 989 q 717 844 600 989 q 833 486 833 700 q 717 128 833 272 m 194 181 q 241 119 194 181 q 428 58 288 58 q 660 181 568 58 q 751 486 751 303 q 660 791 751 669 q 428 913 568 913 q 194 790 288 913 q 101 486 101 668 q 194 181 101 303 m 436 192 q 265 272 332 192 q 197 493 197 351 q 267 713 197 631 q 447 796 336 796 q 639 643 588 796 l 551 607 q 435 706 521 706 q 292 493 292 706 q 439 279 292 279 q 564 392 543 279 l 643 360 q 567 235 621 279 q 436 192 513 192 z "},"ª":{"ha":856,"x_min":190,"x_max":665,"o":"m 571 393 l 571 435 q 493 396 540 413 q 404 379 446 379 q 249 431 307 379 q 190 578 190 482 q 260 721 190 669 q 421 772 331 772 q 571 740 497 772 l 571 760 q 539 872 571 840 q 431 903 507 903 q 269 853 333 903 l 244 935 q 444 989 315 989 q 522 982 489 989 q 591 955 556 975 q 646 889 626 935 q 665 774 665 843 l 665 393 l 571 393 m 415 461 q 499 481 454 461 q 571 525 543 500 l 571 653 q 431 689 503 689 q 331 661 372 689 q 290 578 290 633 q 324 492 290 524 q 415 461 358 461 z "},"«":{"ha":856,"x_min":128,"x_max":726,"o":"m 339 0 l 128 356 l 339 710 l 447 710 l 236 356 l 447 0 l 339 0 m 615 0 l 404 356 l 615 710 l 726 710 l 515 356 l 726 0 l 615 0 z "},"¬":{"ha":856,"x_min":101,"x_max":754,"o":"m 654 244 l 654 550 l 101 550 l 101 643 l 754 643 l 754 244 l 654 244 z "},"­":{"ha":856,"x_min":101,"x_max":754,"o":"m 101 367 l 101 461 l 754 461 l 754 367 l 101 367 z "},"®":{"ha":856,"x_min":22,"x_max":833,"o":"m 139 844 q 197 917 139 844 q 428 989 256 989 q 717 844 600 989 q 833 486 833 700 q 717 128 833 272 q 428 -17 600 -17 q 139 128 256 -17 q 22 486 22 272 q 139 844 22 700 m 194 181 q 241 119 194 181 q 428 58 288 58 q 660 181 568 58 q 751 486 751 303 q 660 791 751 669 q 428 913 568 913 q 194 790 288 913 q 101 486 101 668 q 194 181 101 303 m 605 725 q 625 699 605 725 q 646 608 646 672 q 606 492 646 544 q 500 431 567 440 l 642 190 l 542 190 l 410 429 l 329 429 l 329 190 l 239 190 l 239 778 l 485 778 q 605 725 564 778 m 329 694 l 329 507 l 488 507 q 539 535 519 507 q 558 606 558 564 q 540 667 558 639 q 488 694 521 694 l 329 694 z "},"¯":{"ha":856,"x_min":199,"x_max":657,"o":"m 199 846 l 199 931 l 657 931 l 657 846 l 199 846 z "},"°":{"ha":856,"x_min":193,"x_max":663,"o":"m 429 625 q 261 692 329 625 q 193 857 193 758 q 261 1022 193 956 q 429 1088 329 1088 q 595 1022 528 1088 q 663 857 663 956 q 595 692 663 758 q 429 625 528 625 m 335 760 q 354 740 335 760 q 429 721 374 721 q 522 760 485 721 q 558 857 558 799 q 522 956 558 918 q 429 994 486 994 q 334 956 372 994 q 296 857 296 917 q 335 760 296 799 z "},"±":{"ha":856,"x_min":101,"x_max":754,"o":"m 476 518 l 476 285 l 376 285 l 376 518 l 101 518 l 101 611 l 376 611 l 376 844 l 476 844 l 476 611 l 754 611 l 754 518 l 476 518 m 101 0 l 101 93 l 754 93 l 754 0 l 101 0 z "},"²":{"ha":856,"x_min":244,"x_max":592,"o":"m 244 826 q 272 936 244 893 q 337 997 299 979 q 413 1027 375 1015 q 478 1052 451 1039 q 506 1089 506 1065 q 488 1126 506 1111 q 438 1142 471 1142 q 357 1117 390 1142 q 314 1044 324 1092 l 246 1074 q 308 1176 260 1138 q 435 1214 357 1214 q 549 1181 506 1214 q 592 1082 592 1149 q 553 1013 592 1042 q 470 971 515 983 q 385 941 425 958 q 344 903 346 924 l 590 903 l 590 826 l 244 826 z "},"³":{"ha":856,"x_min":238,"x_max":608,"o":"m 429 810 q 238 911 296 810 l 314 943 q 436 879 354 879 q 497 897 474 879 q 519 942 519 915 q 442 985 519 985 l 394 985 l 394 1054 l 425 1054 q 481 1063 465 1054 q 497 1096 497 1071 q 478 1130 497 1115 q 428 1144 460 1144 q 322 1083 358 1144 l 249 1108 q 319 1184 271 1154 q 426 1214 367 1214 q 541 1185 497 1214 q 585 1104 585 1156 q 565 1053 585 1075 q 519 1028 544 1031 q 581 1002 553 1024 q 608 935 608 981 q 561 846 608 882 q 429 810 514 810 z "},"´":{"ha":856,"x_min":288,"x_max":633,"o":"m 288 800 l 485 1017 l 633 1017 l 386 800 l 288 800 z "},"µ":{"ha":856,"x_min":160,"x_max":694,"o":"m 597 0 l 597 71 q 403 -17 511 -17 q 318 1 351 -17 q 257 68 285 19 l 257 -231 l 160 -278 l 160 710 l 257 710 l 257 276 q 297 113 257 154 q 422 71 336 71 q 597 274 597 71 l 597 710 l 694 710 l 694 0 l 597 0 z "},"¶":{"ha":856,"x_min":78,"x_max":776,"o":"m 678 -186 l 678 875 l 536 875 l 536 -233 l 438 -278 l 438 386 q 267 413 340 386 q 155 484 194 439 q 97 578 115 529 q 78 682 78 628 q 94 789 78 739 q 147 881 111 839 q 245 948 182 924 q 394 972 308 972 l 776 972 l 776 -142 l 678 -186 z "},"·":{"ha":856,"x_min":340,"x_max":515,"o":"m 490 424 q 477 410 490 424 q 428 397 464 397 q 366 424 392 397 q 340 485 340 450 q 366 546 340 519 q 428 572 392 572 q 490 546 464 572 q 515 485 515 519 q 490 424 515 450 z "},"¸":{"ha":856,"x_min":288,"x_max":567,"o":"m 410 -325 q 288 -286 333 -325 l 351 -244 q 401 -258 363 -258 q 453 -237 431 -258 q 475 -187 475 -217 q 449 -141 475 -161 q 390 -121 422 -121 q 340 -128 356 -121 l 324 -107 l 418 14 l 475 14 l 421 -76 q 531 -110 496 -76 q 567 -189 567 -143 q 522 -287 567 -249 q 410 -325 478 -325 z "},"¹":{"ha":856,"x_min":315,"x_max":465,"o":"m 381 825 l 381 1067 l 315 1067 l 315 1126 q 407 1203 383 1126 l 465 1203 l 465 825 l 381 825 z "},"º":{"ha":856,"x_min":164,"x_max":690,"o":"m 426 378 q 235 458 306 378 q 164 683 164 539 q 235 908 164 826 q 426 989 306 989 q 619 908 549 989 q 690 683 690 826 q 619 458 690 539 q 426 378 549 378 m 426 468 q 593 683 593 468 q 426 899 593 899 q 306 842 350 899 q 261 683 261 786 q 306 524 261 581 q 426 468 350 468 z "},"»":{"ha":856,"x_min":128,"x_max":726,"o":"m 128 0 l 339 356 l 128 710 l 236 710 l 447 356 l 236 0 l 128 0 m 404 0 l 615 356 l 404 710 l 515 710 l 726 356 l 515 0 l 404 0 z "},"¼":{"ha":856,"x_min":63,"x_max":793,"o":"m 381 600 l 381 842 l 315 842 l 315 901 q 407 978 383 901 l 465 978 l 465 600 l 381 600 m 63 453 l 63 531 l 793 531 l 793 453 l 63 453 m 460 0 l 460 81 l 213 81 l 213 136 l 465 378 l 544 378 l 544 157 l 617 157 l 617 81 l 544 81 l 544 0 l 460 0 m 460 157 l 460 281 l 333 157 l 460 157 z "},"½":{"ha":856,"x_min":63,"x_max":793,"o":"m 381 600 l 381 842 l 315 842 l 315 901 q 407 978 383 901 l 465 978 l 465 600 l 381 600 m 63 453 l 63 531 l 793 531 l 793 453 l 63 453 m 244 0 q 272 110 244 67 q 337 171 299 153 q 413 201 375 189 q 478 226 451 213 q 506 263 506 239 q 488 300 506 285 q 438 315 471 315 q 357 290 390 315 q 314 218 324 265 l 246 247 q 308 349 260 311 q 435 388 357 388 q 549 355 506 388 q 592 256 592 322 q 553 186 592 215 q 470 144 515 157 q 385 115 425 132 q 344 76 346 97 l 590 76 l 590 0 l 244 0 z "},"¾":{"ha":856,"x_min":63,"x_max":793,"o":"m 429 583 q 238 685 296 583 l 314 717 q 436 653 354 653 q 497 671 474 653 q 519 715 519 689 q 442 758 519 758 l 394 758 l 394 828 l 425 828 q 481 836 465 828 q 497 869 497 844 q 478 903 497 889 q 428 918 460 918 q 322 857 358 918 l 249 882 q 319 958 271 928 q 426 988 367 988 q 541 958 497 988 q 585 878 585 929 q 565 826 585 849 q 519 801 544 804 q 581 776 553 797 q 608 708 608 754 q 561 619 608 656 q 429 583 514 583 m 63 453 l 63 531 l 793 531 l 793 453 l 63 453 m 460 0 l 460 81 l 213 81 l 213 136 l 465 378 l 544 378 l 544 157 l 617 157 l 617 81 l 544 81 l 544 0 l 460 0 m 460 157 l 460 281 l 333 157 l 460 157 z "},"¿":{"ha":856,"x_min":121,"x_max":733,"o":"m 435 553 q 373 578 397 553 q 349 638 349 603 q 374 699 349 672 q 435 726 399 726 q 499 699 471 726 q 526 638 526 671 q 499 578 526 603 q 435 553 471 553 m 411 -278 q 197 -204 274 -278 q 121 -12 121 -131 q 148 98 121 50 q 213 179 175 146 q 290 247 251 213 q 355 331 328 281 q 382 444 382 381 l 382 475 l 481 475 l 481 444 q 453 314 481 369 q 388 225 426 258 q 312 162 350 192 q 247 88 274 132 q 219 -12 219 44 q 270 -141 219 -92 q 411 -190 321 -190 q 575 -131 517 -190 q 633 31 633 -72 l 733 31 q 644 -193 733 -108 q 411 -278 554 -278 z "},"À":{"ha":856,"x_min":68,"x_max":788,"o":"m 507 1064 l 408 1064 l 161 1281 l 310 1281 l 507 1064 m 689 0 l 608 251 l 249 251 l 169 0 l 68 0 l 389 972 l 464 972 l 788 0 l 689 0 m 276 338 l 579 338 l 454 726 q 426 814 429 800 q 400 726 419 786 l 276 338 z "},"Á":{"ha":856,"x_min":68,"x_max":788,"o":"m 711 1281 l 464 1064 l 365 1064 l 563 1281 l 711 1281 m 689 0 l 608 251 l 249 251 l 169 0 l 68 0 l 389 972 l 464 972 l 788 0 l 689 0 m 276 338 l 579 338 l 454 726 q 426 814 429 800 q 400 726 419 786 l 276 338 z "},"Â":{"ha":856,"x_min":68,"x_max":788,"o":"m 426 1204 l 265 1064 l 175 1064 l 371 1281 l 482 1281 l 678 1064 l 588 1064 l 426 1204 m 689 0 l 608 251 l 249 251 l 169 0 l 68 0 l 389 972 l 464 972 l 788 0 l 689 0 m 276 338 l 579 338 l 454 726 q 426 814 429 800 q 400 726 419 786 l 276 338 z "},"Ã":{"ha":856,"x_min":68,"x_max":788,"o":"m 308 1169 q 263 1153 282 1169 q 243 1106 244 1136 l 189 1106 q 318 1258 189 1258 q 444 1223 371 1258 q 547 1188 517 1188 q 592 1205 574 1188 q 613 1253 611 1222 l 665 1253 q 538 1100 665 1100 q 412 1135 485 1100 q 308 1169 339 1169 m 689 0 l 608 251 l 249 251 l 169 0 l 68 0 l 389 972 l 464 972 l 788 0 l 689 0 m 276 338 l 579 338 l 454 726 q 426 814 429 800 q 400 726 419 786 l 276 338 z "},"Ä":{"ha":856,"x_min":68,"x_max":788,"o":"m 358 1124 q 348 1115 358 1124 q 311 1106 339 1106 q 265 1125 283 1106 q 246 1171 246 1144 q 265 1217 246 1199 q 311 1236 283 1236 q 358 1217 339 1236 q 376 1171 376 1199 q 358 1124 376 1143 m 588 1124 q 579 1115 588 1124 q 542 1106 569 1106 q 495 1125 514 1106 q 476 1171 476 1144 q 495 1217 476 1199 q 542 1236 514 1236 q 588 1217 569 1236 q 607 1171 607 1199 q 588 1124 607 1143 m 689 0 l 608 251 l 249 251 l 169 0 l 68 0 l 389 972 l 464 972 l 788 0 l 689 0 m 276 338 l 579 338 l 454 726 q 426 814 429 800 q 400 726 419 786 l 276 338 z "},"Å":{"ha":856,"x_min":68,"x_max":788,"o":"m 689 0 l 608 251 l 249 251 l 169 0 l 68 0 l 369 911 q 297 969 325 929 q 268 1058 268 1010 q 315 1167 268 1122 q 428 1213 363 1213 q 540 1167 493 1213 q 588 1058 588 1122 q 559 968 588 1008 q 485 911 531 928 l 788 0 l 689 0 m 428 1140 q 373 1117 396 1140 q 350 1058 350 1094 q 373 997 350 1021 q 428 972 396 972 q 483 997 461 972 q 506 1058 506 1021 q 483 1118 506 1096 q 428 1140 461 1140 m 276 338 l 579 338 l 454 726 q 426 814 429 800 q 400 726 419 786 l 276 338 z "},"Æ":{"ha":856,"x_min":0,"x_max":854,"o":"m 569 93 l 854 93 l 854 0 l 474 0 l 474 251 l 214 251 l 108 0 l 0 0 l 426 972 l 824 972 l 824 879 l 569 879 l 569 549 l 772 549 l 772 457 l 569 457 l 569 93 m 249 338 l 474 338 l 474 879 q 453 825 464 850 l 249 338 z "},"Ç":{"ha":856,"x_min":115,"x_max":733,"o":"m 733 161 q 640 38 703 88 q 485 -17 578 -12 l 449 -76 q 559 -110 524 -76 q 594 -189 594 -143 q 550 -287 594 -249 q 438 -325 506 -325 q 315 -286 361 -325 l 379 -244 q 429 -258 390 -258 q 481 -237 458 -258 q 503 -187 503 -217 q 476 -141 503 -161 q 418 -121 450 -121 q 368 -128 383 -121 l 351 -107 l 424 -14 q 247 76 318 0 q 145 257 175 153 q 115 486 115 361 q 151 735 115 625 q 270 917 188 846 q 471 989 353 989 q 626 947 569 989 q 719 832 683 904 l 633 782 q 566 869 603 838 q 471 901 529 901 q 322 835 382 901 q 240 680 263 769 q 217 486 217 590 q 281 191 217 311 q 471 71 344 71 q 647 194 589 71 l 733 161 z "},"È":{"ha":856,"x_min":147,"x_max":719,"o":"m 425 1064 l 178 1281 l 326 1281 l 524 1064 l 425 1064 m 147 0 l 147 972 l 689 972 l 689 879 l 244 879 l 244 549 l 554 549 l 554 457 l 244 457 l 244 93 l 719 93 l 719 0 l 147 0 z "},"É":{"ha":856,"x_min":147,"x_max":719,"o":"m 315 1074 l 513 1290 l 661 1290 l 414 1074 l 315 1074 m 147 0 l 147 972 l 689 972 l 689 879 l 244 879 l 244 549 l 554 549 l 554 457 l 244 457 l 244 93 l 719 93 l 719 0 l 147 0 z "},"Ê":{"ha":856,"x_min":147,"x_max":719,"o":"m 576 1064 l 415 1204 l 254 1064 l 164 1064 l 360 1281 l 471 1281 l 667 1064 l 576 1064 m 147 0 l 147 972 l 689 972 l 689 879 l 244 879 l 244 549 l 554 549 l 554 457 l 244 457 l 244 93 l 719 93 l 719 0 l 147 0 z "},"Ë":{"ha":856,"x_min":147,"x_max":719,"o":"m 347 1124 q 337 1115 347 1124 q 300 1106 328 1106 q 253 1125 272 1106 q 235 1171 235 1144 q 253 1217 235 1199 q 300 1236 272 1236 q 347 1217 328 1236 q 365 1171 365 1199 q 347 1124 365 1143 m 577 1124 q 568 1115 577 1124 q 531 1106 558 1106 q 484 1125 503 1106 q 465 1171 465 1144 q 484 1217 465 1199 q 531 1236 503 1236 q 577 1217 558 1236 q 596 1171 596 1199 q 577 1124 596 1143 m 147 0 l 147 972 l 689 972 l 689 879 l 244 879 l 244 549 l 554 549 l 554 457 l 244 457 l 244 93 l 719 93 l 719 0 l 147 0 z "},"Ì":{"ha":856,"x_min":147,"x_max":708,"o":"m 494 1064 l 396 1064 l 149 1281 l 297 1281 l 494 1064 m 708 881 l 476 881 l 476 92 l 708 92 l 708 0 l 147 0 l 147 92 l 379 92 l 379 881 l 147 881 l 147 972 l 708 972 l 708 881 z "},"Í":{"ha":856,"x_min":147,"x_max":708,"o":"m 708 1290 l 461 1074 l 363 1074 l 560 1290 l 708 1290 m 708 972 l 708 881 l 476 881 l 476 92 l 708 92 l 708 0 l 147 0 l 147 92 l 379 92 l 379 881 l 147 881 l 147 972 l 708 972 z "},"Î":{"ha":856,"x_min":149,"x_max":710,"o":"m 428 1204 l 267 1064 l 176 1064 l 372 1281 l 483 1281 l 679 1064 l 589 1064 l 428 1204 m 710 881 l 478 881 l 478 92 l 710 92 l 710 0 l 149 0 l 149 92 l 381 92 l 381 881 l 149 881 l 149 972 l 710 972 l 710 881 z "},"Ï":{"ha":856,"x_min":149,"x_max":710,"o":"m 313 1106 q 267 1125 286 1106 q 247 1171 247 1144 q 266 1217 247 1199 q 313 1236 285 1236 q 359 1217 340 1236 q 378 1171 378 1199 q 359 1124 378 1143 q 313 1106 340 1106 m 543 1106 q 497 1125 517 1106 q 478 1171 478 1144 q 497 1217 478 1199 q 543 1236 515 1236 q 590 1217 571 1236 q 608 1171 608 1199 q 590 1124 608 1143 q 543 1106 571 1106 m 710 881 l 478 881 l 478 92 l 710 92 l 710 0 l 149 0 l 149 92 l 381 92 l 381 881 l 149 881 l 149 972 l 710 972 l 710 881 z "},"Ð":{"ha":856,"x_min":56,"x_max":740,"o":"m 367 972 q 542 931 467 972 q 658 818 617 889 q 720 664 700 747 q 740 486 740 581 q 730 349 740 415 q 692 219 719 283 q 624 106 665 154 q 515 29 582 58 q 361 0 447 0 l 146 0 l 146 442 l 56 442 l 56 528 l 146 528 l 146 972 l 367 972 m 360 88 q 494 122 438 88 q 581 217 551 157 q 625 343 611 276 q 639 486 639 410 q 574 769 639 654 q 375 885 508 885 l 243 885 l 243 528 l 451 528 l 451 442 l 243 442 l 243 88 l 360 88 z "},"Ñ":{"ha":856,"x_min":147,"x_max":708,"o":"m 538 1100 q 412 1135 485 1100 q 308 1169 339 1169 q 263 1153 282 1169 q 243 1106 244 1136 l 189 1106 q 318 1258 189 1258 q 444 1223 371 1258 q 547 1188 517 1188 q 592 1205 574 1188 q 613 1253 611 1222 l 665 1253 q 538 1100 665 1100 m 147 0 l 147 972 l 246 972 l 593 250 q 613 206 610 213 q 611 251 611 232 l 611 972 l 708 972 l 708 0 l 610 0 l 264 708 q 243 756 254 728 q 244 710 244 733 l 244 0 l 147 0 z "},"Ò":{"ha":856,"x_min":115,"x_max":740,"o":"m 424 1064 l 176 1281 l 325 1281 l 522 1064 l 424 1064 m 574 27 q 543 5 574 27 q 428 -17 511 -17 q 281 27 344 -17 q 183 145 218 71 q 132 305 149 219 q 115 486 115 390 q 132 667 115 582 q 183 827 149 753 q 281 945 218 901 q 428 989 344 989 q 574 945 511 989 q 672 827 638 901 q 724 667 707 753 q 740 486 740 582 q 724 305 740 390 q 672 145 707 219 q 574 27 638 71 m 428 71 q 526 108 483 71 q 593 207 569 144 q 628 340 617 269 q 639 486 639 410 q 628 641 639 569 q 593 772 617 713 q 527 867 569 832 q 428 901 485 901 q 329 865 372 901 q 263 765 286 828 q 228 633 239 703 q 217 486 217 563 q 228 331 217 403 q 263 200 239 260 q 328 106 286 140 q 428 71 371 71 z "},"Ó":{"ha":856,"x_min":115,"x_max":740,"o":"m 353 1064 l 550 1281 l 699 1281 l 451 1064 l 353 1064 m 574 27 q 543 5 574 27 q 428 -17 511 -17 q 281 27 344 -17 q 183 145 218 71 q 132 305 149 219 q 115 486 115 390 q 132 667 115 582 q 183 827 149 753 q 281 945 218 901 q 428 989 344 989 q 574 945 511 989 q 672 827 638 901 q 724 667 707 753 q 740 486 740 582 q 724 305 740 390 q 672 145 707 219 q 574 27 638 71 m 428 71 q 526 108 483 71 q 593 207 569 144 q 628 340 617 269 q 639 486 639 410 q 628 641 639 569 q 593 772 617 713 q 527 867 569 832 q 428 901 485 901 q 329 865 372 901 q 263 765 286 828 q 228 633 239 703 q 217 486 217 563 q 228 331 217 403 q 263 200 239 260 q 328 106 286 140 q 428 71 371 71 z "},"Ô":{"ha":856,"x_min":115,"x_max":740,"o":"m 589 1064 l 428 1204 l 267 1064 l 176 1064 l 372 1281 l 483 1281 l 679 1064 l 589 1064 m 574 27 q 543 5 574 27 q 428 -17 511 -17 q 281 27 344 -17 q 183 145 218 71 q 132 305 149 219 q 115 486 115 390 q 132 667 115 582 q 183 827 149 753 q 281 945 218 901 q 428 989 344 989 q 574 945 511 989 q 672 827 638 901 q 724 667 707 753 q 740 486 740 582 q 724 305 740 390 q 672 145 707 219 q 574 27 638 71 m 428 71 q 526 108 483 71 q 593 207 569 144 q 628 340 617 269 q 639 486 639 410 q 628 641 639 569 q 593 772 617 713 q 527 867 569 832 q 428 901 485 901 q 329 865 372 901 q 263 765 286 828 q 228 633 239 703 q 217 486 217 563 q 228 331 217 403 q 263 200 239 260 q 328 106 286 140 q 428 71 371 71 z "},"Õ":{"ha":856,"x_min":115,"x_max":740,"o":"m 539 1100 q 413 1135 486 1100 q 310 1169 340 1169 q 265 1153 283 1169 q 244 1106 246 1136 l 190 1106 q 319 1258 190 1258 q 445 1223 372 1258 q 549 1188 518 1188 q 594 1205 575 1188 q 614 1253 613 1222 l 667 1253 q 539 1100 667 1100 m 574 27 q 543 5 574 27 q 428 -17 511 -17 q 281 27 344 -17 q 183 145 218 71 q 132 305 149 219 q 115 486 115 390 q 132 667 115 582 q 183 827 149 753 q 281 945 218 901 q 428 989 344 989 q 574 945 511 989 q 672 827 638 901 q 724 667 707 753 q 740 486 740 582 q 724 305 740 390 q 672 145 707 219 q 574 27 638 71 m 428 71 q 526 108 483 71 q 593 207 569 144 q 628 340 617 269 q 639 486 639 410 q 628 641 639 569 q 593 772 617 713 q 527 867 569 832 q 428 901 485 901 q 329 865 372 901 q 263 765 286 828 q 228 633 239 703 q 217 486 217 563 q 228 331 217 403 q 263 200 239 260 q 328 106 286 140 q 428 71 371 71 z "},"Ö":{"ha":856,"x_min":115,"x_max":740,"o":"m 313 1106 q 267 1125 286 1106 q 247 1171 247 1144 q 266 1217 247 1199 q 313 1236 285 1236 q 359 1217 340 1236 q 378 1171 378 1199 q 359 1124 378 1143 q 313 1106 340 1106 m 543 1106 q 497 1125 517 1106 q 478 1171 478 1144 q 497 1217 478 1199 q 543 1236 515 1236 q 590 1217 571 1236 q 608 1171 608 1199 q 590 1124 608 1143 q 543 1106 571 1106 m 574 27 q 543 5 574 27 q 428 -17 511 -17 q 281 27 344 -17 q 183 145 218 71 q 132 305 149 219 q 115 486 115 390 q 132 667 115 582 q 183 827 149 753 q 281 945 218 901 q 428 989 344 989 q 574 945 511 989 q 672 827 638 901 q 724 667 707 753 q 740 486 740 582 q 724 305 740 390 q 672 145 707 219 q 574 27 638 71 m 428 71 q 526 108 483 71 q 593 207 569 144 q 628 340 617 269 q 639 486 639 410 q 628 641 639 569 q 593 772 617 713 q 527 867 569 832 q 428 901 485 901 q 329 865 372 901 q 263 765 286 828 q 228 633 239 703 q 217 486 217 563 q 228 331 217 403 q 263 200 239 260 q 328 106 286 140 q 428 71 371 71 z "},"×":{"ha":856,"x_min":121,"x_max":735,"o":"m 431 407 l 193 168 l 121 238 l 363 478 l 122 714 l 190 781 l 428 543 l 665 782 l 735 711 l 496 475 l 733 235 l 668 169 l 431 407 z "},"Ø":{"ha":856,"x_min":42,"x_max":814,"o":"m 814 989 l 686 797 q 740 486 740 669 q 724 305 740 390 q 672 145 707 219 q 574 27 638 71 q 428 -17 511 -17 q 215 93 296 -17 l 142 -17 l 42 -17 l 169 175 q 115 486 115 303 q 132 667 115 582 q 183 827 149 753 q 281 945 218 901 q 428 989 344 989 q 639 881 560 989 l 711 989 l 814 989 m 217 486 q 238 278 217 374 l 582 794 q 428 901 528 901 q 329 865 372 901 q 263 765 286 828 q 228 633 239 703 q 217 486 217 563 m 639 486 q 617 694 639 604 l 272 179 q 428 71 328 71 q 526 108 483 71 q 593 207 569 144 q 628 340 617 269 q 639 486 639 410 z "},"Ù":{"ha":856,"x_min":122,"x_max":733,"o":"m 435 1064 l 188 1281 l 336 1281 l 533 1064 l 435 1064 m 733 367 q 428 -17 733 -17 q 122 367 122 -17 l 122 972 l 219 972 l 219 367 q 428 71 219 71 q 636 367 636 71 l 636 972 l 733 972 l 733 367 z "},"Ú":{"ha":856,"x_min":122,"x_max":733,"o":"m 329 1074 l 526 1290 l 675 1290 l 428 1074 l 329 1074 m 733 367 q 428 -17 733 -17 q 122 367 122 -17 l 122 972 l 219 972 l 219 367 q 428 71 219 71 q 636 367 636 71 l 636 972 l 733 972 l 733 367 z "},"Û":{"ha":856,"x_min":122,"x_max":733,"o":"m 589 1064 l 428 1204 l 267 1064 l 176 1064 l 372 1281 l 483 1281 l 679 1064 l 589 1064 m 733 367 q 428 -17 733 -17 q 122 367 122 -17 l 122 972 l 219 972 l 219 367 q 428 71 219 71 q 636 367 636 71 l 636 972 l 733 972 l 733 367 z "},"Ü":{"ha":856,"x_min":122,"x_max":733,"o":"m 313 1106 q 267 1125 286 1106 q 247 1171 247 1144 q 266 1217 247 1199 q 313 1236 285 1236 q 359 1217 340 1236 q 378 1171 378 1199 q 359 1124 378 1143 q 313 1106 340 1106 m 543 1106 q 497 1125 517 1106 q 478 1171 478 1144 q 497 1217 478 1199 q 543 1236 515 1236 q 590 1217 571 1236 q 608 1171 608 1199 q 590 1124 608 1143 q 543 1106 571 1106 m 733 367 q 428 -17 733 -17 q 122 367 122 -17 l 122 972 l 219 972 l 219 367 q 428 71 219 71 q 636 367 636 71 l 636 972 l 733 972 l 733 367 z "},"Ý":{"ha":856,"x_min":104,"x_max":751,"o":"m 696 1290 l 449 1074 l 350 1074 l 547 1290 l 696 1290 m 651 972 l 751 972 l 478 385 l 478 0 l 381 0 l 381 385 l 104 972 l 211 972 l 429 472 l 651 972 z "},"Þ":{"ha":856,"x_min":147,"x_max":733,"o":"m 147 0 l 147 972 l 244 972 l 244 779 l 426 779 q 660 697 588 779 q 733 493 733 615 q 717 394 733 442 q 665 303 700 346 q 569 234 631 260 q 426 208 507 208 l 244 208 l 244 0 l 147 0 m 435 296 q 590 354 540 296 q 640 493 640 413 q 592 631 640 569 q 435 692 544 692 l 244 692 l 244 296 l 435 296 z "},"ß":{"ha":856,"x_min":136,"x_max":735,"o":"m 136 -282 l 136 664 q 217 909 136 829 q 410 989 299 989 q 608 919 532 989 q 685 735 685 849 q 651 610 685 665 q 553 535 618 556 q 688 440 640 504 q 735 290 735 375 q 653 68 735 153 q 443 -17 571 -17 q 333 6 381 -17 l 379 81 q 446 71 406 71 q 576 126 519 71 q 633 285 633 181 q 578 426 633 369 q 407 483 524 483 l 401 483 l 401 571 l 407 571 q 583 731 583 571 q 540 856 583 811 q 411 901 496 901 q 283 844 333 901 q 233 668 233 786 l 233 -232 l 136 -282 z "},"à":{"ha":856,"x_min":133,"x_max":690,"o":"m 436 800 l 189 1017 l 338 1017 l 535 800 l 436 800 m 383 -17 q 201 45 268 -17 q 133 224 133 107 q 210 399 133 339 q 400 458 286 458 q 600 408 507 458 l 600 468 q 444 642 600 642 q 219 565 340 642 l 192 649 q 454 726 321 726 q 535 716 497 726 q 609 680 572 706 q 668 603 646 654 q 690 481 690 553 l 690 0 l 600 0 l 600 69 q 383 -17 504 -17 m 393 68 q 600 178 511 68 l 600 315 q 410 374 513 374 q 276 335 329 374 q 224 224 224 297 q 268 110 224 153 q 393 68 313 68 z "},"á":{"ha":856,"x_min":133,"x_max":703,"o":"m 357 800 l 554 1017 l 703 1017 l 456 800 l 357 800 m 383 -17 q 201 45 268 -17 q 133 224 133 107 q 210 399 133 339 q 400 458 286 458 q 600 408 507 458 l 600 468 q 444 642 600 642 q 219 565 340 642 l 192 649 q 454 726 321 726 q 535 716 497 726 q 609 680 572 706 q 668 603 646 654 q 690 481 690 553 l 690 0 l 600 0 l 600 69 q 383 -17 504 -17 m 393 68 q 600 178 511 68 l 600 315 q 410 374 513 374 q 276 335 329 374 q 224 224 224 297 q 268 110 224 153 q 393 68 313 68 z "},"â":{"ha":856,"x_min":133,"x_max":692,"o":"m 601 800 l 440 940 l 279 800 l 189 800 l 385 1017 l 496 1017 l 692 800 l 601 800 m 383 -17 q 201 45 268 -17 q 133 224 133 107 q 210 399 133 339 q 400 458 286 458 q 600 408 507 458 l 600 468 q 444 642 600 642 q 219 565 340 642 l 192 649 q 454 726 321 726 q 535 716 497 726 q 609 680 572 706 q 668 603 646 654 q 690 481 690 553 l 690 0 l 600 0 l 600 69 q 383 -17 504 -17 m 393 68 q 600 178 511 68 l 600 315 q 410 374 513 374 q 276 335 329 374 q 224 224 224 297 q 268 110 224 153 q 393 68 313 68 z "},"ã":{"ha":856,"x_min":133,"x_max":693,"o":"m 565 836 q 440 871 513 836 q 336 906 367 906 q 291 889 310 906 q 271 842 272 872 l 217 842 q 346 994 217 994 q 472 959 399 994 q 575 924 544 924 q 620 941 601 924 q 640 989 639 958 l 693 989 q 565 836 693 836 m 383 -17 q 201 45 268 -17 q 133 224 133 107 q 210 399 133 339 q 400 458 286 458 q 600 408 507 458 l 600 468 q 444 642 600 642 q 219 565 340 642 l 192 649 q 454 726 321 726 q 535 716 497 726 q 609 680 572 706 q 668 603 646 654 q 690 481 690 553 l 690 0 l 600 0 l 600 69 q 383 -17 504 -17 m 393 68 q 600 178 511 68 l 600 315 q 410 374 513 374 q 276 335 329 374 q 224 224 224 297 q 268 110 224 153 q 393 68 313 68 z "},"ä":{"ha":856,"x_min":133,"x_max":690,"o":"m 394 860 q 384 851 394 860 q 347 842 375 842 q 301 861 319 842 q 282 907 282 881 q 301 953 282 935 q 347 972 319 972 q 394 953 375 972 q 413 907 413 935 q 394 860 413 879 m 624 860 q 615 851 624 860 q 578 842 606 842 q 531 861 550 842 q 513 907 513 881 q 531 953 513 935 q 578 972 550 972 q 624 953 606 972 q 643 907 643 935 q 624 860 643 879 m 383 -17 q 201 45 268 -17 q 133 224 133 107 q 210 399 133 339 q 400 458 286 458 q 600 408 507 458 l 600 468 q 444 642 600 642 q 219 565 340 642 l 192 649 q 454 726 321 726 q 535 716 497 726 q 609 680 572 706 q 668 603 646 654 q 690 481 690 553 l 690 0 l 600 0 l 600 69 q 383 -17 504 -17 m 393 68 q 600 178 511 68 l 600 315 q 410 374 513 374 q 276 335 329 374 q 224 224 224 297 q 268 110 224 153 q 393 68 313 68 z "},"å":{"ha":856,"x_min":133,"x_max":690,"o":"m 568 846 q 544 822 568 846 q 456 799 521 799 q 343 846 390 799 q 296 957 296 893 q 343 1066 296 1021 q 456 1111 390 1111 q 568 1066 521 1111 q 615 957 615 1021 q 568 846 615 893 m 456 871 q 511 895 489 871 q 533 957 533 919 q 511 1017 533 994 q 456 1039 489 1039 q 401 1016 424 1039 q 378 957 378 993 q 401 895 378 919 q 456 871 424 871 m 383 -17 q 201 45 268 -17 q 133 224 133 107 q 210 399 133 339 q 400 458 286 458 q 600 408 507 458 l 600 468 q 444 642 600 642 q 219 565 340 642 l 192 649 q 454 726 321 726 q 535 716 497 726 q 609 680 572 706 q 668 603 646 654 q 690 481 690 553 l 690 0 l 600 0 l 600 69 q 383 -17 504 -17 m 393 68 q 600 178 511 68 l 600 315 q 410 374 513 374 q 276 335 329 374 q 224 224 224 297 q 268 110 224 153 q 393 68 313 68 z "},"æ":{"ha":856,"x_min":44,"x_max":811,"o":"m 225 -17 q 93 45 142 -17 q 44 224 44 107 q 99 399 44 339 q 238 458 154 458 q 374 408 307 458 l 374 468 q 264 644 374 644 q 107 565 189 644 l 86 649 q 271 726 176 726 q 425 617 385 726 q 600 726 490 726 q 753 637 696 726 q 811 383 811 547 q 810 315 811 346 l 454 315 q 501 137 456 210 q 603 64 547 64 q 724 129 667 64 l 763 64 q 600 -17 688 -17 q 493 23 542 -17 q 418 126 444 63 q 329 19 383 56 q 225 -17 275 -17 m 453 400 l 724 400 q 685 586 724 531 q 600 642 647 642 q 497 580 538 642 q 453 400 457 518 m 232 64 q 319 104 278 64 q 388 199 361 144 q 374 315 374 251 q 244 378 311 378 q 162 338 194 378 q 129 224 129 299 q 156 108 129 151 q 232 64 183 64 z "},"ç":{"ha":856,"x_min":156,"x_max":701,"o":"m 701 146 q 618 34 678 76 q 475 -15 558 -8 l 439 -76 q 549 -110 514 -76 q 585 -189 585 -143 q 540 -287 585 -249 q 428 -325 496 -325 q 306 -286 351 -325 l 369 -244 q 419 -258 381 -258 q 471 -237 449 -258 q 493 -187 493 -217 q 467 -141 493 -161 q 408 -121 440 -121 q 358 -128 374 -121 l 342 -107 l 414 -15 q 224 92 292 -4 q 156 354 156 189 q 235 628 156 529 q 456 726 314 726 q 600 688 539 726 q 692 578 661 649 l 603 543 q 451 639 561 639 q 257 354 257 639 q 449 71 257 71 q 551 100 508 71 q 614 179 594 129 l 701 146 z "},"è":{"ha":856,"x_min":124,"x_max":732,"o":"m 642 800 l 543 800 l 296 1017 l 444 1017 l 642 800 m 732 383 q 729 315 732 346 l 226 315 q 297 138 240 201 q 446 74 354 74 q 615 129 536 74 l 668 64 q 442 -17 565 -17 q 210 91 296 -17 q 124 356 124 199 q 210 628 124 531 q 442 726 296 726 q 650 640 568 726 q 732 383 732 553 m 224 403 l 633 403 q 574 585 632 532 q 442 639 517 639 q 284 576 339 639 q 224 403 229 514 z "},"é":{"ha":856,"x_min":124,"x_max":732,"o":"m 671 1017 l 424 800 l 325 800 l 522 1017 l 671 1017 m 732 383 q 729 315 732 346 l 226 315 q 297 138 240 201 q 446 74 354 74 q 615 129 536 74 l 668 64 q 442 -17 565 -17 q 210 91 296 -17 q 124 356 124 199 q 210 628 124 531 q 442 726 296 726 q 650 640 568 726 q 732 383 732 553 m 224 403 l 633 403 q 574 585 632 532 q 442 639 517 639 q 284 576 339 639 q 224 403 229 514 z "},"ê":{"ha":856,"x_min":124,"x_max":732,"o":"m 442 940 l 281 800 l 190 800 l 386 1017 l 497 1017 l 693 800 l 603 800 l 442 940 m 732 383 q 729 315 732 346 l 226 315 q 297 138 240 201 q 446 74 354 74 q 615 129 536 74 l 668 64 q 442 -17 565 -17 q 210 91 296 -17 q 124 356 124 199 q 210 628 124 531 q 442 726 296 726 q 650 640 568 726 q 732 383 732 553 m 224 403 l 633 403 q 574 585 632 532 q 442 639 517 639 q 284 576 339 639 q 224 403 229 514 z "},"ë":{"ha":856,"x_min":124,"x_max":732,"o":"m 326 842 q 281 861 300 842 q 261 907 261 881 q 280 953 261 935 q 326 972 299 972 q 373 953 354 972 q 392 907 392 935 q 373 860 392 879 q 326 842 354 842 m 557 842 q 511 861 531 842 q 492 907 492 881 q 510 953 492 935 q 557 972 529 972 q 603 953 585 972 q 622 907 622 935 q 603 860 622 879 q 557 842 585 842 m 732 383 q 729 315 732 346 l 226 315 q 297 138 240 201 q 446 74 354 74 q 615 129 536 74 l 668 64 q 442 -17 565 -17 q 210 91 296 -17 q 124 356 124 199 q 210 628 124 531 q 442 726 296 726 q 650 640 568 726 q 732 383 732 553 m 224 403 l 633 403 q 574 585 632 532 q 442 639 517 639 q 284 576 339 639 q 224 403 229 514 z "},"ì":{"ha":856,"x_min":163,"x_max":694,"o":"m 508 800 l 410 800 l 163 1017 l 311 1017 l 508 800 m 499 88 l 694 88 l 694 0 l 206 0 l 206 88 l 401 88 l 401 646 l 206 646 l 206 733 l 499 733 l 499 88 z "},"í":{"ha":856,"x_min":206,"x_max":694,"o":"m 668 1017 l 421 800 l 322 800 l 519 1017 l 668 1017 m 499 88 l 694 88 l 694 0 l 206 0 l 206 88 l 401 88 l 401 646 l 206 646 l 206 733 l 499 733 l 499 88 z "},"î":{"ha":856,"x_min":176,"x_max":694,"o":"m 428 940 l 267 800 l 176 800 l 372 1017 l 483 1017 l 679 800 l 589 800 l 428 940 m 499 88 l 694 88 l 694 0 l 206 0 l 206 88 l 401 88 l 401 646 l 206 646 l 206 733 l 499 733 l 499 88 z "},"ï":{"ha":856,"x_min":206,"x_max":694,"o":"m 313 842 q 267 861 286 842 q 247 907 247 881 q 266 953 247 935 q 313 972 285 972 q 359 953 340 972 q 378 907 378 935 q 359 860 378 879 q 313 842 340 842 m 543 842 q 497 861 517 842 q 478 907 478 881 q 497 953 478 935 q 543 972 515 972 q 590 953 571 972 q 608 907 608 935 q 590 860 608 879 q 543 842 571 842 m 499 88 l 694 88 l 694 0 l 206 0 l 206 88 l 401 88 l 401 646 l 206 646 l 206 733 l 499 733 l 499 88 z "},"ð":{"ha":856,"x_min":124,"x_max":732,"o":"m 428 -17 q 207 74 290 -17 q 124 307 124 165 q 210 543 124 453 q 428 633 296 633 q 633 513 569 633 q 464 828 607 718 l 372 731 l 326 778 l 407 865 q 233 915 329 907 l 233 989 q 461 924 364 978 l 540 1010 l 589 961 l 518 886 q 732 374 732 721 q 652 86 732 189 q 428 -17 572 -17 m 428 71 q 572 138 513 71 q 631 306 631 206 q 573 476 631 407 q 428 546 515 546 q 284 478 343 546 q 225 307 225 410 q 285 139 225 207 q 428 71 344 71 z "},"ñ":{"ha":856,"x_min":153,"x_max":704,"o":"m 317 906 q 272 889 290 906 q 251 842 253 872 l 197 842 q 326 994 197 994 q 452 959 379 994 q 556 924 525 924 q 601 941 582 924 q 621 989 619 958 l 674 989 q 546 836 674 836 q 420 871 493 836 q 317 906 347 906 m 442 726 q 641 647 578 726 q 704 393 704 568 l 704 0 l 607 0 l 607 433 q 560 590 607 540 q 433 639 513 639 q 250 436 250 639 l 250 0 l 153 0 l 153 710 l 244 710 l 244 625 q 442 726 311 726 z "},"ò":{"ha":856,"x_min":100,"x_max":756,"o":"m 444 800 l 197 1017 l 346 1017 l 543 800 l 444 800 m 666 83 q 621 33 666 83 q 428 -17 576 -17 q 190 81 279 -17 q 100 354 100 179 q 190 627 100 528 q 428 726 279 726 q 666 628 576 726 q 756 356 756 531 q 666 83 756 182 m 428 71 q 594 147 535 71 q 654 356 654 222 q 596 565 654 490 q 428 639 538 639 q 259 566 317 639 q 201 354 201 493 q 260 145 201 219 q 428 71 318 71 z "},"ó":{"ha":856,"x_min":100,"x_max":756,"o":"m 339 800 l 536 1017 l 685 1017 l 438 800 l 339 800 m 666 83 q 621 33 666 83 q 428 -17 576 -17 q 190 81 279 -17 q 100 354 100 179 q 190 627 100 528 q 428 726 279 726 q 666 628 576 726 q 756 356 756 531 q 666 83 756 182 m 428 71 q 594 147 535 71 q 654 356 654 222 q 596 565 654 490 q 428 639 538 639 q 259 566 317 639 q 201 354 201 493 q 260 145 201 219 q 428 71 318 71 z "},"ô":{"ha":856,"x_min":100,"x_max":756,"o":"m 589 800 l 428 940 l 267 800 l 176 800 l 372 1017 l 483 1017 l 679 800 l 589 800 m 666 83 q 621 33 666 83 q 428 -17 576 -17 q 190 81 279 -17 q 100 354 100 179 q 190 627 100 528 q 428 726 279 726 q 666 628 576 726 q 756 356 756 531 q 666 83 756 182 m 428 71 q 594 147 535 71 q 654 356 654 222 q 596 565 654 490 q 428 639 538 639 q 259 566 317 639 q 201 354 201 493 q 260 145 201 219 q 428 71 318 71 z "},"õ":{"ha":856,"x_min":100,"x_max":756,"o":"m 539 836 q 413 871 486 836 q 310 906 340 906 q 265 889 283 906 q 244 842 246 872 l 190 842 q 319 994 190 994 q 445 959 372 994 q 549 924 518 924 q 594 941 575 924 q 614 989 613 958 l 667 989 q 539 836 667 836 m 666 83 q 621 33 666 83 q 428 -17 576 -17 q 190 81 279 -17 q 100 354 100 179 q 190 627 100 528 q 428 726 279 726 q 666 628 576 726 q 756 356 756 531 q 666 83 756 182 m 428 71 q 594 147 535 71 q 654 356 654 222 q 596 565 654 490 q 428 639 538 639 q 259 566 317 639 q 201 354 201 493 q 260 145 201 219 q 428 71 318 71 z "},"ö":{"ha":856,"x_min":100,"x_max":756,"o":"m 313 842 q 267 861 286 842 q 247 907 247 881 q 266 953 247 935 q 313 972 285 972 q 359 953 340 972 q 378 907 378 935 q 359 860 378 879 q 313 842 340 842 m 543 842 q 497 861 517 842 q 478 907 478 881 q 497 953 478 935 q 543 972 515 972 q 590 953 571 972 q 608 907 608 935 q 590 860 608 879 q 543 842 571 842 m 666 83 q 621 33 666 83 q 428 -17 576 -17 q 190 81 279 -17 q 100 354 100 179 q 190 627 100 528 q 428 726 279 726 q 666 628 576 726 q 756 356 756 531 q 666 83 756 182 m 428 71 q 594 147 535 71 q 654 356 654 222 q 596 565 654 490 q 428 639 538 639 q 259 566 317 639 q 201 354 201 493 q 260 145 201 219 q 428 71 318 71 z "},"÷":{"ha":856,"x_min":101,"x_max":754,"o":"m 424 696 q 376 715 394 696 q 357 763 357 735 q 376 810 357 789 q 424 831 396 831 q 474 810 453 831 q 494 763 494 789 q 474 715 494 735 q 424 696 454 696 m 101 428 l 101 522 l 754 522 l 754 428 l 101 428 m 424 122 q 376 140 394 122 q 357 186 357 158 q 376 235 357 215 q 424 254 394 254 q 474 234 454 254 q 494 186 494 214 q 474 140 494 158 q 424 122 454 122 z "},"ø":{"ha":856,"x_min":100,"x_max":756,"o":"m 664 631 q 756 356 756 532 q 666 83 756 182 q 428 -17 576 -17 q 247 32 324 -17 l 214 -17 l 124 -17 l 190 81 q 100 354 100 179 q 190 627 100 528 q 428 726 279 726 q 606 679 528 726 l 639 726 l 731 726 l 664 631 m 201 354 q 247 163 201 233 l 554 604 q 428 639 500 639 q 259 566 317 639 q 201 354 201 493 m 428 71 q 594 147 535 71 q 654 356 654 222 q 607 549 654 479 l 300 107 q 428 71 353 71 z "},"ù":{"ha":856,"x_min":151,"x_max":703,"o":"m 439 800 l 192 1017 l 340 1017 l 538 800 l 439 800 m 421 -17 q 215 64 278 -17 q 151 325 151 144 l 151 710 l 251 710 l 251 286 q 297 125 251 176 q 421 74 343 74 q 603 283 603 74 l 603 710 l 703 710 l 703 0 l 603 0 l 603 71 q 523 3 565 22 q 421 -17 481 -17 z "},"ú":{"ha":856,"x_min":151,"x_max":703,"o":"m 319 800 l 517 1017 l 665 1017 l 418 800 l 319 800 m 421 -17 q 215 64 278 -17 q 151 325 151 144 l 151 710 l 251 710 l 251 286 q 297 125 251 176 q 421 74 343 74 q 603 283 603 74 l 603 710 l 703 710 l 703 0 l 603 0 l 603 71 q 523 3 565 22 q 421 -17 481 -17 z "},"û":{"ha":856,"x_min":151,"x_max":703,"o":"m 583 800 l 422 940 l 261 800 l 171 800 l 367 1017 l 478 1017 l 674 800 l 583 800 m 421 -17 q 215 64 278 -17 q 151 325 151 144 l 151 710 l 251 710 l 251 286 q 297 125 251 176 q 421 74 343 74 q 603 283 603 74 l 603 710 l 703 710 l 703 0 l 603 0 l 603 71 q 523 3 565 22 q 421 -17 481 -17 z "},"ü":{"ha":856,"x_min":151,"x_max":703,"o":"m 307 842 q 261 861 281 842 q 242 907 242 881 q 260 953 242 935 q 307 972 279 972 q 353 953 335 972 q 372 907 372 935 q 353 860 372 879 q 307 842 335 842 m 538 842 q 492 861 511 842 q 472 907 472 881 q 491 953 472 935 q 538 972 510 972 q 584 953 565 972 q 603 907 603 935 q 584 860 603 879 q 538 842 565 842 m 421 -17 q 215 64 278 -17 q 151 325 151 144 l 151 710 l 251 710 l 251 286 q 297 125 251 176 q 421 74 343 74 q 603 283 603 74 l 603 710 l 703 710 l 703 0 l 603 0 l 603 71 q 523 3 565 22 q 421 -17 481 -17 z "},"ý":{"ha":856,"x_min":121,"x_max":733,"o":"m 329 800 l 526 1017 l 675 1017 l 428 800 l 329 800 m 275 -269 l 381 22 l 121 710 l 219 710 l 399 206 q 411 167 403 192 q 422 133 419 142 l 447 206 l 629 710 l 733 710 l 371 -269 l 275 -269 z "},"þ":{"ha":856,"x_min":153,"x_max":757,"o":"m 153 -292 l 153 942 l 253 990 l 253 667 q 454 750 344 750 q 676 646 594 750 q 757 368 757 542 q 674 85 757 188 q 454 -17 590 -17 q 253 75 332 -17 l 253 -242 l 153 -292 m 443 74 q 598 150 543 74 q 653 368 653 226 q 597 581 653 501 q 443 660 540 660 q 333 630 383 660 q 253 547 283 600 l 253 186 q 443 74 340 74 z "},"ÿ":{"ha":856,"x_min":121,"x_max":733,"o":"m 355 860 q 345 851 355 860 q 308 842 336 842 q 262 861 281 842 q 243 907 243 881 q 262 953 243 935 q 308 972 281 972 q 355 953 336 972 q 374 907 374 935 q 355 860 374 879 m 585 860 q 576 851 585 860 q 539 842 567 842 q 492 861 511 842 q 474 907 474 881 q 492 953 474 935 q 539 972 511 972 q 585 953 567 972 q 604 907 604 935 q 585 860 604 879 m 275 -269 l 381 22 l 121 710 l 219 710 l 399 206 q 411 167 403 192 q 422 133 419 142 l 447 206 l 629 710 l 733 710 l 371 -269 l 275 -269 z "},"Ā":{"ha":856,"x_min":68,"x_max":788,"o":"m 656 1194 l 656 1110 l 197 1110 l 197 1194 l 656 1194 m 689 0 l 608 251 l 249 251 l 169 0 l 68 0 l 389 972 l 464 972 l 788 0 l 689 0 m 276 338 l 579 338 l 454 726 q 426 814 429 800 q 400 726 419 786 l 276 338 z "},"ā":{"ha":856,"x_min":133,"x_max":690,"o":"m 221 846 l 221 931 l 679 931 l 679 846 l 221 846 m 383 -17 q 201 45 268 -17 q 133 224 133 107 q 210 399 133 339 q 400 458 286 458 q 600 408 507 458 l 600 468 q 444 642 600 642 q 219 565 340 642 l 192 649 q 454 726 321 726 q 535 716 497 726 q 609 680 572 706 q 668 603 646 654 q 690 481 690 553 l 690 0 l 600 0 l 600 69 q 383 -17 504 -17 m 393 68 q 600 178 511 68 l 600 315 q 410 374 513 374 q 276 335 329 374 q 224 224 224 297 q 268 110 224 153 q 393 68 313 68 z "},"Ă":{"ha":856,"x_min":68,"x_max":788,"o":"m 613 1133 q 581 1102 613 1133 q 426 1071 550 1071 q 240 1133 303 1071 q 178 1294 178 1196 l 272 1294 q 316 1194 272 1231 q 426 1157 360 1157 q 537 1194 493 1157 q 581 1294 581 1231 l 675 1294 q 613 1133 675 1196 m 689 0 l 608 251 l 249 251 l 169 0 l 68 0 l 389 972 l 464 972 l 788 0 l 689 0 m 276 338 l 579 338 l 454 726 q 426 814 429 800 q 400 726 419 786 l 276 338 z "},"ă":{"ha":856,"x_min":133,"x_max":699,"o":"m 636 869 q 605 838 636 869 q 450 807 574 807 q 264 869 326 807 q 201 1031 201 932 l 296 1031 q 340 930 296 967 q 450 893 383 893 q 560 930 517 893 q 604 1031 604 967 l 699 1031 q 636 869 699 932 m 383 -17 q 201 45 268 -17 q 133 224 133 107 q 210 399 133 339 q 400 458 286 458 q 600 408 507 458 l 600 468 q 444 642 600 642 q 219 565 340 642 l 192 649 q 454 726 321 726 q 535 716 497 726 q 609 680 572 706 q 668 603 646 654 q 690 481 690 553 l 690 0 l 600 0 l 600 69 q 383 -17 504 -17 m 393 68 q 600 178 511 68 l 600 315 q 410 374 513 374 q 276 335 329 374 q 224 224 224 297 q 268 110 224 153 q 393 68 313 68 z "},"Ą":{"ha":856,"x_min":68,"x_max":789,"o":"m 650 -339 q 542 -303 586 -339 q 499 -203 499 -268 q 549 -82 499 -135 q 689 0 599 -29 l 608 251 l 249 251 l 169 0 l 68 0 l 389 972 l 464 972 l 788 0 q 644 -73 706 -19 q 583 -190 583 -126 q 606 -250 583 -231 q 658 -269 628 -269 q 735 -237 700 -269 l 789 -278 q 650 -339 733 -339 m 276 338 l 579 338 l 454 726 q 445 753 451 733 q 433 790 439 774 q 426 814 428 806 q 400 726 424 803 l 276 338 z "},"ą":{"ha":856,"x_min":196,"x_max":781,"o":"m 642 -325 q 534 -290 578 -325 q 490 -189 490 -254 q 646 0 490 -67 l 646 69 q 438 -17 550 -17 q 261 45 326 -17 q 196 224 196 107 q 270 399 196 339 q 454 458 344 458 q 646 408 553 458 l 646 468 q 490 642 646 642 q 279 565 390 642 l 251 649 q 500 726 374 726 q 581 716 543 726 q 655 680 618 706 q 714 603 692 654 q 736 481 736 553 l 736 0 q 575 -176 575 -68 q 597 -236 575 -217 q 650 -256 619 -256 q 726 -224 692 -256 l 781 -264 q 642 -325 725 -325 m 447 68 q 646 178 557 68 l 646 315 q 464 374 558 374 q 337 335 388 374 q 286 224 286 297 q 328 110 286 153 q 447 68 371 68 z "},"Ć":{"ha":856,"x_min":115,"x_max":735,"o":"m 389 1064 l 586 1281 l 735 1281 l 488 1064 l 389 1064 m 471 -17 q 308 26 379 -17 q 197 140 238 68 q 135 300 156 213 q 115 486 115 388 q 151 735 115 625 q 270 917 188 846 q 471 989 353 989 q 626 947 569 989 q 719 832 683 904 l 633 782 q 566 869 603 838 q 471 901 529 901 q 322 835 382 901 q 240 680 263 769 q 217 486 217 590 q 281 191 217 311 q 471 71 344 71 q 647 194 589 71 l 733 161 q 635 34 701 85 q 471 -17 569 -17 z "},"ć":{"ha":856,"x_min":156,"x_max":721,"o":"m 375 800 l 572 1017 l 721 1017 l 474 800 l 375 800 m 444 -17 q 233 81 310 -17 q 156 354 156 178 q 235 628 156 529 q 456 726 314 726 q 600 688 539 726 q 692 578 661 649 l 603 543 q 451 639 561 639 q 257 354 257 639 q 449 71 257 71 q 551 100 508 71 q 614 179 594 129 l 701 146 q 606 27 675 71 q 444 -17 538 -17 z "},"Ĉ":{"ha":856,"x_min":115,"x_max":733,"o":"m 624 1064 l 463 1204 l 301 1064 l 211 1064 l 407 1281 l 518 1281 l 714 1064 l 624 1064 m 471 -17 q 308 26 379 -17 q 197 140 238 68 q 135 300 156 213 q 115 486 115 388 q 151 735 115 625 q 270 917 188 846 q 471 989 353 989 q 626 947 569 989 q 719 832 683 904 l 633 782 q 566 869 603 838 q 471 901 529 901 q 322 835 382 901 q 240 680 263 769 q 217 486 217 590 q 281 191 217 311 q 471 71 344 71 q 647 194 589 71 l 733 161 q 635 34 701 85 q 471 -17 569 -17 z "},"ĉ":{"ha":856,"x_min":156,"x_max":701,"o":"m 600 800 l 439 940 l 278 800 l 188 800 l 383 1017 l 494 1017 l 690 800 l 600 800 m 444 -17 q 233 81 310 -17 q 156 354 156 178 q 235 628 156 529 q 456 726 314 726 q 600 688 539 726 q 692 578 661 649 l 603 543 q 451 639 561 639 q 257 354 257 639 q 449 71 257 71 q 551 100 508 71 q 614 179 594 129 l 701 146 q 606 27 675 71 q 444 -17 538 -17 z "},"Ċ":{"ha":856,"x_min":115,"x_max":733,"o":"m 513 1124 q 504 1115 513 1124 q 467 1106 494 1106 q 420 1125 439 1106 q 401 1171 401 1144 q 420 1217 401 1199 q 467 1236 439 1236 q 513 1217 494 1236 q 532 1171 532 1199 q 513 1124 532 1143 m 471 -17 q 308 26 379 -17 q 197 140 238 68 q 135 300 156 213 q 115 486 115 388 q 151 735 115 625 q 270 917 188 846 q 471 989 353 989 q 626 947 569 989 q 719 832 683 904 l 633 782 q 566 869 603 838 q 471 901 529 901 q 322 835 382 901 q 240 680 263 769 q 217 486 217 590 q 281 191 217 311 q 471 71 344 71 q 647 194 589 71 l 733 161 q 635 34 701 85 q 471 -17 569 -17 z "},"ċ":{"ha":856,"x_min":156,"x_max":701,"o":"m 446 842 q 400 861 419 842 q 381 907 381 881 q 399 953 381 935 q 446 972 418 972 q 492 953 474 972 q 511 907 511 935 q 492 860 511 879 q 446 842 474 842 m 444 -17 q 233 81 310 -17 q 156 354 156 178 q 235 628 156 529 q 456 726 314 726 q 600 688 539 726 q 692 578 661 649 l 603 543 q 451 639 561 639 q 257 354 257 639 q 449 71 257 71 q 551 100 508 71 q 614 179 594 129 l 701 146 q 606 27 675 71 q 444 -17 538 -17 z "},"Č":{"ha":856,"x_min":115,"x_max":733,"o":"m 522 1064 l 411 1064 l 215 1281 l 306 1281 l 467 1140 l 628 1281 l 718 1281 l 522 1064 m 471 -17 q 308 26 379 -17 q 197 140 238 68 q 135 300 156 213 q 115 486 115 388 q 151 735 115 625 q 270 917 188 846 q 471 989 353 989 q 626 947 569 989 q 719 832 683 904 l 633 782 q 566 869 603 838 q 471 901 529 901 q 322 835 382 901 q 240 680 263 769 q 217 486 217 590 q 281 191 217 311 q 471 71 344 71 q 647 194 589 71 l 733 161 q 635 34 701 85 q 471 -17 569 -17 z "},"č":{"ha":856,"x_min":149,"x_max":700,"o":"m 504 800 l 393 800 l 197 1017 l 288 1017 l 449 876 l 610 1017 l 700 1017 l 504 800 m 438 -17 q 226 81 303 -17 q 149 354 149 178 q 228 628 149 529 q 449 726 307 726 q 593 688 532 726 q 685 578 654 649 l 596 543 q 444 639 554 639 q 250 354 250 639 q 442 71 250 71 q 544 100 501 71 q 607 179 588 129 l 694 146 q 599 27 668 71 q 438 -17 531 -17 z "},"Ď":{"ha":856,"x_min":122,"x_max":740,"o":"m 429 1064 l 318 1064 l 122 1281 l 213 1281 l 374 1140 l 535 1281 l 625 1281 l 429 1064 m 146 0 l 146 972 l 367 972 q 542 931 467 972 q 658 818 617 889 q 720 664 700 747 q 740 486 740 581 q 730 349 740 415 q 692 219 719 283 q 624 106 665 154 q 515 29 582 58 q 361 0 447 0 l 146 0 m 243 88 l 360 88 q 494 122 438 88 q 581 217 551 157 q 625 343 611 276 q 639 486 639 410 q 574 769 639 654 q 375 885 508 885 l 243 885 l 243 88 z "},"ď":{"ha":856,"x_min":35,"x_max":869,"o":"m 338 -17 q 116 84 197 -17 q 35 356 35 185 q 116 628 35 529 q 338 726 197 726 q 536 660 453 726 l 536 954 l 633 1003 l 633 0 l 536 0 l 536 61 q 338 -17 458 -17 m 758 672 l 731 692 q 760 819 749 731 q 772 989 772 908 l 869 989 l 869 978 q 758 672 869 782 m 349 71 q 536 182 475 71 l 536 536 q 349 639 472 639 q 191 565 246 639 q 136 356 136 492 q 194 152 136 233 q 349 71 253 71 z "},"Đ":{"ha":856,"x_min":56,"x_max":740,"o":"m 367 972 q 542 931 467 972 q 658 818 617 889 q 720 664 700 747 q 740 486 740 581 q 730 349 740 415 q 692 219 719 283 q 624 106 665 154 q 515 29 582 58 q 361 0 447 0 l 146 0 l 146 442 l 56 442 l 56 528 l 146 528 l 146 972 l 367 972 m 360 88 q 494 122 438 88 q 581 217 551 157 q 625 343 611 276 q 639 486 639 410 q 574 769 639 654 q 375 885 508 885 l 243 885 l 243 528 l 451 528 l 451 442 l 243 442 l 243 88 l 360 88 z "},"đ":{"ha":856,"x_min":104,"x_max":793,"o":"m 703 768 l 703 0 l 606 0 l 606 61 q 407 -17 524 -17 q 187 81 269 -17 q 104 333 104 178 q 187 587 104 494 q 407 679 269 679 q 606 611 531 679 l 606 768 l 408 768 l 408 856 l 606 856 l 606 954 l 703 1003 l 703 856 l 793 856 l 793 768 l 703 768 m 417 71 q 606 182 544 71 l 606 489 q 418 592 542 592 q 263 524 319 592 q 206 333 206 456 q 265 149 206 226 q 417 71 324 71 z "},"Ē":{"ha":856,"x_min":147,"x_max":719,"o":"m 189 1110 l 189 1194 l 647 1194 l 647 1110 l 189 1110 m 147 0 l 147 972 l 689 972 l 689 879 l 244 879 l 244 549 l 554 549 l 554 457 l 244 457 l 244 93 l 719 93 l 719 0 l 147 0 z "},"ē":{"ha":856,"x_min":124,"x_max":732,"o":"m 671 931 l 671 846 l 213 846 l 213 931 l 671 931 m 732 383 q 729 315 732 346 l 226 315 q 297 138 240 201 q 446 74 354 74 q 615 129 536 74 l 668 64 q 442 -17 565 -17 q 210 91 296 -17 q 124 356 124 199 q 210 628 124 531 q 442 726 296 726 q 650 640 568 726 q 732 383 732 553 m 224 403 l 633 403 q 574 585 632 532 q 442 639 517 639 q 284 576 339 639 q 224 403 229 514 z "},"Ĕ":{"ha":856,"x_min":147,"x_max":719,"o":"m 601 1133 q 570 1102 601 1133 q 415 1071 539 1071 q 229 1133 292 1071 q 167 1294 167 1196 l 261 1294 q 305 1194 261 1231 q 415 1157 349 1157 q 526 1194 482 1157 q 569 1294 569 1231 l 664 1294 q 601 1133 664 1196 m 147 0 l 147 972 l 689 972 l 689 879 l 244 879 l 244 549 l 554 549 l 554 457 l 244 457 l 244 93 l 719 93 l 719 0 l 147 0 z "},"ĕ":{"ha":856,"x_min":124,"x_max":732,"o":"m 628 869 q 597 838 628 869 q 442 807 565 807 q 256 869 318 807 q 193 1031 193 932 l 288 1031 q 331 930 288 967 q 442 893 375 893 q 552 930 508 893 q 596 1031 596 967 l 690 1031 q 628 869 690 932 m 732 383 q 729 315 732 346 l 226 315 q 297 138 240 201 q 446 74 354 74 q 615 129 536 74 l 668 64 q 442 -17 565 -17 q 210 91 296 -17 q 124 356 124 199 q 210 628 124 531 q 442 726 296 726 q 650 640 568 726 q 732 383 732 553 m 224 403 l 633 403 q 574 585 632 532 q 442 639 517 639 q 284 576 339 639 q 224 403 229 514 z "},"Ė":{"ha":856,"x_min":147,"x_max":719,"o":"m 415 1106 q 369 1125 389 1106 q 350 1171 350 1144 q 369 1217 350 1199 q 415 1236 388 1236 q 462 1217 443 1236 q 481 1171 481 1199 q 462 1124 481 1143 q 415 1106 443 1106 m 147 0 l 147 972 l 689 972 l 689 879 l 244 879 l 244 549 l 554 549 l 554 457 l 244 457 l 244 93 l 719 93 l 719 0 l 147 0 z "},"ė":{"ha":856,"x_min":124,"x_max":732,"o":"m 488 860 q 479 851 488 860 q 442 842 469 842 q 395 861 414 842 q 376 907 376 881 q 395 953 376 935 q 442 972 414 972 q 488 953 469 972 q 507 907 507 935 q 488 860 507 879 m 732 383 q 729 315 732 346 l 226 315 q 297 138 240 201 q 446 74 354 74 q 615 129 536 74 l 668 64 q 442 -17 565 -17 q 210 91 296 -17 q 124 356 124 199 q 210 628 124 531 q 442 726 296 726 q 650 640 568 726 q 732 383 732 553 m 224 403 l 633 403 q 574 585 632 532 q 442 639 517 639 q 284 576 339 639 q 224 403 229 514 z "},"Ę":{"ha":856,"x_min":196,"x_max":781,"o":"m 596 -325 q 488 -290 532 -325 q 444 -189 444 -254 q 597 0 444 -64 l 196 0 l 196 972 l 750 972 l 750 879 l 293 879 l 293 549 l 601 549 l 601 457 l 293 457 l 293 93 l 781 93 l 781 0 l 731 0 q 592 -56 656 0 q 529 -176 529 -111 q 551 -236 529 -217 q 604 -256 574 -256 q 681 -224 646 -256 l 735 -264 q 596 -325 679 -325 z "},"ę":{"ha":856,"x_min":124,"x_max":732,"o":"m 467 -325 q 359 -290 403 -325 q 315 -189 315 -254 q 435 -17 315 -83 q 208 94 292 -14 q 124 356 124 201 q 210 628 124 531 q 442 726 296 726 q 650 640 568 726 q 732 383 732 553 q 729 315 732 346 l 226 315 q 297 138 240 201 q 446 74 354 74 q 615 129 536 74 l 668 64 q 560 3 626 31 q 442 -78 483 -31 q 400 -176 400 -125 q 422 -236 400 -217 q 475 -256 444 -256 q 551 -224 517 -256 l 606 -264 q 467 -325 550 -325 m 224 403 l 633 403 q 574 585 632 532 q 442 639 517 639 q 284 576 339 639 q 224 403 229 514 z "},"Ě":{"ha":856,"x_min":147,"x_max":719,"o":"m 481 1064 l 369 1064 l 174 1281 l 264 1281 l 425 1140 l 586 1281 l 676 1281 l 481 1064 m 147 0 l 147 972 l 689 972 l 689 879 l 244 879 l 244 549 l 554 549 l 554 457 l 244 457 l 244 93 l 719 93 l 719 0 l 147 0 z "},"ě":{"ha":856,"x_min":124,"x_max":732,"o":"m 497 800 l 386 800 l 190 1017 l 281 1017 l 442 876 l 603 1017 l 693 1017 l 497 800 m 732 383 q 729 315 732 346 l 226 315 q 297 138 240 201 q 446 74 354 74 q 615 129 536 74 l 668 64 q 442 -17 565 -17 q 210 91 296 -17 q 124 356 124 199 q 210 628 124 531 q 442 726 296 726 q 650 640 568 726 q 732 383 732 553 m 224 403 l 633 403 q 574 585 632 532 q 442 639 517 639 q 284 576 339 639 q 224 403 229 514 z "},"Ĝ":{"ha":856,"x_min":119,"x_max":744,"o":"m 608 1064 l 447 1204 l 286 1064 l 196 1064 l 392 1281 l 503 1281 l 699 1064 l 608 1064 m 453 -17 q 261 58 339 -17 q 151 242 183 132 q 119 486 119 351 q 204 845 119 701 q 453 989 289 989 q 613 947 554 989 q 708 832 671 904 l 622 782 q 553 869 592 838 q 453 901 514 901 q 317 835 372 901 q 242 680 263 769 q 221 486 221 590 q 244 283 221 374 q 321 131 267 192 q 453 71 375 71 q 591 136 540 71 q 642 313 642 201 l 642 371 l 463 371 l 463 457 l 744 457 l 744 350 q 663 80 744 176 q 453 -17 581 -17 z "},"ĝ":{"ha":856,"x_min":103,"x_max":710,"o":"m 619 800 l 458 940 l 297 800 l 207 800 l 403 1017 l 514 1017 l 710 800 l 619 800 m 371 -296 l 326 -219 q 547 -161 486 -211 q 607 -28 607 -111 l 607 81 q 403 -17 542 -17 q 190 81 276 -17 q 103 356 103 179 q 188 627 103 528 q 408 726 272 726 q 607 643 536 726 l 607 710 l 704 710 l 704 11 q 371 -296 704 -282 m 425 71 q 528 103 478 71 q 607 189 578 135 l 607 531 q 526 610 578 581 q 425 639 474 639 q 260 566 315 639 q 204 356 204 493 q 266 147 204 222 q 425 71 328 71 z "},"Ğ":{"ha":856,"x_min":119,"x_max":744,"o":"m 633 1133 q 602 1102 633 1133 q 447 1071 571 1071 q 261 1133 324 1071 q 199 1294 199 1196 l 293 1294 q 337 1194 293 1231 q 447 1157 381 1157 q 558 1194 514 1157 q 601 1294 601 1231 l 696 1294 q 633 1133 696 1196 m 453 -17 q 261 58 339 -17 q 151 242 183 132 q 119 486 119 351 q 204 845 119 701 q 453 989 289 989 q 613 947 554 989 q 708 832 671 904 l 622 782 q 553 869 592 838 q 453 901 514 901 q 317 835 372 901 q 242 680 263 769 q 221 486 221 590 q 244 283 221 374 q 321 131 267 192 q 453 71 375 71 q 591 136 540 71 q 642 313 642 201 l 642 371 l 463 371 l 463 457 l 744 457 l 744 350 q 663 80 744 176 q 453 -17 581 -17 z "},"ğ":{"ha":856,"x_min":103,"x_max":704,"o":"m 638 869 q 606 838 638 869 q 451 807 575 807 q 265 869 328 807 q 203 1031 203 932 l 297 1031 q 341 930 297 967 q 451 893 385 893 q 562 930 518 893 q 606 1031 606 967 l 700 1031 q 638 869 700 932 m 371 -296 l 326 -219 q 547 -161 486 -211 q 607 -28 607 -111 l 607 81 q 403 -17 542 -17 q 190 81 276 -17 q 103 356 103 179 q 188 627 103 528 q 408 726 272 726 q 607 643 536 726 l 607 710 l 704 710 l 704 11 q 371 -296 704 -282 m 425 71 q 528 103 478 71 q 607 189 578 135 l 607 531 q 526 610 578 581 q 425 639 474 639 q 260 566 315 639 q 204 356 204 493 q 266 147 204 222 q 425 71 328 71 z "},"Ġ":{"ha":856,"x_min":119,"x_max":744,"o":"m 491 1124 q 482 1115 491 1124 q 444 1106 472 1106 q 398 1125 417 1106 q 379 1171 379 1144 q 398 1217 379 1199 q 444 1236 417 1236 q 491 1217 472 1236 q 510 1171 510 1199 q 491 1124 510 1143 m 453 -17 q 261 58 339 -17 q 151 242 183 132 q 119 486 119 351 q 204 845 119 701 q 453 989 289 989 q 613 947 554 989 q 708 832 671 904 l 622 782 q 553 869 592 838 q 453 901 514 901 q 317 835 372 901 q 242 680 263 769 q 221 486 221 590 q 244 283 221 374 q 321 131 267 192 q 453 71 375 71 q 591 136 540 71 q 642 313 642 201 l 642 371 l 463 371 l 463 457 l 744 457 l 744 350 q 663 80 744 176 q 453 -17 581 -17 z "},"ġ":{"ha":856,"x_min":103,"x_max":704,"o":"m 451 842 q 406 861 425 842 q 386 907 386 881 q 405 953 386 935 q 451 972 424 972 q 498 953 479 972 q 517 907 517 935 q 498 860 517 879 q 451 842 479 842 m 371 -296 l 326 -219 q 547 -161 486 -211 q 607 -28 607 -111 l 607 81 q 403 -17 542 -17 q 190 81 276 -17 q 103 356 103 179 q 188 627 103 528 q 408 726 272 726 q 607 643 536 726 l 607 710 l 704 710 l 704 11 q 371 -296 704 -282 m 425 71 q 528 103 478 71 q 607 189 578 135 l 607 531 q 526 610 578 581 q 425 639 474 639 q 260 566 315 639 q 204 356 204 493 q 266 147 204 222 q 425 71 328 71 z "},"Ģ":{"ha":856,"x_min":119,"x_max":744,"o":"m 453 -17 q 261 58 339 -17 q 151 242 183 132 q 119 486 119 351 q 204 845 119 701 q 453 989 289 989 q 613 947 554 989 q 708 832 671 904 l 622 782 q 553 869 592 838 q 453 901 514 901 q 317 835 372 901 q 242 680 263 769 q 221 486 221 590 q 244 283 221 374 q 321 131 267 192 q 453 71 375 71 q 591 136 540 71 q 642 313 642 201 l 642 371 l 463 371 l 463 457 l 744 457 l 744 350 q 663 80 744 176 q 453 -17 581 -17 m 422 -339 l 397 -332 q 451 -229 444 -294 q 395 -208 414 -229 q 376 -154 376 -186 q 399 -101 376 -122 q 449 -81 421 -81 q 501 -103 478 -81 q 524 -162 524 -126 q 422 -339 524 -278 z "},"ģ":{"ha":856,"x_min":103,"x_max":704,"o":"m 432 818 q 380 841 403 818 q 357 900 357 864 q 458 1076 357 1015 l 483 1069 q 429 967 436 1032 q 485 945 467 967 q 504 892 504 924 q 482 839 504 860 q 432 818 460 818 m 371 -296 l 326 -219 q 547 -161 486 -211 q 607 -28 607 -111 l 607 81 q 403 -17 542 -17 q 190 81 276 -17 q 103 356 103 179 q 188 627 103 528 q 408 726 272 726 q 607 643 536 726 l 607 710 l 704 710 l 704 11 q 371 -296 704 -282 m 425 71 q 528 103 478 71 q 607 189 578 135 l 607 531 q 526 610 578 581 q 425 639 474 639 q 260 566 315 639 q 204 356 204 493 q 266 147 204 222 q 425 71 328 71 z "},"Ĥ":{"ha":856,"x_min":147,"x_max":708,"o":"m 589 1064 l 428 1204 l 267 1064 l 176 1064 l 372 1281 l 483 1281 l 679 1064 l 589 1064 m 147 0 l 147 972 l 244 972 l 244 551 l 611 551 l 611 972 l 708 972 l 708 0 l 611 0 l 611 460 l 244 460 l 244 0 l 147 0 z "},"ĥ":{"ha":856,"x_min":153,"x_max":704,"o":"m 600 1063 l 439 1203 l 278 1063 l 188 1063 l 383 1279 l 494 1279 l 690 1063 l 600 1063 m 153 0 l 153 957 l 250 1003 l 250 631 q 442 726 315 726 q 641 647 578 726 q 704 393 704 568 l 704 0 l 607 0 l 607 433 q 560 590 607 540 q 433 639 513 639 q 250 436 250 639 l 250 0 l 153 0 z "},"Ħ":{"ha":856,"x_min":28,"x_max":828,"o":"m 611 0 l 611 460 l 244 460 l 244 0 l 147 0 l 147 739 l 28 739 l 28 831 l 147 831 l 147 972 l 244 972 l 244 831 l 611 831 l 611 972 l 708 972 l 708 831 l 828 831 l 828 739 l 708 739 l 708 0 l 611 0 m 611 551 l 611 739 l 244 739 l 244 551 l 611 551 z "},"ħ":{"ha":856,"x_min":176,"x_max":801,"o":"m 267 0 l 267 768 l 176 768 l 176 856 l 267 856 l 267 957 l 364 1003 l 364 856 l 581 856 l 581 768 l 364 768 l 364 583 q 549 679 428 679 q 740 600 679 679 q 801 346 801 521 l 801 0 l 704 0 l 704 386 q 540 592 704 592 q 364 389 364 592 l 364 0 l 267 0 z "},"Ĩ":{"ha":856,"x_min":146,"x_max":707,"o":"m 308 1169 q 263 1153 282 1169 q 243 1106 244 1136 l 189 1106 q 318 1258 189 1258 q 444 1223 371 1258 q 547 1188 517 1188 q 592 1205 574 1188 q 613 1253 611 1222 l 665 1253 q 538 1100 665 1100 q 412 1135 485 1100 q 308 1169 339 1169 m 707 881 l 475 881 l 475 92 l 707 92 l 707 0 l 146 0 l 146 92 l 378 92 l 378 881 l 146 881 l 146 972 l 707 972 l 707 881 z "},"ĩ":{"ha":856,"x_min":175,"x_max":694,"o":"m 294 906 q 249 889 268 906 q 229 842 231 872 l 175 842 q 304 994 175 994 q 430 959 357 994 q 533 924 503 924 q 578 941 560 924 q 599 989 597 958 l 651 989 q 524 836 651 836 q 398 871 471 836 q 294 906 325 906 m 499 88 l 694 88 l 694 0 l 206 0 l 206 88 l 401 88 l 401 646 l 206 646 l 206 733 l 499 733 l 499 88 z "},"Ī":{"ha":856,"x_min":147,"x_max":708,"o":"m 657 1194 l 657 1110 l 199 1110 l 199 1194 l 657 1194 m 708 881 l 476 881 l 476 92 l 708 92 l 708 0 l 147 0 l 147 92 l 379 92 l 379 881 l 147 881 l 147 972 l 708 972 l 708 881 z "},"ī":{"ha":856,"x_min":171,"x_max":694,"o":"m 629 931 l 629 846 l 171 846 l 171 931 l 629 931 m 499 88 l 694 88 l 694 0 l 206 0 l 206 88 l 401 88 l 401 646 l 206 646 l 206 733 l 499 733 l 499 88 z "},"Ĭ":{"ha":856,"x_min":147,"x_max":708,"o":"m 614 1133 q 583 1102 614 1133 q 428 1071 551 1071 q 242 1133 304 1071 q 179 1294 179 1196 l 274 1294 q 317 1194 274 1231 q 428 1157 361 1157 q 538 1194 494 1157 q 582 1294 582 1231 l 676 1294 q 614 1133 676 1196 m 708 881 l 476 881 l 476 92 l 708 92 l 708 0 l 147 0 l 147 92 l 379 92 l 379 881 l 147 881 l 147 972 l 708 972 l 708 881 z "},"ĭ":{"ha":856,"x_min":151,"x_max":694,"o":"m 586 869 q 555 838 586 869 q 400 807 524 807 q 214 869 276 807 q 151 1031 151 932 l 246 1031 q 290 930 246 967 q 400 893 333 893 q 510 930 467 893 q 554 1031 554 967 l 649 1031 q 586 869 649 932 m 499 88 l 694 88 l 694 0 l 206 0 l 206 88 l 401 88 l 401 646 l 206 646 l 206 733 l 499 733 l 499 88 z "},"Į":{"ha":856,"x_min":147,"x_max":708,"o":"m 494 -325 q 387 -290 431 -325 q 343 -189 343 -254 q 496 0 343 -67 l 147 0 l 147 92 l 379 92 l 379 881 l 147 881 l 147 972 l 708 972 l 708 881 l 476 881 l 476 92 l 708 92 l 708 0 l 649 0 q 492 -56 557 0 q 428 -176 428 -111 q 450 -236 428 -217 q 503 -256 472 -256 q 579 -224 544 -256 l 633 -264 q 494 -325 578 -325 z "},"į":{"ha":856,"x_min":206,"x_max":694,"o":"m 496 874 q 487 865 496 874 q 450 856 478 856 q 404 874 422 856 q 386 919 386 892 q 405 967 386 947 q 450 986 424 986 q 496 967 478 986 q 514 919 514 947 q 496 874 514 892 m 464 -325 q 356 -290 400 -325 q 313 -189 313 -254 q 465 0 313 -67 l 206 0 l 206 88 l 401 88 l 401 622 l 206 622 l 206 710 l 499 710 l 499 88 l 694 88 l 694 0 l 614 0 q 460 -57 524 0 q 397 -176 397 -114 q 419 -236 397 -217 q 472 -256 442 -256 q 549 -224 514 -256 l 603 -264 q 464 -325 547 -325 z "},"İ":{"ha":856,"x_min":147,"x_max":708,"o":"m 474 1124 q 465 1115 474 1124 q 428 1106 456 1106 q 381 1125 400 1106 q 363 1171 363 1144 q 381 1217 363 1199 q 428 1236 400 1236 q 474 1217 456 1236 q 493 1171 493 1199 q 474 1124 493 1143 m 708 881 l 476 881 l 476 92 l 708 92 l 708 0 l 147 0 l 147 92 l 379 92 l 379 881 l 147 881 l 147 972 l 708 972 l 708 881 z "},"ı":{"ha":856,"x_min":206,"x_max":694,"o":"m 499 88 l 694 88 l 694 0 l 206 0 l 206 88 l 401 88 l 401 646 l 206 646 l 206 733 l 499 733 l 499 88 z "},"Ĳ":{"ha":1711,"x_min":147,"x_max":1554,"o":"m 708 972 l 708 881 l 476 881 l 476 92 l 708 92 l 708 0 l 147 0 l 147 92 l 379 92 l 379 881 l 147 881 l 147 972 l 708 972 m 1457 972 l 1554 972 l 1554 308 q 1527 147 1554 214 q 1454 46 1500 79 q 1360 -2 1408 13 q 1260 -17 1313 -17 q 997 149 1063 -17 l 1074 190 q 1141 98 1104 125 q 1261 71 1178 71 q 1400 123 1343 71 q 1457 292 1457 175 l 1457 972 z "},"ĳ":{"ha":1711,"x_min":206,"x_max":1400,"o":"m 496 874 q 487 865 496 874 q 450 856 478 856 q 404 874 422 856 q 386 919 386 892 q 405 967 386 947 q 450 986 424 986 q 496 967 478 986 q 514 919 514 947 q 496 874 514 892 m 1382 874 q 1373 865 1382 874 q 1336 856 1364 856 q 1290 874 1308 856 q 1272 919 1272 892 q 1291 967 1272 947 q 1336 986 1310 986 q 1382 967 1364 986 q 1400 919 1400 947 q 1382 874 1400 892 m 499 710 l 499 88 l 694 88 l 694 0 l 206 0 l 206 88 l 401 88 l 401 622 l 206 622 l 206 710 l 499 710 m 1385 710 l 1385 -44 q 1324 -230 1385 -169 q 1135 -296 1264 -290 l 1090 -212 q 1248 -162 1208 -201 q 1288 -28 1288 -124 l 1288 622 l 1092 622 l 1092 710 l 1385 710 z "},"Ĵ":{"ha":856,"x_min":40,"x_max":800,"o":"m 710 1064 l 549 1204 l 388 1064 l 297 1064 l 493 1281 l 604 1281 l 800 1064 l 710 1064 m 303 -17 q 40 149 106 -17 l 117 190 q 184 98 147 125 q 304 71 221 71 q 443 123 386 71 q 500 292 500 175 l 500 972 l 597 972 l 597 308 q 570 147 597 214 q 497 46 543 79 q 403 -2 451 13 q 303 -17 356 -17 z "},"ĵ":{"ha":856,"x_min":176,"x_max":679,"o":"m 483 1017 l 679 800 l 589 800 l 428 940 l 267 800 l 176 800 l 372 1017 l 483 1017 m 529 710 l 529 -44 q 474 -225 529 -164 q 279 -296 415 -289 l 235 -212 q 392 -162 353 -201 q 432 -28 432 -124 l 432 622 l 236 622 l 236 710 l 529 710 z "},"Ķ":{"ha":856,"x_min":147,"x_max":763,"o":"m 431 635 l 763 0 l 653 0 l 364 551 l 244 399 l 244 0 l 147 0 l 147 972 l 244 972 l 244 529 l 588 972 l 696 972 l 431 635 m 444 -81 q 497 -103 474 -81 q 519 -162 519 -126 q 418 -339 519 -278 l 393 -332 q 447 -229 440 -294 q 391 -208 410 -229 q 372 -154 372 -186 q 394 -101 372 -122 q 444 -81 417 -81 z "},"ķ":{"ha":856,"x_min":153,"x_max":722,"o":"m 454 525 l 722 0 l 615 0 l 386 453 l 250 308 l 250 0 l 153 0 l 153 956 l 250 1003 l 250 424 l 515 710 l 628 710 l 454 525 m 410 -81 q 462 -103 439 -81 q 485 -162 485 -126 q 383 -339 485 -278 l 358 -332 q 413 -229 406 -294 q 356 -208 375 -229 q 338 -154 338 -186 q 360 -101 338 -122 q 410 -81 382 -81 z "},"ĸ":{"ha":856,"x_min":203,"x_max":775,"o":"m 664 0 l 465 367 l 300 160 l 300 0 l 203 0 l 203 710 l 300 710 l 300 289 l 631 710 l 739 710 l 532 449 l 775 0 l 664 0 z "},"Ĺ":{"ha":856,"x_min":135,"x_max":747,"o":"m 135 1074 l 332 1290 l 481 1290 l 233 1074 l 135 1074 m 181 0 l 181 972 l 278 972 l 278 93 l 747 93 l 747 0 l 181 0 z "},"ĺ":{"ha":856,"x_min":163,"x_max":672,"o":"m 647 1267 l 400 1050 l 301 1050 l 499 1267 l 647 1267 m 476 88 l 672 88 l 672 0 l 183 0 l 183 88 l 379 88 l 379 915 l 206 915 l 163 1003 l 476 1003 l 476 88 z "},"Ļ":{"ha":856,"x_min":147,"x_max":714,"o":"m 147 0 l 147 972 l 244 972 l 244 93 l 714 93 l 714 0 l 147 0 m 399 -339 l 374 -332 q 428 -229 421 -294 q 372 -208 390 -229 q 353 -154 353 -186 q 375 -101 353 -122 q 425 -81 397 -81 q 477 -103 454 -81 q 500 -162 500 -126 q 399 -339 500 -278 z "},"ļ":{"ha":856,"x_min":163,"x_max":672,"o":"m 476 88 l 672 88 l 672 0 l 183 0 l 183 88 l 379 88 l 379 915 l 206 915 l 163 1003 l 476 1003 l 476 88 m 426 -81 q 478 -103 456 -81 q 501 -162 501 -126 q 400 -339 501 -278 l 375 -332 q 429 -229 422 -294 q 373 -208 392 -229 q 354 -154 354 -186 q 376 -101 354 -122 q 426 -81 399 -81 z "},"Ľ":{"ha":856,"x_min":249,"x_max":815,"o":"m 249 0 l 249 972 l 346 972 l 346 93 l 815 93 l 815 0 l 249 0 m 486 656 l 458 675 q 488 803 476 714 q 500 972 500 892 l 597 972 l 597 961 q 486 656 597 765 z "},"ľ":{"ha":856,"x_min":163,"x_max":717,"o":"m 476 1003 l 476 88 l 672 88 l 672 0 l 183 0 l 183 88 l 379 88 l 379 915 l 206 915 l 163 1003 l 476 1003 m 619 1003 l 717 1003 l 717 992 q 606 686 717 796 l 578 706 q 608 833 596 744 q 619 1003 619 922 z "},"Ŀ":{"ha":856,"x_min":147,"x_max":714,"o":"m 147 0 l 147 972 l 244 972 l 244 93 l 714 93 l 714 0 l 147 0 m 685 424 q 673 410 685 424 q 624 397 660 397 q 562 424 588 397 q 536 485 536 450 q 562 546 536 519 q 624 572 588 572 q 685 546 660 572 q 711 485 711 519 q 685 424 711 450 z "},"ŀ":{"ha":856,"x_min":163,"x_max":943,"o":"m 476 1003 l 476 88 l 672 88 l 672 0 l 183 0 l 183 88 l 379 88 l 379 915 l 206 915 l 163 1003 l 476 1003 m 794 546 q 807 559 794 546 q 856 572 819 572 q 917 546 892 572 q 943 485 943 519 q 917 424 943 450 q 856 397 892 397 q 794 424 819 397 q 768 485 768 450 q 794 546 768 519 z "},"Ł":{"ha":856,"x_min":86,"x_max":769,"o":"m 190 0 l 190 378 l 86 301 l 86 407 l 190 485 l 190 972 l 288 972 l 288 568 l 438 682 l 438 575 l 288 458 l 288 93 l 769 93 l 769 0 l 190 0 z "},"ł":{"ha":856,"x_min":163,"x_max":672,"o":"m 476 88 l 672 88 l 672 0 l 183 0 l 183 88 l 379 88 l 379 367 l 274 285 l 274 367 l 379 449 l 379 915 l 206 915 l 163 1003 l 476 1003 l 476 525 l 581 606 l 581 524 l 476 443 l 476 88 z "},"Ń":{"ha":856,"x_min":147,"x_max":708,"o":"m 343 1074 l 540 1290 l 689 1290 l 442 1074 l 343 1074 m 147 0 l 147 972 l 246 972 l 593 250 q 613 206 610 213 q 611 251 611 232 l 611 972 l 708 972 l 708 0 l 610 0 l 264 708 q 243 756 254 728 q 244 710 244 733 l 244 0 l 147 0 z "},"ń":{"ha":856,"x_min":153,"x_max":704,"o":"m 665 1017 l 418 800 l 319 800 l 517 1017 l 665 1017 m 442 726 q 641 647 578 726 q 704 393 704 568 l 704 0 l 607 0 l 607 433 q 560 590 607 540 q 433 639 513 639 q 250 436 250 639 l 250 0 l 153 0 l 153 710 l 244 710 l 244 625 q 442 726 311 726 z "},"Ņ":{"ha":856,"x_min":147,"x_max":708,"o":"m 147 0 l 147 972 l 246 972 l 593 250 q 613 206 610 213 q 611 251 611 232 l 611 972 l 708 972 l 708 0 l 610 0 l 264 708 q 243 756 254 728 q 244 710 244 733 l 244 0 l 147 0 m 404 -339 l 379 -332 q 433 -229 426 -294 q 377 -208 396 -229 q 358 -154 358 -186 q 381 -101 358 -122 q 431 -81 403 -81 q 483 -103 460 -81 q 506 -162 506 -126 q 404 -339 506 -278 z "},"ņ":{"ha":856,"x_min":153,"x_max":704,"o":"m 442 726 q 641 647 578 726 q 704 393 704 568 l 704 0 l 607 0 l 607 433 q 560 590 607 540 q 433 639 513 639 q 250 436 250 639 l 250 0 l 153 0 l 153 710 l 244 710 l 244 625 q 442 726 311 726 m 426 -81 q 478 -103 456 -81 q 501 -162 501 -126 q 400 -339 501 -278 l 375 -332 q 429 -229 422 -294 q 373 -208 392 -229 q 354 -154 354 -186 q 376 -101 354 -122 q 426 -81 399 -81 z "},"Ň":{"ha":856,"x_min":147,"x_max":708,"o":"m 496 1064 l 385 1064 l 189 1281 l 279 1281 l 440 1140 l 601 1281 l 692 1281 l 496 1064 m 147 0 l 147 972 l 246 972 l 593 250 q 613 206 610 213 q 611 251 611 232 l 611 972 l 708 972 l 708 0 l 610 0 l 264 708 q 243 756 254 728 q 244 710 244 733 l 244 0 l 147 0 z "},"ň":{"ha":856,"x_min":146,"x_max":701,"o":"m 506 800 l 394 800 l 199 1017 l 289 1017 l 450 876 l 611 1017 l 701 1017 l 506 800 m 435 726 q 634 647 571 726 q 697 393 697 568 l 697 0 l 600 0 l 600 433 q 553 590 600 540 q 426 639 506 639 q 243 436 243 639 l 243 0 l 146 0 l 146 710 l 238 710 l 238 625 q 435 726 304 726 z "},"ŉ":{"ha":856,"x_min":-33,"x_max":856,"o":"m 56 1031 q 124 1001 96 1031 q 151 914 151 971 q 113 758 151 835 q 25 642 75 682 l -29 656 q 58 853 56 757 q -8 879 18 856 q -33 942 -33 903 q -8 1006 -33 981 q 56 1031 18 1031 m 593 726 q 792 647 729 726 q 856 393 856 568 l 856 0 l 758 0 l 758 433 q 711 590 758 540 q 585 639 664 639 q 401 436 401 639 l 401 0 l 304 0 l 304 710 l 396 710 l 396 625 q 593 726 463 726 z "},"Ŋ":{"ha":856,"x_min":147,"x_max":708,"o":"m 485 -339 l 440 -262 q 572 -203 533 -254 q 611 -83 611 -151 l 611 -1 l 264 708 q 243 756 254 728 q 244 710 244 733 l 244 0 l 147 0 l 147 972 l 246 972 l 593 250 q 613 206 610 213 q 611 251 611 232 l 611 972 l 708 972 l 708 -64 q 485 -339 708 -308 z "},"ŋ":{"ha":856,"x_min":153,"x_max":704,"o":"m 482 -296 l 438 -219 q 607 -83 607 -204 l 607 433 q 560 590 607 540 q 433 639 513 639 q 250 436 250 639 l 250 0 l 153 0 l 153 710 l 250 710 l 250 632 q 442 726 315 726 q 641 647 578 726 q 704 393 704 568 l 704 -44 q 664 -204 704 -142 q 482 -296 610 -289 z "},"Ō":{"ha":856,"x_min":115,"x_max":740,"o":"m 200 1110 l 200 1194 l 658 1194 l 658 1110 l 200 1110 m 574 27 q 543 5 574 27 q 428 -17 511 -17 q 281 27 344 -17 q 183 145 218 71 q 132 305 149 219 q 115 486 115 390 q 132 667 115 582 q 183 827 149 753 q 281 945 218 901 q 428 989 344 989 q 574 945 511 989 q 672 827 638 901 q 724 667 707 753 q 740 486 740 582 q 724 305 740 390 q 672 145 707 219 q 574 27 638 71 m 428 71 q 526 108 483 71 q 593 207 569 144 q 628 340 617 269 q 639 486 639 410 q 628 641 639 569 q 593 772 617 713 q 527 867 569 832 q 428 901 485 901 q 329 865 372 901 q 263 765 286 828 q 228 633 239 703 q 217 486 217 563 q 228 331 217 403 q 263 200 239 260 q 328 106 286 140 q 428 71 371 71 z "},"ō":{"ha":856,"x_min":100,"x_max":756,"o":"m 199 846 l 199 931 l 657 931 l 657 846 l 199 846 m 666 83 q 621 33 666 83 q 428 -17 576 -17 q 190 81 279 -17 q 100 354 100 179 q 190 627 100 528 q 428 726 279 726 q 666 628 576 726 q 756 356 756 531 q 666 83 756 182 m 428 71 q 594 147 535 71 q 654 356 654 222 q 596 565 654 490 q 428 639 538 639 q 259 566 317 639 q 201 354 201 493 q 260 145 201 219 q 428 71 318 71 z "},"Ŏ":{"ha":856,"x_min":115,"x_max":740,"o":"m 614 1133 q 583 1102 614 1133 q 428 1071 551 1071 q 242 1133 304 1071 q 179 1294 179 1196 l 274 1294 q 317 1194 274 1231 q 428 1157 361 1157 q 538 1194 494 1157 q 582 1294 582 1231 l 676 1294 q 614 1133 676 1196 m 574 27 q 543 5 574 27 q 428 -17 511 -17 q 281 27 344 -17 q 183 145 218 71 q 132 305 149 219 q 115 486 115 390 q 132 667 115 582 q 183 827 149 753 q 281 945 218 901 q 428 989 344 989 q 574 945 511 989 q 672 827 638 901 q 724 667 707 753 q 740 486 740 582 q 724 305 740 390 q 672 145 707 219 q 574 27 638 71 m 428 71 q 526 108 483 71 q 593 207 569 144 q 628 340 617 269 q 639 486 639 410 q 628 641 639 569 q 593 772 617 713 q 527 867 569 832 q 428 901 485 901 q 329 865 372 901 q 263 765 286 828 q 228 633 239 703 q 217 486 217 563 q 228 331 217 403 q 263 200 239 260 q 328 106 286 140 q 428 71 371 71 z "},"ŏ":{"ha":856,"x_min":100,"x_max":756,"o":"m 614 869 q 583 838 614 869 q 428 807 551 807 q 242 869 304 807 q 179 1031 179 932 l 274 1031 q 317 930 274 967 q 428 893 361 893 q 538 930 494 893 q 582 1031 582 967 l 676 1031 q 614 869 676 932 m 666 83 q 621 33 666 83 q 428 -17 576 -17 q 190 81 279 -17 q 100 354 100 179 q 190 627 100 528 q 428 726 279 726 q 666 628 576 726 q 756 356 756 531 q 666 83 756 182 m 428 71 q 594 147 535 71 q 654 356 654 222 q 596 565 654 490 q 428 639 538 639 q 259 566 317 639 q 201 354 201 493 q 260 145 201 219 q 428 71 318 71 z "},"Ő":{"ha":856,"x_min":115,"x_max":842,"o":"m 319 1064 l 221 1064 l 418 1281 l 567 1281 l 319 1064 m 594 1064 l 496 1064 l 693 1281 l 842 1281 l 594 1064 m 574 27 q 543 5 574 27 q 428 -17 511 -17 q 281 27 344 -17 q 183 145 218 71 q 132 305 149 219 q 115 486 115 390 q 132 667 115 582 q 183 827 149 753 q 281 945 218 901 q 428 989 344 989 q 574 945 511 989 q 672 827 638 901 q 724 667 707 753 q 740 486 740 582 q 724 305 740 390 q 672 145 707 219 q 574 27 638 71 m 428 71 q 526 108 483 71 q 593 207 569 144 q 628 340 617 269 q 639 486 639 410 q 628 641 639 569 q 593 772 617 713 q 527 867 569 832 q 428 901 485 901 q 329 865 372 901 q 263 765 286 828 q 228 633 239 703 q 217 486 217 563 q 228 331 217 403 q 263 200 239 260 q 328 106 286 140 q 428 71 371 71 z "},"ő":{"ha":856,"x_min":100,"x_max":821,"o":"m 299 800 l 200 800 l 397 1017 l 546 1017 l 299 800 m 574 800 l 475 800 l 672 1017 l 821 1017 l 574 800 m 666 83 q 621 33 666 83 q 428 -17 576 -17 q 190 81 279 -17 q 100 354 100 179 q 190 627 100 528 q 428 726 279 726 q 666 628 576 726 q 756 356 756 531 q 666 83 756 182 m 428 71 q 594 147 535 71 q 654 356 654 222 q 596 565 654 490 q 428 639 538 639 q 259 566 317 639 q 201 354 201 493 q 260 145 201 219 q 428 71 318 71 z "},"Œ":{"ha":856,"x_min":25,"x_max":838,"o":"m 838 93 l 838 0 l 433 0 q 338 -17 389 -17 q 191 27 254 -17 q 93 145 128 71 q 42 306 58 219 q 25 489 25 392 q 42 672 25 586 q 93 833 58 758 q 191 951 128 907 q 338 994 254 994 q 432 978 390 994 l 821 978 l 821 885 l 524 885 l 524 581 l 743 581 l 743 489 l 524 489 l 524 93 l 838 93 m 126 489 q 138 332 126 404 q 172 200 149 260 q 238 106 196 140 q 338 71 281 71 q 426 100 389 71 l 426 879 q 338 907 388 907 q 214 842 264 907 q 145 686 164 776 q 126 489 126 596 z "},"œ":{"ha":856,"x_min":35,"x_max":818,"o":"m 254 -17 q 94 77 153 -17 q 35 354 35 171 q 94 631 35 535 q 256 726 154 726 q 435 579 372 726 q 617 726 492 726 q 761 640 704 726 q 818 383 818 554 q 815 315 818 346 l 475 315 q 521 132 483 200 q 619 64 558 64 q 733 132 678 64 l 771 64 q 617 -17 700 -17 q 435 124 496 -17 q 254 -17 376 -17 m 254 64 q 356 142 318 64 q 394 356 394 219 q 358 569 394 492 q 254 646 321 646 q 155 570 190 646 q 119 354 119 494 q 156 142 119 219 q 254 64 192 64 m 474 396 l 736 396 q 700 589 736 532 q 617 646 664 646 q 517 583 556 646 q 474 396 478 519 z "},"Ŕ":{"ha":856,"x_min":147,"x_max":726,"o":"m 668 1281 l 421 1064 l 322 1064 l 519 1281 l 668 1281 m 726 706 q 708 594 726 646 q 637 499 689 543 q 504 442 585 456 l 721 0 l 614 0 l 406 435 l 244 435 l 244 0 l 147 0 l 147 972 l 426 972 q 656 896 586 972 q 726 706 726 819 m 244 885 l 244 522 l 429 522 q 585 574 538 522 q 633 701 633 625 q 586 829 633 774 q 429 885 539 885 l 244 885 z "},"ŕ":{"ha":856,"x_min":71,"x_max":747,"o":"m 661 1017 l 414 800 l 315 800 l 513 1017 l 661 1017 m 597 726 q 747 694 699 726 l 747 457 l 649 457 l 649 622 q 590 626 624 626 q 402 573 485 626 q 319 426 319 519 l 319 88 l 532 88 l 532 0 l 71 0 l 71 88 l 218 88 l 218 622 l 71 622 l 71 710 l 314 710 l 314 585 q 436 688 354 649 q 597 726 518 726 z "},"Ŗ":{"ha":856,"x_min":147,"x_max":726,"o":"m 726 706 q 708 594 726 646 q 637 499 689 543 q 504 442 585 456 l 721 0 l 614 0 l 406 435 l 244 435 l 244 0 l 147 0 l 147 972 l 426 972 q 656 896 586 972 q 726 706 726 819 m 244 885 l 244 522 l 429 522 q 585 574 538 522 q 633 701 633 625 q 586 829 633 774 q 429 885 539 885 l 244 885 m 422 -81 q 474 -103 451 -81 q 497 -162 497 -126 q 396 -339 497 -278 l 371 -332 q 425 -229 418 -294 q 369 -208 388 -229 q 350 -154 350 -186 q 372 -101 350 -122 q 422 -81 394 -81 z "},"ŗ":{"ha":856,"x_min":82,"x_max":758,"o":"m 608 726 q 758 694 710 726 l 758 457 l 660 457 l 660 622 q 601 626 635 626 q 413 573 496 626 q 331 426 331 519 l 331 88 l 543 88 l 543 0 l 82 0 l 82 88 l 229 88 l 229 622 l 82 622 l 82 710 l 325 710 l 325 585 q 447 688 365 649 q 608 726 529 726 m 315 -108 q 367 -131 344 -108 q 390 -190 390 -154 q 289 -367 390 -306 l 264 -360 q 318 -257 311 -322 q 262 -235 281 -257 q 243 -182 243 -214 q 265 -129 243 -150 q 315 -108 288 -108 z "},"Ř":{"ha":856,"x_min":147,"x_max":726,"o":"m 483 1051 l 372 1051 l 176 1268 l 267 1268 l 428 1128 l 589 1268 l 679 1268 l 483 1051 m 726 706 q 708 594 726 646 q 637 499 689 543 q 504 442 585 456 l 721 0 l 614 0 l 406 435 l 244 435 l 244 0 l 147 0 l 147 972 l 426 972 q 656 896 586 972 q 726 706 726 819 m 244 885 l 244 522 l 429 522 q 585 574 538 522 q 633 701 633 625 q 586 829 633 774 q 429 885 539 885 l 244 885 z "},"ř":{"ha":856,"x_min":64,"x_max":740,"o":"m 483 800 l 372 800 l 176 1017 l 267 1017 l 428 876 l 589 1017 l 679 1017 l 483 800 m 590 726 q 740 694 692 726 l 740 457 l 642 457 l 642 622 q 583 626 617 626 q 395 573 478 626 q 313 426 313 519 l 313 88 l 525 88 l 525 0 l 64 0 l 64 88 l 211 88 l 211 622 l 64 622 l 64 710 l 307 710 l 307 585 q 429 688 347 649 q 590 726 511 726 z "},"Ś":{"ha":856,"x_min":140,"x_max":711,"o":"m 335 1064 l 532 1281 l 681 1281 l 433 1064 l 335 1064 m 433 -17 q 247 40 326 -17 q 140 181 168 97 l 232 214 q 311 110 258 149 q 433 71 364 71 q 564 117 517 71 q 611 250 611 164 q 418 478 611 394 q 327 523 365 501 q 249 578 289 544 q 188 658 208 611 q 167 763 167 706 q 236 924 167 858 q 422 989 306 989 q 581 946 515 989 q 664 835 646 903 l 574 804 q 518 874 558 846 q 419 901 478 901 q 308 864 349 901 q 267 764 267 826 q 317 652 267 694 q 464 568 368 610 q 552 522 514 546 q 629 460 590 497 q 690 371 668 424 q 711 253 711 318 q 635 55 711 126 q 433 -17 558 -17 z "},"ś":{"ha":856,"x_min":168,"x_max":668,"o":"m 315 800 l 513 1017 l 661 1017 l 414 800 l 315 800 m 421 -17 q 283 17 350 -17 q 168 107 215 51 l 236 167 q 429 69 321 69 q 535 97 493 69 q 576 172 576 124 q 562 227 576 203 q 516 272 547 251 q 460 303 485 292 q 392 331 436 314 q 306 368 339 351 q 239 410 274 385 q 188 469 204 435 q 171 546 171 503 q 238 676 171 626 q 408 726 304 726 q 647 618 554 726 l 583 564 q 406 640 504 640 q 301 615 340 640 q 263 547 263 590 q 273 508 263 526 q 296 478 283 490 q 336 452 308 467 q 381 431 364 438 q 433 411 397 425 q 519 376 489 390 q 590 333 549 361 q 649 267 631 306 q 668 178 668 229 q 601 36 668 89 q 421 -17 535 -17 z "},"Ŝ":{"ha":856,"x_min":140,"x_max":711,"o":"m 589 1064 l 428 1204 l 267 1064 l 176 1064 l 372 1281 l 483 1281 l 679 1064 l 589 1064 m 433 -17 q 247 40 326 -17 q 140 181 168 97 l 232 214 q 311 110 258 149 q 433 71 364 71 q 564 117 517 71 q 611 250 611 164 q 418 478 611 394 q 327 523 365 501 q 249 578 289 544 q 188 658 208 611 q 167 763 167 706 q 236 924 167 858 q 422 989 306 989 q 581 946 515 989 q 664 835 646 903 l 574 804 q 518 874 558 846 q 419 901 478 901 q 308 864 349 901 q 267 764 267 826 q 317 652 267 694 q 464 568 368 610 q 552 522 514 546 q 629 460 590 497 q 690 371 668 424 q 711 253 711 318 q 635 55 711 126 q 433 -17 558 -17 z "},"ŝ":{"ha":856,"x_min":169,"x_max":679,"o":"m 589 800 l 428 940 l 267 800 l 176 800 l 372 1017 l 483 1017 l 679 800 l 589 800 m 422 -17 q 284 17 351 -17 q 169 107 217 51 l 238 167 q 431 69 322 69 q 536 97 494 69 q 578 172 578 124 q 563 227 578 203 q 517 272 549 251 q 462 303 486 292 q 393 331 438 314 q 308 368 340 351 q 240 410 275 385 q 189 469 206 435 q 172 546 172 503 q 239 676 172 626 q 410 726 306 726 q 649 618 556 726 l 585 564 q 407 640 506 640 q 303 615 342 640 q 264 547 264 590 q 274 508 264 526 q 297 478 285 490 q 338 452 310 467 q 382 431 365 438 q 435 411 399 425 q 520 376 490 390 q 591 333 550 361 q 651 267 632 306 q 669 178 669 229 q 603 36 669 89 q 422 -17 536 -17 z "},"Ş":{"ha":856,"x_min":174,"x_max":804,"o":"m 490 -325 q 368 -286 414 -325 l 432 -244 q 482 -258 443 -258 q 533 -237 511 -258 q 556 -187 556 -217 q 529 -141 556 -161 q 471 -121 503 -121 q 421 -128 436 -121 l 404 -107 l 475 -15 q 283 46 364 -10 q 174 181 201 101 l 265 214 q 356 111 294 149 q 499 74 417 74 q 649 119 594 74 q 703 250 703 164 q 485 476 703 394 q 381 521 424 500 q 293 576 339 542 q 224 657 247 610 q 200 763 200 704 q 278 924 200 858 q 486 989 356 989 q 664 946 592 989 q 757 835 736 903 l 667 804 q 599 872 647 846 q 482 899 551 899 q 349 863 397 899 q 301 764 301 826 q 359 653 301 696 q 524 569 417 611 q 625 524 582 547 q 713 463 668 500 q 781 372 757 425 q 804 253 804 318 q 732 66 804 136 q 538 -15 660 -4 l 501 -76 q 612 -110 576 -76 q 647 -189 647 -143 q 603 -287 647 -249 q 490 -325 558 -325 z "},"ş":{"ha":856,"x_min":247,"x_max":731,"o":"m 464 -325 q 342 -286 388 -325 l 406 -244 q 456 -258 417 -258 q 507 -237 485 -258 q 529 -187 529 -217 q 503 -141 529 -161 q 444 -121 476 -121 q 394 -128 410 -121 l 378 -107 l 450 -12 q 247 107 332 6 l 315 167 q 500 69 397 69 q 600 97 561 69 q 639 172 639 124 q 625 227 639 203 q 581 272 611 251 q 528 303 551 292 q 463 331 504 314 q 381 368 413 351 q 315 410 349 385 q 266 469 282 435 q 250 546 250 503 q 314 676 250 626 q 479 726 378 726 q 710 618 619 726 l 646 564 q 476 640 569 640 q 378 615 415 640 q 342 547 342 590 q 351 508 342 526 q 374 478 361 490 q 413 452 386 467 q 454 431 439 438 q 504 411 469 425 q 569 384 546 394 q 628 352 593 374 q 683 309 664 331 q 716 253 701 288 q 731 178 731 219 q 672 41 731 93 q 511 -15 613 -11 l 475 -76 q 585 -110 550 -76 q 621 -189 621 -143 q 576 -287 621 -249 q 464 -325 532 -325 z "},"Š":{"ha":856,"x_min":140,"x_max":711,"o":"m 372 1051 l 176 1268 l 267 1268 l 428 1128 l 589 1268 l 679 1268 l 483 1051 l 372 1051 m 433 -17 q 247 40 326 -17 q 140 181 168 97 l 232 214 q 311 110 258 149 q 433 71 364 71 q 564 117 517 71 q 611 250 611 164 q 418 478 611 394 q 327 523 365 501 q 249 578 289 544 q 188 658 208 611 q 167 763 167 706 q 236 924 167 858 q 422 989 306 989 q 581 946 515 989 q 664 835 646 903 l 574 804 q 518 874 558 846 q 419 901 478 901 q 308 864 349 901 q 267 764 267 826 q 317 652 267 694 q 464 568 368 610 q 552 522 514 546 q 629 460 590 497 q 690 371 668 424 q 711 253 711 318 q 635 55 711 126 q 433 -17 558 -17 z "},"š":{"ha":856,"x_min":168,"x_max":679,"o":"m 483 800 l 372 800 l 176 1017 l 267 1017 l 428 876 l 589 1017 l 679 1017 l 483 800 m 421 -17 q 283 17 350 -17 q 168 107 215 51 l 236 167 q 429 69 321 69 q 535 97 493 69 q 576 172 576 124 q 562 227 576 203 q 516 272 547 251 q 460 303 485 292 q 392 331 436 314 q 306 368 339 351 q 239 410 274 385 q 188 469 204 435 q 171 546 171 503 q 238 676 171 626 q 408 726 304 726 q 647 618 554 726 l 583 564 q 406 640 504 640 q 301 615 340 640 q 263 547 263 590 q 273 508 263 526 q 296 478 283 490 q 336 452 308 467 q 381 431 364 438 q 433 411 397 425 q 519 376 489 390 q 590 333 549 361 q 649 267 631 306 q 668 178 668 229 q 601 36 668 89 q 421 -17 535 -17 z "},"Ţ":{"ha":856,"x_min":172,"x_max":804,"o":"m 458 -325 q 336 -286 382 -325 l 400 -244 q 450 -258 411 -258 q 501 -237 479 -258 q 524 -187 524 -217 q 497 -141 524 -161 q 439 -121 471 -121 q 389 -128 404 -121 l 372 -107 l 458 0 l 439 0 l 439 882 l 172 882 l 172 972 l 804 972 l 804 882 l 536 882 l 536 0 l 517 0 l 469 -76 q 580 -110 544 -76 q 615 -189 615 -143 q 571 -287 615 -249 q 458 -325 526 -325 z "},"ţ":{"ha":856,"x_min":288,"x_max":689,"o":"m 486 -325 q 364 -286 410 -325 l 428 -244 q 478 -258 439 -258 q 529 -237 507 -258 q 551 -187 551 -217 q 525 -141 551 -161 q 467 -121 499 -121 q 417 -128 432 -121 l 400 -107 l 481 -3 q 408 146 408 32 l 408 622 l 288 622 l 288 710 l 408 710 l 408 954 l 506 1003 l 506 710 l 686 710 l 686 622 l 506 622 l 506 188 q 521 104 506 133 q 582 75 536 75 q 689 117 628 75 l 678 15 q 549 -17 618 -17 q 533 -15 538 -17 l 497 -76 q 608 -110 572 -76 q 643 -189 643 -143 q 599 -287 643 -249 q 486 -325 554 -325 z "},"Ť":{"ha":856,"x_min":101,"x_max":754,"o":"m 372 1051 l 176 1268 l 267 1268 l 428 1128 l 589 1268 l 679 1268 l 483 1051 l 372 1051 m 379 0 l 379 879 l 101 879 l 101 972 l 754 972 l 754 879 l 476 879 l 476 0 l 379 0 z "},"ť":{"ha":856,"x_min":117,"x_max":668,"o":"m 557 850 l 529 869 q 559 997 547 908 q 571 1167 571 1086 l 668 1167 l 668 1156 q 557 850 668 960 m 453 -17 q 285 153 285 -17 l 285 622 l 117 622 l 117 710 l 285 710 l 285 954 l 382 1003 l 382 710 l 619 710 l 619 622 l 382 622 l 382 194 q 402 105 382 135 q 486 75 422 75 q 621 117 560 75 l 610 15 q 453 -17 550 -17 z "},"Ŧ":{"ha":856,"x_min":111,"x_max":743,"o":"m 378 0 l 378 393 l 199 393 l 199 486 l 378 486 l 378 879 l 111 879 l 111 972 l 743 972 l 743 879 l 475 879 l 475 486 l 653 486 l 653 393 l 475 393 l 475 0 l 378 0 z "},"ŧ":{"ha":856,"x_min":156,"x_max":660,"o":"m 660 331 l 421 331 l 421 194 q 441 105 421 135 q 525 75 461 75 q 660 117 599 75 l 649 15 q 492 -17 589 -17 q 324 153 324 -17 l 324 331 l 156 331 l 156 418 l 324 418 l 324 622 l 156 622 l 156 710 l 324 710 l 324 954 l 421 1003 l 421 710 l 658 710 l 658 622 l 421 622 l 421 418 l 660 418 l 660 331 z "},"Ũ":{"ha":856,"x_min":122,"x_max":733,"o":"m 538 1100 q 412 1135 485 1100 q 308 1169 339 1169 q 263 1153 282 1169 q 243 1106 244 1136 l 189 1106 q 318 1258 189 1258 q 444 1223 371 1258 q 547 1188 517 1188 q 592 1205 574 1188 q 613 1253 611 1222 l 665 1253 q 538 1100 665 1100 m 733 367 q 428 -17 733 -17 q 122 367 122 -17 l 122 972 l 219 972 l 219 367 q 428 71 219 71 q 636 367 636 71 l 636 972 l 733 972 l 733 367 z "},"ũ":{"ha":856,"x_min":151,"x_max":703,"o":"m 538 836 q 412 871 485 836 q 308 906 339 906 q 263 889 282 906 q 243 842 244 872 l 189 842 q 318 994 189 994 q 444 959 371 994 q 547 924 517 924 q 592 941 574 924 q 613 989 611 958 l 665 989 q 538 836 665 836 m 421 -17 q 215 64 278 -17 q 151 325 151 144 l 151 710 l 251 710 l 251 286 q 297 125 251 176 q 421 74 343 74 q 603 283 603 74 l 603 710 l 703 710 l 703 0 l 603 0 l 603 71 q 523 3 565 22 q 421 -17 481 -17 z "},"Ū":{"ha":856,"x_min":122,"x_max":733,"o":"m 199 1110 l 199 1194 l 657 1194 l 657 1110 l 199 1110 m 733 367 q 428 -17 733 -17 q 122 367 122 -17 l 122 972 l 219 972 l 219 367 q 428 71 219 71 q 636 367 636 71 l 636 972 l 733 972 l 733 367 z "},"ū":{"ha":856,"x_min":151,"x_max":703,"o":"m 197 846 l 197 931 l 656 931 l 656 846 l 197 846 m 421 -17 q 215 64 278 -17 q 151 325 151 144 l 151 710 l 251 710 l 251 286 q 297 125 251 176 q 421 74 343 74 q 603 283 603 74 l 603 710 l 703 710 l 703 0 l 603 0 l 603 71 q 523 3 565 22 q 421 -17 481 -17 z "},"Ŭ":{"ha":856,"x_min":122,"x_max":733,"o":"m 614 1133 q 583 1102 614 1133 q 428 1071 551 1071 q 242 1133 304 1071 q 179 1294 179 1196 l 274 1294 q 317 1194 274 1231 q 428 1157 361 1157 q 538 1194 494 1157 q 582 1294 582 1231 l 676 1294 q 614 1133 676 1196 m 733 367 q 428 -17 733 -17 q 122 367 122 -17 l 122 972 l 219 972 l 219 367 q 428 71 219 71 q 636 367 636 71 l 636 972 l 733 972 l 733 367 z "},"ŭ":{"ha":856,"x_min":151,"x_max":703,"o":"m 613 869 q 581 838 613 869 q 426 807 550 807 q 240 869 303 807 q 178 1031 178 932 l 272 1031 q 316 930 272 967 q 426 893 360 893 q 537 930 493 893 q 581 1031 581 967 l 675 1031 q 613 869 675 932 m 421 -17 q 215 64 278 -17 q 151 325 151 144 l 151 710 l 251 710 l 251 286 q 297 125 251 176 q 421 74 343 74 q 603 283 603 74 l 603 710 l 703 710 l 703 0 l 603 0 l 603 71 q 523 3 565 22 q 421 -17 481 -17 z "},"Ů":{"ha":856,"x_min":122,"x_max":733,"o":"m 540 1061 q 517 1038 540 1061 q 428 1014 493 1014 q 315 1061 363 1014 q 268 1172 268 1108 q 315 1281 268 1236 q 428 1326 363 1326 q 540 1281 493 1326 q 588 1172 588 1236 q 540 1061 588 1108 m 428 1086 q 483 1110 461 1086 q 506 1172 506 1135 q 483 1232 506 1210 q 428 1254 461 1254 q 373 1231 396 1254 q 350 1172 350 1208 q 373 1110 350 1135 q 428 1086 396 1086 m 733 367 q 428 -17 733 -17 q 122 367 122 -17 l 122 972 l 219 972 l 219 367 q 428 71 219 71 q 636 367 636 71 l 636 972 l 733 972 l 733 367 z "},"ů":{"ha":856,"x_min":151,"x_max":703,"o":"m 540 797 q 517 774 540 797 q 428 750 493 750 q 315 797 363 750 q 268 908 268 844 q 315 1017 268 972 q 428 1063 363 1063 q 540 1017 493 1063 q 588 908 588 972 q 540 797 588 844 m 428 822 q 483 847 461 822 q 506 908 506 871 q 483 968 506 946 q 428 990 461 990 q 373 967 396 990 q 350 908 350 944 q 373 847 350 871 q 428 822 396 822 m 421 -17 q 215 64 278 -17 q 151 325 151 144 l 151 710 l 251 710 l 251 286 q 297 125 251 176 q 421 74 343 74 q 603 283 603 74 l 603 710 l 703 710 l 703 0 l 603 0 l 603 71 q 523 3 565 22 q 421 -17 481 -17 z "},"Ű":{"ha":856,"x_min":100,"x_max":797,"o":"m 275 1064 l 176 1064 l 374 1281 l 522 1281 l 275 1064 m 550 1064 l 451 1064 l 649 1281 l 797 1281 l 550 1064 m 711 367 q 406 -17 711 -17 q 100 367 100 -17 l 100 972 l 197 972 l 197 367 q 406 71 197 71 q 614 367 614 71 l 614 972 l 711 972 l 711 367 z "},"ű":{"ha":856,"x_min":92,"x_max":768,"o":"m 246 800 l 147 800 l 344 1017 l 493 1017 l 246 800 m 521 800 l 422 800 l 619 1017 l 768 1017 l 521 800 m 361 -17 q 155 64 218 -17 q 92 325 92 144 l 92 710 l 192 710 l 192 286 q 238 125 192 176 q 361 74 283 74 q 543 283 543 74 l 543 710 l 643 710 l 643 0 l 543 0 l 543 71 q 463 3 506 22 q 361 -17 421 -17 z "},"Ų":{"ha":856,"x_min":122,"x_max":733,"o":"m 636 972 l 733 972 l 733 367 q 551 3 733 68 q 393 -176 393 -71 q 415 -236 393 -217 q 468 -256 438 -256 q 544 -224 510 -256 l 599 -264 q 460 -325 543 -325 q 352 -290 396 -325 q 308 -189 308 -254 q 428 -17 308 -83 q 122 367 122 -17 l 122 972 l 219 972 l 219 367 q 428 71 219 71 q 636 367 636 71 l 636 972 z "},"ų":{"ha":856,"x_min":151,"x_max":715,"o":"m 576 -339 q 469 -303 513 -339 q 425 -203 425 -268 q 472 -83 425 -136 q 603 0 519 -31 l 603 71 q 523 3 565 22 q 421 -17 481 -17 q 215 64 278 -17 q 151 325 151 144 l 151 710 l 251 710 l 251 286 q 297 125 251 176 q 421 74 343 74 q 603 283 603 74 l 603 710 l 703 710 l 703 0 q 562 -78 614 -22 q 510 -190 510 -133 q 532 -250 510 -231 q 585 -269 554 -269 q 661 -237 626 -269 l 715 -278 q 576 -339 660 -339 z "},"Ŵ":{"ha":856,"x_min":72,"x_max":783,"o":"m 589 1064 l 428 1204 l 267 1064 l 176 1064 l 372 1281 l 483 1281 l 679 1064 l 589 1064 m 229 0 l 72 972 l 168 972 l 265 299 q 269 268 267 289 q 272 240 271 247 q 281 299 278 281 l 389 972 l 469 972 l 578 307 q 581 281 579 299 q 585 257 583 264 q 589 286 586 268 l 590 306 l 689 972 l 783 972 l 626 0 l 546 0 l 438 660 q 429 721 435 676 q 421 663 424 681 l 310 0 l 229 0 z "},"ŵ":{"ha":856,"x_min":42,"x_max":814,"o":"m 589 800 l 428 940 l 267 800 l 176 800 l 372 1017 l 483 1017 l 679 800 l 589 800 m 217 0 l 42 710 l 142 710 l 257 201 q 267 149 264 163 q 272 174 268 154 q 278 206 275 194 l 388 710 l 468 710 l 579 204 q 592 142 582 192 q 603 204 594 167 l 714 710 l 814 710 l 639 0 l 549 0 l 439 483 q 426 546 433 503 q 415 486 419 500 l 308 0 l 217 0 z "},"Ŷ":{"ha":856,"x_min":104,"x_max":751,"o":"m 428 1204 l 267 1064 l 176 1064 l 372 1281 l 483 1281 l 679 1064 l 589 1064 l 428 1204 m 651 972 l 751 972 l 478 385 l 478 0 l 381 0 l 381 385 l 104 972 l 211 972 l 429 472 l 651 972 z "},"ŷ":{"ha":856,"x_min":121,"x_max":733,"o":"m 583 800 l 422 940 l 261 800 l 171 800 l 367 1017 l 478 1017 l 674 800 l 583 800 m 275 -269 l 381 22 l 121 710 l 219 710 l 399 206 q 411 167 403 192 q 422 133 419 142 l 447 206 l 629 710 l 733 710 l 371 -269 l 275 -269 z "},"Ÿ":{"ha":856,"x_min":104,"x_max":751,"o":"m 313 1106 q 267 1125 286 1106 q 247 1171 247 1144 q 266 1217 247 1199 q 313 1236 285 1236 q 359 1217 340 1236 q 378 1171 378 1199 q 359 1124 378 1143 q 313 1106 340 1106 m 543 1106 q 497 1125 517 1106 q 478 1171 478 1144 q 497 1217 478 1199 q 543 1236 515 1236 q 590 1217 571 1236 q 608 1171 608 1199 q 590 1124 608 1143 q 543 1106 571 1106 m 651 972 l 751 972 l 478 385 l 478 0 l 381 0 l 381 385 l 104 972 l 211 972 l 429 472 l 651 972 z "},"Ź":{"ha":856,"x_min":122,"x_max":736,"o":"m 696 1290 l 449 1074 l 350 1074 l 547 1290 l 696 1290 m 736 972 l 736 901 l 244 92 l 731 92 l 731 0 l 122 0 l 122 68 l 614 881 l 154 881 l 154 972 l 736 972 z "},"ź":{"ha":856,"x_min":174,"x_max":692,"o":"m 346 800 l 543 1017 l 692 1017 l 444 800 l 346 800 m 174 0 l 174 60 l 553 622 l 201 622 l 201 710 l 682 710 l 682 651 l 300 88 l 681 88 l 681 0 l 174 0 z "},"Ż":{"ha":856,"x_min":122,"x_max":736,"o":"m 488 1124 q 479 1115 488 1124 q 442 1106 469 1106 q 395 1125 414 1106 q 376 1171 376 1144 q 395 1217 376 1199 q 442 1236 414 1236 q 488 1217 469 1236 q 507 1171 507 1199 q 488 1124 507 1143 m 736 972 l 736 901 l 244 92 l 731 92 l 731 0 l 122 0 l 122 68 l 614 881 l 154 881 l 154 972 l 736 972 z "},"ż":{"ha":856,"x_min":174,"x_max":682,"o":"m 438 842 q 392 861 411 842 q 372 907 372 881 q 391 953 372 935 q 438 972 410 972 q 484 953 465 972 q 503 907 503 935 q 484 860 503 879 q 438 842 465 842 m 174 0 l 174 60 l 553 622 l 201 622 l 201 710 l 682 710 l 682 651 l 300 88 l 681 88 l 681 0 l 174 0 z "},"Ž":{"ha":856,"x_min":122,"x_max":736,"o":"m 504 1064 l 393 1064 l 197 1281 l 288 1281 l 449 1140 l 610 1281 l 700 1281 l 504 1064 m 736 972 l 736 901 l 244 92 l 731 92 l 731 0 l 122 0 l 122 68 l 614 881 l 154 881 l 154 972 l 736 972 z "},"ž":{"ha":856,"x_min":146,"x_max":656,"o":"m 460 800 l 349 800 l 153 1017 l 243 1017 l 404 876 l 565 1017 l 656 1017 l 460 800 m 146 0 l 146 60 l 525 622 l 174 622 l 174 710 l 654 710 l 654 651 l 272 88 l 653 88 l 653 0 l 146 0 z "},"ſ":{"ha":856,"x_min":354,"x_max":622,"o":"m 354 0 l 354 831 q 397 951 354 913 q 501 989 439 989 q 622 956 564 989 l 622 871 q 521 899 574 899 q 465 878 478 899 q 451 815 451 857 l 451 0 l 354 0 z "},"Ə":{"ha":856,"x_min":115,"x_max":740,"o":"m 428 989 q 655 852 569 989 q 740 485 740 715 q 651 117 740 251 q 414 -17 563 -17 q 198 108 281 -17 q 115 451 115 232 q 117 529 115 496 l 639 529 q 572 802 629 707 q 422 897 515 897 q 238 821 328 897 l 188 893 q 428 989 292 989 m 414 71 q 580 166 522 71 q 640 442 638 261 l 214 442 q 265 167 213 264 q 414 71 318 71 z "},"ƒ":{"ha":856,"x_min":208,"x_max":646,"o":"m 253 -296 l 208 -219 q 378 -83 378 -204 l 378 622 l 264 622 l 264 710 l 378 710 l 378 831 q 420 950 378 911 q 525 989 463 989 q 646 956 588 989 l 646 871 q 544 899 593 899 q 488 877 500 899 q 475 815 475 856 l 475 710 l 646 710 l 646 622 l 475 622 l 475 -44 q 253 -296 475 -282 z "},"Ǎ":{"ha":856,"x_min":68,"x_max":788,"o":"m 479 1064 l 368 1064 l 172 1281 l 263 1281 l 424 1140 l 585 1281 l 675 1281 l 479 1064 m 689 0 l 608 251 l 249 251 l 169 0 l 68 0 l 389 972 l 464 972 l 788 0 l 689 0 m 276 338 l 579 338 l 454 726 q 426 814 429 800 q 400 726 419 786 l 276 338 z "},"ǎ":{"ha":856,"x_min":126,"x_max":706,"o":"m 510 800 l 399 800 l 203 1017 l 293 1017 l 454 876 l 615 1017 l 706 1017 l 510 800 m 376 -17 q 194 45 261 -17 q 126 224 126 107 q 203 399 126 339 q 393 458 279 458 q 593 408 500 458 l 593 468 q 438 642 593 642 q 213 565 333 642 l 185 649 q 447 726 314 726 q 528 716 490 726 q 602 680 565 706 q 661 603 639 654 q 683 481 683 553 l 683 0 l 593 0 l 593 69 q 376 -17 497 -17 m 386 68 q 593 178 504 68 l 593 315 q 403 374 506 374 q 269 335 322 374 q 217 224 217 297 q 261 110 217 153 q 386 68 306 68 z "},"Ǐ":{"ha":856,"x_min":147,"x_max":708,"o":"m 483 1064 l 372 1064 l 176 1281 l 267 1281 l 428 1140 l 589 1281 l 679 1281 l 483 1064 m 708 881 l 476 881 l 476 92 l 708 92 l 708 0 l 147 0 l 147 92 l 379 92 l 379 881 l 147 881 l 147 972 l 708 972 l 708 881 z "},"ǐ":{"ha":856,"x_min":176,"x_max":694,"o":"m 483 800 l 372 800 l 176 1017 l 267 1017 l 428 876 l 589 1017 l 679 1017 l 483 800 m 499 88 l 694 88 l 694 0 l 206 0 l 206 88 l 401 88 l 401 646 l 206 646 l 206 733 l 499 733 l 499 88 z "},"Ǒ":{"ha":856,"x_min":115,"x_max":740,"o":"m 483 1064 l 372 1064 l 176 1281 l 267 1281 l 428 1140 l 589 1281 l 679 1281 l 483 1064 m 574 27 q 543 5 574 27 q 428 -17 511 -17 q 281 27 344 -17 q 183 145 218 71 q 132 305 149 219 q 115 486 115 390 q 132 667 115 582 q 183 827 149 753 q 281 945 218 901 q 428 989 344 989 q 574 945 511 989 q 672 827 638 901 q 724 667 707 753 q 740 486 740 582 q 724 305 740 390 q 672 145 707 219 q 574 27 638 71 m 428 71 q 526 108 483 71 q 593 207 569 144 q 628 340 617 269 q 639 486 639 410 q 628 641 639 569 q 593 772 617 713 q 527 867 569 832 q 428 901 485 901 q 329 865 372 901 q 263 765 286 828 q 228 633 239 703 q 217 486 217 563 q 228 331 217 403 q 263 200 239 260 q 328 106 286 140 q 428 71 371 71 z "},"ǒ":{"ha":856,"x_min":100,"x_max":756,"o":"m 483 800 l 372 800 l 176 1017 l 267 1017 l 428 876 l 589 1017 l 679 1017 l 483 800 m 666 83 q 621 33 666 83 q 428 -17 576 -17 q 190 81 279 -17 q 100 354 100 179 q 190 627 100 528 q 428 726 279 726 q 666 628 576 726 q 756 356 756 531 q 666 83 756 182 m 428 71 q 594 147 535 71 q 654 356 654 222 q 596 565 654 490 q 428 639 538 639 q 259 566 317 639 q 201 354 201 493 q 260 145 201 219 q 428 71 318 71 z "},"Ǔ":{"ha":856,"x_min":122,"x_max":733,"o":"m 483 1064 l 372 1064 l 176 1281 l 267 1281 l 428 1140 l 589 1281 l 679 1281 l 483 1064 m 733 367 q 428 -17 733 -17 q 122 367 122 -17 l 122 972 l 219 972 l 219 367 q 428 71 219 71 q 636 367 636 71 l 636 972 l 733 972 l 733 367 z "},"ǔ":{"ha":856,"x_min":151,"x_max":703,"o":"m 482 800 l 371 800 l 175 1017 l 265 1017 l 426 876 l 588 1017 l 678 1017 l 482 800 m 421 -17 q 215 64 278 -17 q 151 325 151 144 l 151 710 l 251 710 l 251 286 q 297 125 251 176 q 421 74 343 74 q 603 283 603 74 l 603 710 l 703 710 l 703 0 l 603 0 l 603 71 q 523 3 565 22 q 421 -17 481 -17 z "},"Ǻ":{"ha":856,"x_min":68,"x_max":788,"o":"m 711 1475 l 464 1258 l 365 1258 l 563 1475 l 711 1475 m 689 0 l 608 251 l 249 251 l 169 0 l 68 0 l 369 911 q 297 969 325 929 q 268 1058 268 1010 q 315 1167 268 1122 q 428 1213 363 1213 q 540 1167 493 1213 q 588 1058 588 1122 q 559 968 588 1008 q 485 911 531 928 l 788 0 l 689 0 m 428 1140 q 373 1117 396 1140 q 350 1058 350 1094 q 373 997 350 1021 q 428 972 396 972 q 483 997 461 972 q 506 1058 506 1021 q 483 1118 506 1096 q 428 1140 461 1140 m 276 338 l 579 338 l 454 726 q 426 814 429 800 q 400 726 419 786 l 276 338 z "},"ǻ":{"ha":856,"x_min":133,"x_max":725,"o":"m 379 1189 l 576 1406 l 725 1406 l 478 1189 l 379 1189 m 568 846 q 544 822 568 846 q 456 799 521 799 q 343 846 390 799 q 296 957 296 893 q 343 1066 296 1021 q 456 1111 390 1111 q 568 1066 521 1111 q 615 957 615 1021 q 568 846 615 893 m 456 871 q 511 895 489 871 q 533 957 533 919 q 511 1017 533 994 q 456 1039 489 1039 q 401 1016 424 1039 q 378 957 378 993 q 401 895 378 919 q 456 871 424 871 m 383 -17 q 201 45 268 -17 q 133 224 133 107 q 210 399 133 339 q 400 458 286 458 q 600 408 507 458 l 600 468 q 444 642 600 642 q 219 565 340 642 l 192 649 q 454 726 321 726 q 535 716 497 726 q 609 680 572 706 q 668 603 646 654 q 690 481 690 553 l 690 0 l 600 0 l 600 69 q 383 -17 504 -17 m 393 68 q 600 178 511 68 l 600 315 q 410 374 513 374 q 276 335 329 374 q 224 224 224 297 q 268 110 224 153 q 393 68 313 68 z "},"Ǽ":{"ha":856,"x_min":0,"x_max":856,"o":"m 856 1290 l 608 1074 l 510 1074 l 707 1290 l 856 1290 m 569 457 l 569 93 l 854 93 l 854 0 l 474 0 l 474 251 l 214 251 l 108 0 l 0 0 l 426 972 l 824 972 l 824 879 l 569 879 l 569 549 l 772 549 l 772 457 l 569 457 m 249 338 l 474 338 l 474 879 q 453 825 464 850 l 249 338 z "},"ǽ":{"ha":856,"x_min":44,"x_max":811,"o":"m 364 800 l 561 1017 l 710 1017 l 463 800 l 364 800 m 225 -17 q 93 45 142 -17 q 44 224 44 107 q 99 399 44 339 q 238 458 154 458 q 374 408 307 458 l 374 468 q 264 644 374 644 q 107 565 189 644 l 86 649 q 271 726 176 726 q 425 617 385 726 q 600 726 490 726 q 753 637 696 726 q 811 383 811 547 q 810 315 811 346 l 454 315 q 501 137 456 210 q 603 64 547 64 q 724 129 667 64 l 763 64 q 600 -17 688 -17 q 493 23 542 -17 q 418 126 444 63 q 329 19 383 56 q 225 -17 275 -17 m 453 400 l 724 400 q 685 586 724 531 q 600 642 647 642 q 497 580 538 642 q 453 400 457 518 m 232 64 q 319 104 278 64 q 388 199 361 144 q 374 315 374 251 q 244 378 311 378 q 162 338 194 378 q 129 224 129 299 q 156 108 129 151 q 232 64 183 64 z "},"Ǿ":{"ha":856,"x_min":42,"x_max":814,"o":"m 689 1290 l 442 1074 l 343 1074 l 540 1290 l 689 1290 m 814 989 l 686 797 q 740 486 740 669 q 724 305 740 390 q 672 145 707 219 q 574 27 638 71 q 428 -17 511 -17 q 215 93 296 -17 l 142 -17 l 42 -17 l 169 175 q 115 486 115 303 q 132 667 115 582 q 183 827 149 753 q 281 945 218 901 q 428 989 344 989 q 639 881 560 989 l 711 989 l 814 989 m 217 486 q 238 278 217 374 l 582 794 q 428 901 528 901 q 329 865 372 901 q 263 765 286 828 q 228 633 239 703 q 217 486 217 563 m 639 486 q 617 694 639 604 l 272 179 q 428 71 328 71 q 526 108 483 71 q 593 207 569 144 q 628 340 617 269 q 639 486 639 410 z "},"ǿ":{"ha":856,"x_min":100,"x_max":756,"o":"m 669 1017 l 422 800 l 324 800 l 521 1017 l 669 1017 m 664 631 q 756 356 756 532 q 666 83 756 182 q 428 -17 576 -17 q 247 32 324 -17 l 214 -17 l 124 -17 l 190 81 q 100 354 100 179 q 190 627 100 528 q 428 726 279 726 q 606 679 528 726 l 639 726 l 731 726 l 664 631 m 201 354 q 247 163 201 233 l 554 604 q 428 639 500 639 q 259 566 317 639 q 201 354 201 493 m 428 71 q 594 147 535 71 q 654 356 654 222 q 607 549 654 479 l 300 107 q 428 71 353 71 z "},"Ș":{"ha":856,"x_min":140,"x_max":711,"o":"m 433 -17 q 247 40 326 -17 q 140 181 168 97 l 232 214 q 311 110 258 149 q 433 71 364 71 q 564 117 517 71 q 611 250 611 164 q 418 478 611 394 q 327 523 365 501 q 249 578 289 544 q 188 658 208 611 q 167 763 167 706 q 236 924 167 858 q 422 989 306 989 q 581 946 515 989 q 664 835 646 903 l 574 804 q 518 874 558 846 q 419 901 478 901 q 308 864 349 901 q 267 764 267 826 q 317 652 267 694 q 464 568 368 610 q 552 522 514 546 q 629 460 590 497 q 690 371 668 424 q 711 253 711 318 q 635 55 711 126 q 433 -17 558 -17 m 400 -339 l 375 -332 q 429 -229 422 -294 q 373 -208 392 -229 q 354 -154 354 -186 q 376 -101 354 -122 q 426 -81 399 -81 q 478 -103 456 -81 q 501 -162 501 -126 q 400 -339 501 -278 z "},"ș":{"ha":856,"x_min":168,"x_max":668,"o":"m 421 -17 q 283 17 350 -17 q 168 107 215 51 l 236 167 q 429 69 321 69 q 535 97 493 69 q 576 172 576 124 q 562 227 576 203 q 516 272 547 251 q 460 303 485 292 q 392 331 436 314 q 306 368 339 351 q 239 410 274 385 q 188 469 204 435 q 171 546 171 503 q 238 676 171 626 q 408 726 304 726 q 647 618 554 726 l 583 564 q 406 640 504 640 q 301 615 340 640 q 263 547 263 590 q 273 508 263 526 q 296 478 283 490 q 336 452 308 467 q 381 431 364 438 q 433 411 397 425 q 519 376 489 390 q 590 333 549 361 q 649 267 631 306 q 668 178 668 229 q 601 36 668 89 q 421 -17 535 -17 m 388 -339 l 363 -332 q 417 -229 410 -294 q 360 -208 379 -229 q 342 -154 342 -186 q 364 -101 342 -122 q 414 -81 386 -81 q 466 -103 443 -81 q 489 -162 489 -126 q 388 -339 489 -278 z "},"Ț":{"ha":856,"x_min":101,"x_max":754,"o":"m 379 0 l 379 879 l 101 879 l 101 972 l 754 972 l 754 879 l 476 879 l 476 0 l 379 0 m 400 -339 l 375 -332 q 429 -229 422 -294 q 373 -208 392 -229 q 354 -154 354 -186 q 376 -101 354 -122 q 426 -81 399 -81 q 478 -103 456 -81 q 501 -162 501 -126 q 400 -339 501 -278 z "},"ț":{"ha":856,"x_min":156,"x_max":660,"o":"m 492 -17 q 324 153 324 -17 l 324 622 l 156 622 l 156 710 l 324 710 l 324 954 l 421 1003 l 421 710 l 658 710 l 658 622 l 421 622 l 421 194 q 441 105 421 135 q 525 75 461 75 q 660 117 599 75 l 649 15 q 492 -17 589 -17 m 443 -339 l 418 -332 q 472 -229 465 -294 q 416 -208 435 -229 q 397 -154 397 -186 q 419 -101 397 -122 q 469 -81 442 -81 q 522 -103 499 -81 q 544 -162 544 -126 q 443 -339 544 -278 z "},"ȷ":{"ha":856,"x_min":235,"x_max":529,"o":"m 529 710 l 529 -44 q 474 -225 529 -164 q 279 -296 415 -289 l 235 -212 q 392 -162 353 -201 q 432 -28 432 -124 l 432 622 l 236 622 l 236 710 l 529 710 z "},"ə":{"ha":856,"x_min":124,"x_max":732,"o":"m 421 726 q 650 623 568 726 q 732 354 732 519 q 647 82 732 181 q 421 -17 563 -17 q 207 72 290 -17 q 124 326 124 160 q 126 394 124 364 l 629 394 q 417 636 606 636 q 240 581 319 636 l 188 646 q 421 726 290 726 m 421 71 q 573 134 519 71 q 632 307 626 197 l 222 307 q 283 126 224 182 q 421 71 342 71 z "},"ʰ":{"ha":856,"x_min":206,"x_max":664,"o":"m 446 989 q 664 740 664 989 l 664 393 l 578 393 l 578 732 q 542 866 578 819 q 439 913 506 913 q 292 749 292 913 l 292 393 l 206 393 l 206 1188 l 286 1225 l 286 911 q 446 989 342 989 z "},"ʲ":{"ha":856,"x_min":222,"x_max":482,"o":"m 426 1090 q 387 1106 403 1090 q 371 1146 371 1122 q 387 1188 371 1171 q 426 1204 403 1204 q 467 1188 451 1204 q 482 1146 482 1171 q 467 1106 482 1122 q 426 1090 451 1090 m 467 972 l 469 346 q 424 197 469 247 q 260 138 372 142 l 222 210 q 351 251 319 219 q 383 360 383 282 l 383 894 l 224 894 l 224 972 l 467 972 z "},"ʷ":{"ha":856,"x_min":103,"x_max":751,"o":"m 246 393 l 103 972 l 193 972 l 286 560 q 293 517 290 540 q 303 564 297 533 l 390 972 l 465 972 l 553 563 l 564 511 q 572 563 565 538 l 664 972 l 751 972 l 608 393 l 522 393 l 436 794 q 426 846 428 836 l 417 796 l 332 393 l 246 393 z "},"ʸ":{"ha":856,"x_min":171,"x_max":693,"o":"m 607 972 l 693 972 l 397 169 l 311 169 l 392 389 l 171 972 l 265 972 l 432 497 l 607 972 z "},"ˆ":{"ha":856,"x_min":176,"x_max":679,"o":"m 589 800 l 428 940 l 267 800 l 176 800 l 372 1017 l 483 1017 l 679 800 l 589 800 z "},"ˇ":{"ha":856,"x_min":176,"x_max":679,"o":"m 483 800 l 372 800 l 176 1017 l 267 1017 l 428 876 l 589 1017 l 679 1017 l 483 800 z "},"ˉ":{"ha":856,"x_min":260,"x_max":718,"o":"m 260 846 l 260 931 l 718 931 l 718 846 l 260 846 z "},"˖":{"ha":856,"x_min":164,"x_max":692,"o":"m 467 739 l 467 514 l 386 514 l 386 739 l 164 739 l 164 815 l 386 815 l 386 1042 l 467 1042 l 467 815 l 692 815 l 692 739 l 467 739 z "},"˘":{"ha":856,"x_min":179,"x_max":676,"o":"m 614 869 q 583 838 614 869 q 428 807 551 807 q 242 869 304 807 q 179 1031 179 932 l 274 1031 q 317 930 274 967 q 428 893 361 893 q 538 930 494 893 q 582 1031 582 967 l 676 1031 q 614 869 676 932 z "},"˙":{"ha":856,"x_min":363,"x_max":493,"o":"m 474 860 q 465 851 474 860 q 428 842 456 842 q 381 861 400 842 q 363 907 363 881 q 381 953 363 935 q 428 972 400 972 q 474 953 456 972 q 493 907 493 935 q 474 860 493 879 z "},"˚":{"ha":856,"x_min":268,"x_max":588,"o":"m 540 797 q 517 774 540 797 q 428 750 493 750 q 315 797 363 750 q 268 908 268 844 q 315 1017 268 972 q 428 1063 363 1063 q 540 1017 493 1063 q 588 908 588 972 q 540 797 588 844 m 428 822 q 483 847 461 822 q 506 908 506 871 q 483 968 506 946 q 428 990 461 990 q 373 967 396 990 q 350 908 350 944 q 373 847 350 871 q 428 822 396 822 z "},"˛":{"ha":856,"x_min":282,"x_max":572,"o":"m 433 -325 q 326 -290 369 -325 q 282 -189 282 -254 q 332 -68 282 -121 q 472 14 382 -15 l 550 14 q 413 -73 458 -24 q 367 -176 367 -122 q 389 -236 367 -217 q 442 -256 411 -256 q 518 -224 483 -256 l 572 -264 q 433 -325 517 -325 z "},"˜":{"ha":856,"x_min":189,"x_max":665,"o":"m 538 836 q 412 871 485 836 q 308 906 339 906 q 263 889 282 906 q 243 842 244 872 l 189 842 q 318 994 189 994 q 444 959 371 994 q 547 924 517 924 q 592 941 574 924 q 613 989 611 958 l 665 989 q 538 836 665 836 z "},"˝":{"ha":856,"x_min":56,"x_max":676,"o":"m 154 800 l 56 800 l 253 1017 l 401 1017 l 154 800 m 429 800 l 331 800 l 528 1017 l 676 1017 l 429 800 z "},"ˡ":{"ha":856,"x_min":222,"x_max":646,"o":"m 486 471 l 646 471 l 646 393 l 240 393 l 240 471 l 400 471 l 400 1125 l 258 1125 l 222 1203 l 486 1203 l 486 471 z "},"ˢ":{"ha":856,"x_min":219,"x_max":635,"o":"m 429 376 q 219 479 300 376 l 276 529 q 436 447 356 447 q 520 470 488 447 q 553 533 553 493 q 519 599 553 574 q 417 653 485 624 q 345 684 369 672 q 287 719 321 696 q 238 772 253 742 q 222 840 222 801 q 278 948 222 907 q 419 989 333 989 q 619 900 543 989 l 564 853 q 417 918 493 918 q 335 897 365 918 q 304 842 304 876 q 328 794 304 817 q 372 763 351 772 q 444 732 392 754 q 515 701 489 714 q 572 664 540 688 q 619 609 604 640 q 635 538 635 578 q 580 420 635 464 q 429 376 525 376 z "},"ˣ":{"ha":856,"x_min":161,"x_max":693,"o":"m 693 393 l 597 393 l 425 629 l 257 393 l 161 393 l 378 694 l 175 972 l 271 972 l 428 757 l 582 972 l 678 972 l 476 690 l 693 393 z "},"́":{"ha":0,"x_min":-574,"x_max":-228,"o":"m -574 800 l -376 1017 l -228 1017 l -475 800 l -574 800 z "},"̂":{"ha":0,"x_min":-679,"x_max":-176,"o":"m -267 800 l -428 940 l -589 800 l -679 800 l -483 1017 l -372 1017 l -176 800 l -267 800 z "},"̃":{"ha":0,"x_min":-667,"x_max":-190,"o":"m -318 836 q -444 871 -371 836 q -547 906 -517 906 q -592 889 -574 906 q -612 842 -611 872 l -667 842 q -537 994 -667 994 q -412 959 -485 994 q -308 924 -339 924 q -263 941 -282 924 q -243 989 -244 958 l -190 989 q -318 836 -190 836 z "},"̄":{"ha":0,"x_min":-657,"x_max":-199,"o":"m -657 846 l -657 931 l -199 931 l -199 846 l -657 846 z "},"̆":{"ha":0,"x_min":-676,"x_max":-179,"o":"m -242 869 q -273 838 -242 869 q -428 807 -304 807 q -614 869 -551 807 q -676 1031 -676 932 l -582 1031 q -538 930 -582 967 q -428 893 -494 893 q -317 930 -361 893 q -274 1031 -274 967 l -179 1031 q -242 869 -179 932 z "},"̇":{"ha":0,"x_min":-493,"x_max":-362,"o":"m -381 860 q -391 851 -381 860 q -428 842 -400 842 q -474 861 -456 842 q -493 907 -493 881 q -474 953 -493 935 q -428 972 -456 972 q -381 953 -400 972 q -362 907 -362 935 q -381 860 -362 879 z "},"̈":{"ha":0,"x_min":-608,"x_max":-247,"o":"m -543 842 q -589 861 -569 842 q -608 907 -608 881 q -590 953 -608 935 q -543 972 -571 972 q -497 953 -515 972 q -478 907 -478 935 q -497 860 -478 879 q -543 842 -515 842 m -312 842 q -358 861 -339 842 q -378 907 -378 881 q -359 953 -378 935 q -312 972 -340 972 q -266 953 -285 972 q -247 907 -247 935 q -266 860 -247 879 q -312 842 -285 842 z "},"̊":{"ha":0,"x_min":-587,"x_max":-268,"o":"m -315 797 q -339 774 -315 797 q -428 750 -362 750 q -540 797 -493 750 q -587 908 -587 844 q -540 1017 -587 972 q -428 1063 -493 1063 q -315 1017 -362 1063 q -268 908 -268 972 q -315 797 -268 844 m -428 822 q -372 847 -394 822 q -350 908 -350 871 q -372 968 -350 946 q -428 990 -394 990 q -483 967 -460 990 q -506 908 -506 944 q -483 847 -506 871 q -428 822 -460 822 z "},"̋":{"ha":0,"x_min":-739,"x_max":-118,"o":"m -640 800 l -739 800 l -542 1017 l -393 1017 l -640 800 m -365 800 l -464 800 l -267 1017 l -118 1017 l -365 800 z "},"̌":{"ha":0,"x_min":-679,"x_max":-176,"o":"m -372 800 l -483 800 l -679 1017 l -589 1017 l -428 876 l -267 1017 l -176 1017 l -372 800 z "},"̒":{"ha":0,"x_min":-501,"x_max":-354,"o":"m -426 818 q -478 841 -456 818 q -501 900 -501 864 q -400 1076 -501 1015 l -375 1069 q -429 967 -422 1032 q -373 945 -392 967 q -354 892 -354 924 q -376 839 -354 860 q -426 818 -399 818 z "},"̦":{"ha":0,"x_min":-501,"x_max":-354,"o":"m -456 -339 l -481 -332 q -426 -229 -433 -294 q -483 -208 -464 -229 q -501 -154 -501 -186 q -479 -101 -501 -122 q -429 -81 -457 -81 q -377 -103 -400 -81 q -354 -162 -354 -126 q -456 -339 -354 -278 z "},"̧":{"ha":0,"x_min":-507,"x_max":-228,"o":"m -385 -325 q -507 -286 -461 -325 l -443 -244 q -393 -258 -432 -258 q -342 -237 -364 -258 q -319 -187 -319 -217 q -346 -141 -319 -161 q -404 -121 -372 -121 q -454 -128 -439 -121 l -471 -107 l -376 14 l -319 14 l -374 -76 q -263 -110 -299 -76 q -228 -189 -228 -143 q -272 -287 -228 -249 q -385 -325 -317 -325 z "},"̨":{"ha":0,"x_min":-512,"x_max":-222,"o":"m -361 -325 q -469 -290 -425 -325 q -512 -189 -512 -254 q -462 -68 -512 -121 q -322 14 -412 -15 l -244 14 q -382 -73 -336 -24 q -428 -176 -428 -122 q -406 -236 -428 -217 q -353 -256 -383 -256 q -276 -224 -311 -256 l -222 -264 q -361 -325 -278 -325 z "},"̷":{"ha":0,"x_min":157,"x_max":697,"o":"m 157 164 l 594 808 l 697 808 l 260 164 l 157 164 z "},"μ":{"ha":856,"x_min":160,"x_max":694,"o":"m 597 0 l 597 71 q 403 -17 511 -17 q 318 1 351 -17 q 257 68 285 19 l 257 -231 l 160 -278 l 160 710 l 257 710 l 257 276 q 297 113 257 154 q 422 71 336 71 q 597 274 597 71 l 597 710 l 694 710 l 694 0 l 597 0 z "},"π":{"ha":856,"x_min":40,"x_max":815,"o":"m 804 15 q 674 -17 744 -17 q 568 28 603 -17 q 533 146 533 72 l 533 606 l 301 606 l 301 518 q 265 163 301 296 q 125 -28 229 29 l 40 38 q 104 85 79 60 q 156 156 129 110 q 195 277 182 201 q 208 458 208 353 l 208 606 l 69 606 l 69 710 l 813 710 l 813 606 l 632 606 l 632 190 q 646 104 632 133 q 708 75 660 75 q 815 117 760 75 l 804 15 z "},"Ẁ":{"ha":856,"x_min":72,"x_max":783,"o":"m 396 1064 l 149 1281 l 297 1281 l 494 1064 l 396 1064 m 229 0 l 72 972 l 168 972 l 265 299 q 269 268 267 289 q 272 240 271 247 q 281 299 278 281 l 389 972 l 469 972 l 578 307 q 581 281 579 299 q 585 257 583 264 q 589 286 586 268 l 590 306 l 689 972 l 783 972 l 626 0 l 546 0 l 438 660 q 429 721 435 676 q 421 663 424 681 l 310 0 l 229 0 z "},"ẁ":{"ha":856,"x_min":42,"x_max":814,"o":"m 426 800 l 179 1017 l 328 1017 l 525 800 l 426 800 m 217 0 l 42 710 l 142 710 l 257 201 q 267 149 264 163 q 272 174 268 154 q 278 206 275 194 l 388 710 l 468 710 l 579 204 q 592 142 582 192 q 603 204 594 167 l 714 710 l 814 710 l 639 0 l 549 0 l 439 483 q 426 546 433 503 q 415 486 419 500 l 308 0 l 217 0 z "},"Ẃ":{"ha":856,"x_min":72,"x_max":783,"o":"m 378 1064 l 575 1281 l 724 1281 l 476 1064 l 378 1064 m 229 0 l 72 972 l 168 972 l 265 299 q 269 268 267 289 q 272 240 271 247 q 281 299 278 281 l 389 972 l 469 972 l 578 307 q 581 281 579 299 q 585 257 583 264 q 589 286 586 268 l 590 306 l 689 972 l 783 972 l 626 0 l 546 0 l 438 660 q 429 721 435 676 q 421 663 424 681 l 310 0 l 229 0 z "},"ẃ":{"ha":856,"x_min":42,"x_max":814,"o":"m 329 800 l 526 1017 l 675 1017 l 428 800 l 329 800 m 217 0 l 42 710 l 142 710 l 257 201 q 267 149 264 163 q 272 174 268 154 q 278 206 275 194 l 388 710 l 468 710 l 579 204 q 592 142 582 192 q 603 204 594 167 l 714 710 l 814 710 l 639 0 l 549 0 l 439 483 q 426 546 433 503 q 415 486 419 500 l 308 0 l 217 0 z "},"Ẅ":{"ha":856,"x_min":72,"x_max":783,"o":"m 313 1106 q 267 1125 286 1106 q 247 1171 247 1144 q 266 1217 247 1199 q 313 1236 285 1236 q 359 1217 340 1236 q 378 1171 378 1199 q 359 1124 378 1143 q 313 1106 340 1106 m 543 1106 q 497 1125 517 1106 q 478 1171 478 1144 q 497 1217 478 1199 q 543 1236 515 1236 q 590 1217 571 1236 q 608 1171 608 1199 q 590 1124 608 1143 q 543 1106 571 1106 m 229 0 l 72 972 l 168 972 l 265 299 q 269 268 267 289 q 272 240 271 247 q 281 299 278 281 l 389 972 l 469 972 l 578 307 q 581 281 579 299 q 585 257 583 264 q 589 286 586 268 l 590 306 l 689 972 l 783 972 l 626 0 l 546 0 l 438 660 q 429 721 435 676 q 421 663 424 681 l 310 0 l 229 0 z "},"ẅ":{"ha":856,"x_min":42,"x_max":814,"o":"m 313 842 q 267 861 286 842 q 247 907 247 881 q 266 953 247 935 q 313 972 285 972 q 359 953 340 972 q 378 907 378 935 q 359 860 378 879 q 313 842 340 842 m 543 842 q 497 861 517 842 q 478 907 478 881 q 497 953 478 935 q 543 972 515 972 q 590 953 571 972 q 608 907 608 935 q 590 860 608 879 q 543 842 571 842 m 217 0 l 42 710 l 142 710 l 257 201 q 267 149 264 163 q 272 174 268 154 q 278 206 275 194 l 388 710 l 468 710 l 579 204 q 592 142 582 192 q 603 204 594 167 l 714 710 l 814 710 l 639 0 l 549 0 l 439 483 q 426 546 433 503 q 415 486 419 500 l 308 0 l 217 0 z "},"Ỳ":{"ha":856,"x_min":104,"x_max":751,"o":"m 528 1064 l 429 1064 l 182 1281 l 331 1281 l 528 1064 m 651 972 l 751 972 l 478 385 l 478 0 l 381 0 l 381 385 l 104 972 l 211 972 l 429 472 l 651 972 z "},"ỳ":{"ha":856,"x_min":121,"x_max":733,"o":"m 429 800 l 182 1017 l 331 1017 l 528 800 l 429 800 m 275 -269 l 381 22 l 121 710 l 219 710 l 399 206 q 411 167 403 192 q 422 133 419 142 l 447 206 l 629 710 l 733 710 l 371 -269 l 275 -269 z "},"–":{"ha":856,"x_min":153,"x_max":701,"o":"m 153 357 l 153 440 l 701 440 l 701 357 l 153 357 z "},"—":{"ha":856,"x_min":7,"x_max":849,"o":"m 7 357 l 7 440 l 849 440 l 849 357 l 7 357 z "},"―":{"ha":856,"x_min":7,"x_max":849,"o":"m 7 357 l 7 440 l 849 440 l 849 357 l 7 357 z "},"‗":{"ha":856,"x_min":56,"x_max":800,"o":"m 56 -144 l 56 -37 l 800 -37 l 800 -144 l 56 -144 m 56 -347 l 56 -240 l 800 -240 l 800 -347 l 56 -347 z "},"‘":{"ha":856,"x_min":335,"x_max":519,"o":"m 431 642 q 363 672 390 642 q 335 758 335 701 q 373 914 335 838 q 461 1031 411 990 l 515 1017 q 428 819 431 915 q 494 793 468 817 q 519 731 519 769 q 494 667 519 692 q 431 642 468 642 z "},"’":{"ha":856,"x_min":335,"x_max":519,"o":"m 393 642 l 339 656 q 426 853 424 757 q 360 879 386 856 q 335 942 335 903 q 360 1006 335 981 q 424 1031 386 1031 q 492 1001 464 1031 q 519 914 519 971 q 481 758 519 835 q 393 642 443 682 z "},"‚":{"ha":856,"x_min":335,"x_max":519,"o":"m 393 -237 l 339 -224 q 426 -26 424 -122 q 360 0 386 -24 q 335 63 335 24 q 360 126 335 101 q 424 151 386 151 q 492 122 464 151 q 519 35 519 92 q 481 -121 519 -44 q 393 -237 443 -197 z "},"‛":{"ha":856,"x_min":335,"x_max":519,"o":"m 461 642 q 373 758 411 682 q 335 914 335 835 q 363 1001 335 971 q 431 1031 390 1031 q 494 1006 468 1031 q 519 942 519 981 q 494 879 519 903 q 428 853 468 856 q 515 656 431 757 l 461 642 z "},"“":{"ha":856,"x_min":199,"x_max":656,"o":"m 294 642 q 226 672 254 642 q 199 758 199 701 q 237 914 199 838 q 325 1031 275 990 l 379 1017 q 292 819 294 915 q 358 793 332 817 q 383 731 383 769 q 358 667 383 692 q 294 642 332 642 m 567 642 q 499 672 526 642 q 471 758 471 701 q 509 914 471 838 q 597 1031 547 990 l 651 1017 q 564 819 567 915 q 630 793 604 817 q 656 731 656 769 q 630 667 656 692 q 567 642 604 642 z "},"”":{"ha":856,"x_min":200,"x_max":656,"o":"m 258 642 l 204 656 q 292 853 289 757 q 226 879 251 856 q 200 942 200 903 q 226 1006 200 981 q 289 1031 251 1031 q 357 1001 329 1031 q 385 914 385 971 q 347 758 385 835 q 258 642 308 682 m 529 642 l 475 656 q 563 853 560 757 q 497 879 522 856 q 471 942 471 903 q 497 1006 471 981 q 560 1031 522 1031 q 628 1001 600 1031 q 656 914 656 971 q 617 758 656 835 q 529 642 579 682 z "},"„":{"ha":856,"x_min":200,"x_max":656,"o":"m 258 -237 l 204 -224 q 292 -26 289 -122 q 226 0 251 -24 q 200 63 200 24 q 226 126 200 101 q 289 151 251 151 q 357 122 329 151 q 385 35 385 92 q 347 -121 385 -44 q 258 -237 308 -197 m 529 -237 l 475 -224 q 563 -26 560 -122 q 497 0 522 -24 q 471 63 471 24 q 497 126 471 101 q 560 151 522 151 q 628 122 600 151 q 656 35 656 92 q 617 -121 656 -44 q 529 -237 579 -197 z "},"†":{"ha":856,"x_min":150,"x_max":706,"o":"m 458 635 l 476 469 l 433 -196 l 426 -196 l 376 469 l 392 635 l 199 608 l 150 608 l 150 703 l 199 703 l 388 675 l 376 815 l 376 989 l 476 989 l 476 815 l 463 675 l 654 703 l 706 703 l 706 608 l 654 608 l 458 635 z "},"‡":{"ha":856,"x_min":150,"x_max":706,"o":"m 376 -196 l 376 -22 l 388 118 l 199 88 l 150 88 l 150 185 l 199 185 l 392 156 l 376 322 l 376 469 l 392 635 l 199 608 l 150 608 l 150 703 l 199 703 l 388 675 l 376 815 l 376 989 l 476 989 l 476 815 l 463 675 l 654 703 l 706 703 l 706 608 l 654 608 l 458 635 l 476 469 l 476 322 l 458 156 l 654 185 l 706 185 l 706 88 l 654 88 l 463 118 l 476 -22 l 476 -196 l 376 -196 z "},"•":{"ha":856,"x_min":243,"x_max":613,"o":"m 426 301 q 297 355 350 301 q 243 486 243 408 q 297 617 243 564 q 426 671 350 671 q 558 617 504 671 q 613 486 613 563 q 558 356 613 410 q 426 301 504 301 z "},"…":{"ha":856,"x_min":56,"x_max":800,"o":"m 205 7 q 192 -6 205 7 q 143 -19 179 -19 q 81 7 107 -19 q 56 68 56 33 q 81 129 56 103 q 143 156 107 156 q 205 129 179 156 q 231 68 231 103 q 205 7 231 33 m 490 7 q 477 -6 490 7 q 428 -19 464 -19 q 366 7 392 -19 q 340 68 340 33 q 366 129 340 103 q 428 156 392 156 q 490 129 464 156 q 515 68 515 103 q 490 7 515 33 m 774 7 q 761 -6 774 7 q 713 -19 749 -19 q 651 7 676 -19 q 625 68 625 33 q 651 129 625 103 q 713 156 676 156 q 774 129 749 156 q 800 68 800 103 q 774 7 800 33 z "},"‰":{"ha":856,"x_min":0,"x_max":839,"o":"m 86 -17 l 0 -17 l 465 989 l 551 989 l 86 -17 m 151 540 q 50 607 83 540 q 17 765 17 674 q 50 919 17 850 q 151 989 83 989 q 251 922 217 989 q 286 765 286 854 q 252 610 286 679 q 151 540 218 540 m 151 614 q 189 658 174 614 q 204 765 204 703 q 190 874 204 832 q 151 915 175 915 q 112 873 125 915 q 99 765 99 831 q 113 656 99 697 q 151 614 126 614 m 400 -17 q 299 50 332 -17 q 265 207 265 117 q 299 362 265 292 q 400 432 333 432 q 500 365 465 432 q 535 207 535 297 q 501 53 535 122 q 400 -17 467 -17 m 704 -17 q 604 51 639 -17 q 569 207 569 118 q 583 308 569 258 q 628 394 596 357 q 704 432 660 432 q 804 365 769 432 q 839 207 839 297 q 805 53 839 122 q 704 -17 771 -17 m 400 57 q 438 101 422 57 q 453 207 453 146 q 438 316 453 274 q 400 358 424 358 q 360 315 374 358 q 347 207 347 272 q 361 99 347 140 q 400 57 375 57 m 704 57 q 742 101 726 57 q 757 207 757 146 q 742 316 757 274 q 704 358 728 358 q 666 315 681 358 q 651 207 651 271 q 666 99 651 142 q 704 57 681 57 z "},"′":{"ha":856,"x_min":347,"x_max":507,"o":"m 375 1014 l 507 1014 l 424 590 l 347 590 l 375 1014 z "},"″":{"ha":856,"x_min":208,"x_max":646,"o":"m 236 1014 l 368 1014 l 285 590 l 208 590 l 236 1014 m 514 1014 l 646 1014 l 563 590 l 486 590 l 514 1014 z "},"‹":{"ha":856,"x_min":268,"x_max":588,"o":"m 479 0 l 268 356 l 479 710 l 588 710 l 376 356 l 588 0 l 479 0 z "},"›":{"ha":856,"x_min":268,"x_max":588,"o":"m 268 0 l 479 356 l 268 710 l 376 710 l 588 356 l 376 0 l 268 0 z "},"‼":{"ha":856,"x_min":126,"x_max":729,"o":"m 188 268 l 167 688 l 167 989 l 267 989 l 267 688 l 244 268 l 188 268 m 615 268 l 594 688 l 594 989 l 694 989 l 694 688 l 672 268 l 615 268 m 276 7 q 263 -6 276 7 q 214 -19 250 -19 q 152 7 178 -19 q 126 68 126 33 q 152 129 126 103 q 214 156 178 156 q 276 129 250 156 q 301 68 301 103 q 276 7 301 33 m 703 7 q 691 -6 703 7 q 642 -19 678 -19 q 580 7 606 -19 q 554 68 554 33 q 580 129 554 103 q 642 156 606 156 q 703 129 678 156 q 729 68 729 103 q 703 7 729 33 z "},"‾":{"ha":856,"x_min":56,"x_max":800,"o":"m 56 1042 l 56 1149 l 800 1149 l 800 1042 l 56 1042 z "},"⁄":{"ha":0,"x_min":-383,"x_max":383,"o":"m -383 -17 l 281 989 l 383 989 l -281 -17 l -383 -17 z "},"⁰":{"ha":856,"x_min":246,"x_max":607,"o":"m 426 813 q 288 872 331 813 q 246 1010 246 932 q 260 1104 246 1061 q 317 1182 274 1147 q 426 1217 360 1217 q 565 1154 522 1217 q 607 1010 607 1092 q 566 872 607 932 q 426 813 525 813 m 366 912 q 377 900 366 912 q 426 889 389 889 q 487 912 464 889 q 516 960 510 935 q 522 1015 522 986 q 501 1101 522 1063 q 426 1140 481 1140 q 351 1101 372 1140 q 331 1015 331 1063 q 337 960 331 986 q 366 912 343 935 z "},"ⁱ":{"ha":856,"x_min":233,"x_max":639,"o":"m 472 1115 q 464 1107 472 1115 q 432 1099 456 1099 q 392 1115 408 1099 q 376 1154 376 1131 q 392 1196 376 1179 q 432 1213 408 1213 q 472 1196 456 1213 q 488 1154 488 1179 q 472 1115 488 1131 m 479 471 l 639 471 l 639 393 l 233 393 l 233 471 l 393 471 l 393 904 l 233 904 l 233 982 l 479 982 l 479 471 z "},"⁴":{"ha":856,"x_min":213,"x_max":617,"o":"m 460 825 l 460 906 l 213 906 l 213 961 l 465 1203 l 544 1203 l 544 982 l 617 982 l 617 906 l 544 906 l 544 825 l 460 825 m 460 982 l 460 1106 l 333 982 l 460 982 z "},"⁵":{"ha":856,"x_min":257,"x_max":608,"o":"m 415 810 q 257 874 318 810 l 301 932 q 424 879 344 879 q 497 898 469 879 q 524 949 524 917 q 439 1001 524 1001 q 333 961 371 1001 l 267 986 l 311 1204 l 576 1204 l 576 1128 l 371 1128 l 349 1038 q 458 1071 393 1071 q 565 1039 522 1071 q 608 957 608 1007 q 560 851 608 893 q 415 810 511 810 z "},"⁶":{"ha":856,"x_min":265,"x_max":592,"o":"m 426 813 q 307 853 349 813 q 265 956 265 893 q 339 1121 265 1050 q 543 1208 413 1192 l 543 1139 q 350 1011 392 1111 q 457 1057 389 1057 q 555 1022 518 1057 q 592 938 592 986 q 546 849 592 885 q 426 813 500 813 m 431 882 q 485 897 463 882 q 507 935 507 911 q 485 973 507 958 q 431 988 464 988 q 371 973 393 988 q 349 935 349 958 q 371 896 349 910 q 431 882 393 882 z "},"⁷":{"ha":856,"x_min":260,"x_max":594,"o":"m 335 825 q 385 1004 336 919 q 501 1126 435 1089 l 260 1126 l 260 1203 l 594 1203 l 594 1122 q 466 985 506 1068 q 425 825 426 903 l 335 825 z "},"⁸":{"ha":856,"x_min":247,"x_max":597,"o":"m 422 811 q 297 844 346 811 q 247 928 247 878 q 325 1024 247 996 q 290 1056 304 1033 q 275 1104 275 1079 q 317 1183 275 1151 q 422 1215 358 1215 q 528 1183 486 1215 q 569 1104 569 1151 q 554 1058 569 1082 q 519 1024 539 1033 q 597 928 597 996 q 549 844 597 878 q 422 811 500 811 m 353 1100 q 422 1049 353 1049 q 492 1100 492 1049 q 422 1149 492 1149 q 372 1135 390 1149 q 353 1100 353 1122 m 332 935 q 422 878 332 878 q 513 935 513 878 q 422 990 513 990 q 357 976 382 990 q 332 935 332 961 z "},"⁹":{"ha":856,"x_min":254,"x_max":600,"o":"m 313 814 l 313 881 q 501 999 464 908 q 407 971 468 971 q 298 1006 342 971 q 254 1089 254 1042 q 303 1178 254 1142 q 429 1215 351 1215 q 557 1177 514 1215 q 600 1071 600 1139 q 520 897 600 963 q 313 814 440 832 m 425 1040 q 492 1055 467 1040 q 518 1092 518 1069 q 493 1131 518 1117 q 425 1146 468 1146 q 365 1131 390 1146 q 339 1094 339 1117 q 363 1055 339 1069 q 425 1040 388 1040 z "},"⁺":{"ha":856,"x_min":251,"x_max":604,"o":"m 457 985 l 457 838 l 397 838 l 397 985 l 251 985 l 251 1042 l 397 1042 l 397 1190 l 457 1190 l 457 1042 l 604 1042 l 604 985 l 457 985 z "},"⁻":{"ha":856,"x_min":251,"x_max":604,"o":"m 251 985 l 251 1042 l 604 1042 l 604 985 l 251 985 z "},"⁼":{"ha":856,"x_min":251,"x_max":604,"o":"m 251 1063 l 251 1119 l 604 1119 l 604 1063 l 251 1063 m 251 913 l 251 969 l 604 969 l 604 913 l 251 913 z "},"⁽":{"ha":856,"x_min":399,"x_max":572,"o":"m 518 764 q 399 1006 399 858 q 525 1256 399 1160 l 572 1256 q 495 1158 535 1226 q 456 1006 456 1090 q 565 764 456 868 l 518 764 z "},"⁾":{"ha":856,"x_min":283,"x_max":457,"o":"m 338 764 l 290 764 q 400 1006 400 868 q 360 1158 400 1090 q 283 1256 321 1226 l 331 1256 q 457 1006 457 1160 q 338 764 457 858 z "},"ⁿ":{"ha":856,"x_min":206,"x_max":664,"o":"m 446 989 q 664 740 664 989 l 664 393 l 578 393 l 578 732 q 542 866 578 819 q 439 913 506 913 q 292 749 292 913 l 292 393 l 206 393 l 206 972 l 282 972 l 282 906 q 446 989 338 989 z "},"₀":{"ha":856,"x_min":246,"x_max":607,"o":"m 426 -243 q 288 -183 331 -243 q 246 -46 246 -124 q 260 49 246 6 q 317 126 274 92 q 426 161 360 161 q 565 99 522 161 q 607 -46 607 36 q 566 -183 607 -124 q 426 -243 525 -243 m 366 -144 q 377 -155 366 -144 q 426 -167 389 -167 q 487 -144 464 -167 q 516 -95 510 -121 q 522 -40 522 -69 q 501 46 522 7 q 426 85 481 85 q 351 46 372 85 q 331 -40 331 7 q 337 -95 331 -69 q 366 -144 343 -121 z "},"₁":{"ha":856,"x_min":315,"x_max":465,"o":"m 381 -231 l 381 11 l 315 11 l 315 71 q 407 147 383 71 l 465 147 l 465 -231 l 381 -231 z "},"₂":{"ha":856,"x_min":244,"x_max":592,"o":"m 244 -231 q 272 -121 244 -164 q 337 -60 299 -78 q 413 -30 375 -42 q 478 -5 451 -18 q 506 32 506 8 q 488 69 506 54 q 438 85 471 85 q 357 60 390 85 q 314 -12 324 35 l 246 17 q 308 119 260 81 q 435 157 357 157 q 549 124 506 157 q 592 25 592 92 q 553 -44 592 -15 q 470 -86 515 -74 q 385 -116 425 -99 q 344 -154 346 -133 l 590 -154 l 590 -231 l 244 -231 z "},"₃":{"ha":856,"x_min":238,"x_max":608,"o":"m 429 -244 q 238 -143 296 -244 l 314 -111 q 436 -175 354 -175 q 497 -157 474 -175 q 519 -112 519 -139 q 442 -69 519 -69 l 394 -69 l 394 0 l 425 0 q 481 8 465 0 q 497 42 497 17 q 478 76 497 61 q 428 90 460 90 q 322 29 358 90 l 249 54 q 319 130 271 100 q 426 160 367 160 q 541 131 497 160 q 585 50 585 101 q 565 -1 585 21 q 519 -26 544 -24 q 581 -52 553 -31 q 608 -119 608 -74 q 561 -208 608 -172 q 429 -244 514 -244 z "},"₄":{"ha":856,"x_min":213,"x_max":617,"o":"m 460 -231 l 460 -150 l 213 -150 l 213 -94 l 465 147 l 544 147 l 544 -74 l 617 -74 l 617 -150 l 544 -150 l 544 -231 l 460 -231 m 460 -74 l 460 50 l 333 -74 l 460 -74 z "},"₅":{"ha":856,"x_min":257,"x_max":608,"o":"m 415 -247 q 257 -183 318 -247 l 301 -125 q 424 -178 344 -178 q 497 -159 469 -178 q 524 -108 524 -140 q 439 -56 524 -56 q 333 -96 371 -56 l 267 -71 l 311 147 l 576 147 l 576 71 l 371 71 l 349 -19 q 458 14 393 14 q 565 -18 522 14 q 608 -100 608 -50 q 560 -206 608 -164 q 415 -247 511 -247 z "},"₆":{"ha":856,"x_min":265,"x_max":592,"o":"m 426 -244 q 307 -204 349 -244 q 265 -101 265 -164 q 339 64 265 -7 q 543 151 413 135 l 543 82 q 350 -46 392 54 q 457 0 389 0 q 555 -35 518 0 q 592 -119 592 -71 q 546 -208 592 -172 q 426 -244 500 -244 m 431 -175 q 485 -160 463 -175 q 507 -122 507 -146 q 485 -84 507 -99 q 431 -69 464 -69 q 371 -84 393 -69 q 349 -122 349 -99 q 371 -161 349 -147 q 431 -175 393 -175 z "},"₇":{"ha":856,"x_min":260,"x_max":594,"o":"m 335 -231 q 385 -51 336 -136 q 501 71 435 33 l 260 71 l 260 147 l 594 147 l 594 67 q 466 -70 506 13 q 425 -231 426 -153 l 335 -231 z "},"₈":{"ha":856,"x_min":247,"x_max":597,"o":"m 422 -244 q 297 -211 346 -244 q 247 -128 247 -178 q 325 -32 247 -60 q 290 1 304 -22 q 275 49 275 24 q 317 128 275 96 q 422 160 358 160 q 528 128 486 160 q 569 49 569 96 q 554 2 569 26 q 519 -32 539 -22 q 597 -128 597 -60 q 549 -211 597 -178 q 422 -244 500 -244 m 353 44 q 422 -7 353 -7 q 492 44 492 -7 q 422 93 492 93 q 372 80 390 93 q 353 44 353 67 m 332 -121 q 422 -178 332 -178 q 513 -121 513 -178 q 422 -65 513 -65 q 357 -80 382 -65 q 332 -121 332 -94 z "},"₉":{"ha":856,"x_min":254,"x_max":600,"o":"m 313 -240 l 313 -174 q 501 -56 464 -146 q 407 -83 468 -83 q 298 -48 342 -83 q 254 35 254 -12 q 303 124 254 88 q 429 161 351 161 q 557 123 514 161 q 600 17 600 85 q 520 -157 600 -92 q 313 -240 440 -222 m 425 -14 q 492 1 467 -14 q 518 38 518 15 q 493 77 518 63 q 425 92 468 92 q 365 77 390 92 q 339 40 339 63 q 363 1 339 15 q 425 -14 388 -14 z "},"₊":{"ha":856,"x_min":251,"x_max":604,"o":"m 457 -71 l 457 -218 l 397 -218 l 397 -71 l 251 -71 l 251 -14 l 397 -14 l 397 135 l 457 135 l 457 -14 l 604 -14 l 604 -71 l 457 -71 z "},"₋":{"ha":856,"x_min":251,"x_max":604,"o":"m 251 -69 l 251 -12 l 604 -12 l 604 -69 l 251 -69 z "},"₌":{"ha":856,"x_min":251,"x_max":604,"o":"m 251 7 l 251 64 l 604 64 l 604 7 l 251 7 m 251 -143 l 251 -86 l 604 -86 l 604 -143 l 251 -143 z "},"₍":{"ha":856,"x_min":399,"x_max":572,"o":"m 518 -278 q 399 -36 399 -183 q 525 214 399 118 l 572 214 q 495 117 535 185 q 456 -36 456 49 q 565 -278 456 -174 l 518 -278 z "},"₎":{"ha":856,"x_min":283,"x_max":457,"o":"m 338 -278 l 290 -278 q 400 -36 400 -174 q 360 117 400 49 q 283 214 321 185 l 331 214 q 457 -36 457 118 q 338 -278 457 -183 z "},"ₐ":{"ha":856,"x_min":179,"x_max":644,"o":"m 444 365 q 585 319 525 365 q 644 161 644 274 l 644 -231 l 564 -231 l 564 -175 q 386 -247 488 -247 q 235 -197 290 -247 q 179 -50 179 -146 q 242 94 179 46 q 400 142 306 142 q 564 101 489 142 l 564 151 q 531 253 564 218 q 438 289 499 289 q 250 228 349 289 l 228 301 q 444 365 335 365 m 396 -172 q 564 -83 490 -172 l 564 18 q 408 67 497 67 q 301 37 343 67 q 260 -50 260 7 q 295 -140 260 -107 q 396 -172 331 -172 z "},"ₑ":{"ha":856,"x_min":176,"x_max":682,"o":"m 682 82 q 681 25 682 51 l 268 25 q 327 -115 278 -62 q 444 -168 376 -168 q 583 -122 518 -168 l 629 -181 q 442 -247 543 -247 q 249 -158 321 -247 q 176 58 176 -69 q 248 285 176 204 q 442 365 319 365 q 615 294 547 365 q 682 82 682 222 m 442 289 q 316 239 360 289 q 267 99 272 189 l 597 99 q 549 246 596 203 q 442 289 501 289 z "},"ₒ":{"ha":856,"x_min":156,"x_max":700,"o":"m 626 -165 q 589 -206 626 -165 q 428 -247 551 -247 q 230 -166 304 -247 q 156 58 156 -85 q 230 283 156 200 q 428 365 304 365 q 626 284 551 365 q 700 58 700 203 q 626 -165 700 -83 m 428 -171 q 563 -110 514 -171 q 611 58 611 -49 q 564 228 611 167 q 428 289 517 289 q 290 230 338 289 q 243 58 243 171 q 290 -110 243 -50 q 428 -171 338 -171 z "},"ₓ":{"ha":856,"x_min":161,"x_max":693,"o":"m 693 -231 l 597 -231 l 425 6 l 257 -231 l 161 -231 l 378 71 l 175 349 l 271 349 l 428 133 l 582 349 l 678 349 l 476 67 l 693 -231 z "},"ₔ":{"ha":856,"x_min":174,"x_max":679,"o":"m 414 365 q 607 276 535 365 q 679 60 679 188 q 608 -167 679 -86 q 414 -247 536 -247 q 241 -176 308 -247 q 174 36 174 -104 q 175 93 174 67 l 588 93 q 528 233 578 181 q 411 286 479 286 q 272 240 338 286 l 226 299 q 414 365 313 365 m 414 -171 q 540 -121 496 -171 q 589 19 583 -71 l 258 19 q 307 -128 260 -85 q 414 -171 354 -171 z "},"ₕ":{"ha":856,"x_min":206,"x_max":664,"o":"m 446 365 q 664 117 664 365 l 664 -231 l 578 -231 l 578 108 q 542 242 578 196 q 439 289 506 289 q 292 125 292 289 l 292 -231 l 206 -231 l 206 564 l 286 601 l 286 288 q 446 365 342 365 z "},"ₖ":{"ha":856,"x_min":224,"x_max":697,"o":"m 603 -231 l 415 135 l 308 22 l 308 -231 l 224 -231 l 224 561 l 308 601 l 308 122 l 525 349 l 622 349 l 476 197 l 697 -231 l 603 -231 z "},"ₗ":{"ha":856,"x_min":222,"x_max":646,"o":"m 486 -153 l 646 -153 l 646 -231 l 240 -231 l 240 -153 l 400 -153 l 400 501 l 258 501 l 222 579 l 486 579 l 486 -153 z "},"ₘ":{"ha":856,"x_min":135,"x_max":722,"o":"m 579 363 q 688 315 653 363 q 722 168 722 268 l 722 -231 l 639 -231 l 639 136 q 624 251 639 215 q 567 288 610 288 q 495 238 519 288 q 471 113 471 189 l 471 -231 l 388 -231 l 388 136 q 374 247 388 207 q 315 288 360 288 q 244 237 269 288 q 218 113 218 186 l 218 -231 l 135 -231 l 135 349 l 214 349 l 214 278 q 326 363 250 363 q 450 265 415 363 q 579 363 489 363 z "},"ₙ":{"ha":856,"x_min":206,"x_max":664,"o":"m 446 365 q 664 117 664 365 l 664 -231 l 578 -231 l 578 108 q 542 242 578 196 q 439 289 506 289 q 292 125 292 289 l 292 -231 l 206 -231 l 206 349 l 282 349 l 282 282 q 446 365 338 365 z "},"ₚ":{"ha":856,"x_min":194,"x_max":700,"o":"m 194 -471 l 194 349 l 279 349 l 279 296 q 444 363 354 363 q 632 280 564 363 q 700 57 700 197 q 631 -166 700 -85 q 449 -247 561 -247 q 279 -174 342 -247 l 279 -431 l 194 -471 m 438 -171 q 565 -112 519 -171 q 611 57 611 -53 q 564 224 611 163 q 432 286 517 286 q 279 196 332 286 l 279 -81 q 438 -171 351 -171 z "},"ₛ":{"ha":856,"x_min":219,"x_max":635,"o":"m 429 -247 q 219 -144 300 -247 l 276 -94 q 436 -176 356 -176 q 520 -153 488 -176 q 553 -90 553 -131 q 519 -25 553 -50 q 417 29 485 0 q 345 60 369 49 q 287 95 321 72 q 238 148 253 118 q 222 217 222 178 q 278 324 222 283 q 419 365 333 365 q 619 276 543 365 l 564 229 q 417 294 493 294 q 335 274 365 294 q 304 218 304 253 q 328 171 304 193 q 372 140 351 149 q 444 108 392 131 q 515 77 489 90 q 572 40 540 64 q 619 -15 604 17 q 635 -86 635 -46 q 580 -203 635 -160 q 429 -247 525 -247 z "},"ₜ":{"ha":856,"x_min":213,"x_max":631,"o":"m 492 -247 q 384 -210 419 -247 q 349 -107 349 -172 l 349 271 l 213 271 l 213 349 l 349 349 l 349 551 l 435 592 l 435 349 l 629 349 l 629 271 l 435 271 l 435 -67 q 451 -140 435 -115 q 519 -165 468 -165 q 631 -131 581 -165 l 622 -221 q 492 -247 569 -247 z "},"₣":{"ha":856,"x_min":56,"x_max":733,"o":"m 733 879 l 244 879 l 244 646 l 581 646 l 581 554 l 244 554 l 244 451 l 581 451 l 581 360 l 244 360 l 244 0 l 147 0 l 147 360 l 56 360 l 56 451 l 147 451 l 147 554 l 56 554 l 56 646 l 147 646 l 147 972 l 733 972 l 733 879 z "},"₤":{"ha":856,"x_min":101,"x_max":753,"o":"m 108 0 l 108 110 q 229 332 206 154 l 101 332 l 101 411 l 236 411 q 213 503 236 449 l 101 503 l 101 582 l 179 582 q 146 721 146 661 q 226 911 146 833 q 458 989 307 989 q 606 967 543 989 q 733 899 668 944 l 693 803 q 644 847 663 832 q 574 878 625 861 q 458 896 524 896 q 304 843 357 896 q 251 719 251 790 q 290 582 251 665 l 551 582 l 551 503 l 325 503 q 342 411 342 453 l 551 411 l 551 332 l 333 332 q 194 90 310 196 l 753 90 l 753 0 l 108 0 z "},"₦":{"ha":856,"x_min":49,"x_max":807,"o":"m 807 528 l 807 444 l 708 444 l 708 0 l 610 0 l 393 444 l 244 444 l 244 0 l 147 0 l 147 444 l 49 444 l 49 528 l 147 528 l 147 972 l 246 972 l 460 528 l 611 528 l 611 972 l 708 972 l 708 528 l 807 528 m 244 528 l 351 528 l 264 708 q 243 756 254 728 q 244 710 244 733 l 244 528 m 613 206 q 611 251 611 232 l 611 444 l 500 444 l 593 250 q 613 206 610 213 z "},"₧":{"ha":856,"x_min":35,"x_max":821,"o":"m 821 728 l 821 644 l 731 644 q 641 472 717 543 q 426 401 565 401 l 244 401 l 244 0 l 147 0 l 147 644 l 35 644 l 35 728 l 147 728 l 147 972 l 426 972 q 646 903 572 972 q 731 728 719 835 l 821 728 m 244 885 l 244 728 l 636 728 q 577 840 625 794 q 435 885 529 885 l 244 885 m 435 489 q 576 533 526 489 q 636 644 625 576 l 244 644 l 244 489 l 435 489 z "},"₩":{"ha":856,"x_min":35,"x_max":821,"o":"m 821 528 l 821 444 l 699 444 l 626 0 l 546 0 l 472 444 l 385 444 l 310 0 l 229 0 l 157 444 l 35 444 l 35 528 l 144 528 l 72 972 l 168 972 l 232 528 l 318 528 l 389 972 l 469 972 l 542 528 l 624 528 l 689 972 l 783 972 l 711 528 l 821 528 m 399 528 l 460 528 l 438 660 q 429 721 435 676 q 421 663 424 681 l 399 528 m 281 299 l 304 444 l 244 444 l 265 299 q 269 268 267 289 q 272 240 271 247 q 281 299 278 281 m 590 306 l 611 444 l 556 444 l 578 307 q 581 281 579 299 q 585 257 583 264 q 589 286 586 268 l 590 306 z "},"₪":{"ha":856,"x_min":97,"x_max":758,"o":"m 97 0 l 97 972 l 194 972 l 194 88 l 303 88 q 440 139 406 88 q 474 321 474 190 l 474 800 l 571 800 l 571 322 q 517 82 571 164 q 317 0 464 0 l 97 0 m 661 0 l 661 885 l 553 885 q 416 833 450 885 q 382 651 382 782 l 382 172 l 285 172 l 285 650 q 338 890 285 808 q 539 972 392 972 l 758 972 l 758 0 l 661 0 z "},"₫":{"ha":856,"x_min":97,"x_max":767,"o":"m 383 163 q 176 239 256 163 q 97 428 97 315 q 176 617 97 540 q 383 693 256 693 q 579 626 496 693 l 579 768 l 382 768 l 382 856 l 579 856 l 579 954 l 676 1003 l 676 856 l 767 856 l 767 768 l 676 768 l 676 179 l 579 179 l 579 240 q 383 163 497 163 m 383 250 q 579 347 513 250 l 579 517 q 383 606 501 606 q 250 553 301 606 q 199 428 199 501 q 250 302 199 354 q 383 250 301 250 m 125 0 l 125 88 l 676 88 l 676 0 l 125 0 z "},"€":{"ha":856,"x_min":64,"x_max":790,"o":"m 514 -17 q 275 74 360 -17 q 164 322 190 165 l 64 322 l 101 403 l 154 403 q 151 483 151 429 q 153 550 151 528 l 64 550 l 101 631 l 164 631 q 282 888 192 788 q 529 989 372 989 q 757 924 657 989 l 719 835 q 526 899 644 899 q 269 631 317 899 l 635 631 l 601 550 l 258 550 q 256 460 256 519 q 258 403 256 422 l 540 403 l 507 322 l 271 322 q 353 144 294 215 q 511 74 413 74 q 713 174 638 74 l 790 125 q 681 24 753 65 q 514 -17 610 -17 z "},"₹":{"ha":856,"x_min":111,"x_max":765,"o":"m 765 972 l 765 885 l 549 885 q 632 749 617 850 l 765 749 l 765 661 l 635 661 q 551 499 625 564 q 333 435 476 435 l 249 435 l 631 0 l 508 0 l 111 456 l 111 522 l 339 522 q 542 661 524 522 l 111 661 l 111 749 l 536 749 q 329 885 504 885 l 111 885 l 111 972 l 765 972 z "},"₺":{"ha":856,"x_min":97,"x_max":786,"o":"m 689 392 l 786 392 q 758 250 781 317 q 693 126 735 183 q 581 34 651 68 q 421 0 511 0 l 274 0 l 274 338 l 97 242 l 97 349 l 274 444 l 274 599 l 97 503 l 97 610 l 274 706 l 274 972 l 371 972 l 371 758 l 539 849 l 539 742 l 371 651 l 371 497 l 539 588 l 539 481 l 371 390 l 371 88 l 407 88 q 608 173 538 88 q 689 392 679 258 z "},"₽":{"ha":856,"x_min":42,"x_max":733,"o":"m 426 401 l 275 401 l 275 250 l 490 250 l 490 163 l 275 163 l 275 0 l 178 0 l 178 163 l 42 163 l 42 250 l 178 250 l 178 401 l 42 401 l 42 489 l 178 489 l 178 972 l 426 972 q 660 890 588 972 q 733 686 733 807 q 657 488 733 574 q 426 401 581 401 m 275 885 l 275 489 l 435 489 q 590 547 540 489 q 640 686 640 606 q 592 825 640 765 q 435 885 544 885 l 275 885 z "},"℅":{"ha":856,"x_min":14,"x_max":842,"o":"m 199 378 q 67 463 119 378 q 14 683 14 547 q 70 905 14 821 q 200 989 126 989 q 229 985 215 989 q 253 978 243 982 q 274 965 264 974 q 292 950 285 957 q 306 933 299 943 q 317 915 313 922 q 326 897 321 907 q 333 881 331 886 q 338 867 335 876 l 340 858 l 253 822 q 193 899 226 899 q 136 839 161 899 q 111 683 111 779 q 138 526 111 585 q 196 468 164 468 q 231 488 218 468 q 263 551 244 507 l 344 517 q 287 417 325 457 q 199 378 249 378 m 118 -17 l 601 989 l 704 989 l 221 -17 l 118 -17 m 647 -17 q 508 65 563 -17 q 454 289 454 147 q 508 512 454 429 q 647 594 563 594 q 788 513 733 594 q 842 289 842 431 q 788 65 842 146 q 647 -17 733 -17 m 647 74 q 719 130 693 74 q 744 289 744 186 q 719 449 744 393 q 647 504 693 504 q 578 447 606 504 q 551 289 551 389 q 578 131 551 189 q 647 74 606 74 z "},"ℓ":{"ha":856,"x_min":175,"x_max":624,"o":"m 422 -17 q 286 142 286 -17 l 286 346 q 238 318 265 332 q 207 301 211 304 l 175 381 q 286 442 235 403 l 286 726 q 458 989 286 989 q 576 935 528 989 q 624 782 624 881 q 601 649 624 711 q 533 535 579 588 q 462 460 488 483 q 386 397 436 436 l 386 200 q 408 100 386 126 q 469 74 429 74 q 564 121 519 74 l 589 64 q 422 -17 525 -17 m 456 896 q 403 856 419 896 q 386 707 386 815 l 386 497 q 524 758 524 617 q 456 896 524 896 z "},"№":{"ha":856,"x_min":32,"x_max":847,"o":"m 674 378 q 553 458 597 378 q 508 683 508 539 q 553 908 508 826 q 674 989 597 989 q 796 908 751 989 q 840 683 840 826 q 796 458 840 539 q 674 378 751 378 m 343 0 l 129 699 l 129 0 l 32 0 l 32 978 l 131 978 l 344 254 l 344 978 l 442 978 l 442 0 l 343 0 m 674 468 q 750 683 750 468 q 674 899 750 899 q 619 842 639 899 q 599 683 599 786 q 619 525 599 582 q 674 468 639 468 m 501 181 l 501 257 l 847 257 l 847 181 l 501 181 z "},"™":{"ha":856,"x_min":21,"x_max":835,"o":"m 163 386 l 163 900 l 21 900 l 21 972 l 382 972 l 382 900 l 240 900 l 240 386 l 163 386 m 414 386 l 414 972 l 483 972 l 614 594 l 625 556 l 636 594 l 767 972 l 835 972 l 835 386 l 757 386 l 757 731 l 740 678 l 633 386 l 617 386 l 508 678 l 492 733 l 492 386 l 414 386 z "},"Ω":{"ha":856,"x_min":33,"x_max":822,"o":"m 524 0 l 524 99 q 665 303 622 208 q 707 540 707 397 q 692 671 707 610 q 645 785 676 732 q 558 870 614 839 q 426 901 501 901 q 263 846 329 901 q 172 712 197 790 q 146 539 146 633 q 188 303 146 397 q 331 99 231 208 l 331 0 l 33 0 l 33 88 l 268 88 q 44 542 44 229 q 65 700 44 624 q 129 843 86 776 q 249 949 172 910 q 426 989 325 989 q 605 949 528 989 q 725 843 682 910 q 788 701 768 776 q 808 542 808 625 q 585 88 808 231 l 822 88 l 822 0 l 524 0 z "},"℮":{"ha":856,"x_min":35,"x_max":821,"o":"m 435 -17 q 151 122 267 -17 q 35 486 35 261 q 153 860 35 728 q 439 993 271 993 q 703 860 594 993 q 821 486 813 728 l 240 486 l 240 154 q 435 67 324 67 q 739 260 625 67 l 806 217 q 649 42 735 101 q 435 -17 563 -17 m 240 567 l 622 568 l 622 822 q 544 883 596 857 q 435 910 493 910 q 240 829 324 910 l 240 567 z "},"⅓":{"ha":856,"x_min":63,"x_max":793,"o":"m 381 600 l 381 842 l 315 842 l 315 901 q 407 978 383 901 l 465 978 l 465 600 l 381 600 m 63 453 l 63 531 l 793 531 l 793 453 l 63 453 m 442 -17 q 250 85 308 -17 l 326 117 q 449 53 367 53 q 509 71 486 53 q 532 115 532 89 q 454 158 532 158 l 407 158 l 407 228 l 438 228 q 494 236 478 228 q 510 269 510 244 q 491 303 510 289 q 440 318 472 318 q 335 257 371 318 l 261 282 q 331 358 283 328 q 439 388 379 388 q 553 358 510 388 q 597 278 597 329 q 577 226 597 249 q 532 201 557 204 q 593 176 565 197 q 621 108 621 154 q 574 19 621 56 q 442 -17 526 -17 z "},"⅔":{"ha":856,"x_min":63,"x_max":793,"o":"m 264 600 q 291 710 264 667 q 356 771 318 753 q 433 801 394 789 q 498 826 471 813 q 525 863 525 839 q 508 900 525 885 q 457 915 490 915 q 376 890 410 915 q 333 818 343 865 l 265 847 q 328 949 279 911 q 454 988 376 988 q 568 955 525 988 q 611 856 611 922 q 573 786 611 815 q 490 744 535 757 q 405 715 444 732 q 364 676 365 697 l 610 676 l 610 600 l 264 600 m 63 453 l 63 531 l 793 531 l 793 453 l 63 453 m 446 -17 q 254 85 313 -17 l 331 117 q 453 53 371 53 q 513 71 490 53 q 536 115 536 89 q 458 158 536 158 l 411 158 l 411 228 l 442 228 q 498 236 482 228 q 514 269 514 244 q 495 303 514 289 q 444 318 476 318 q 339 257 375 318 l 265 282 q 335 358 288 328 q 443 388 383 388 q 558 358 514 388 q 601 278 601 329 q 581 226 601 249 q 536 201 561 204 q 597 176 569 197 q 625 108 625 154 q 578 19 625 56 q 446 -17 531 -17 z "},"⅛":{"ha":856,"x_min":63,"x_max":793,"o":"m 381 600 l 381 842 l 315 842 l 315 901 q 407 978 383 901 l 465 978 l 465 600 l 381 600 m 63 453 l 63 531 l 793 531 l 793 453 l 63 453 m 422 -17 q 297 17 346 -17 q 247 100 247 50 q 325 196 247 168 q 290 228 304 206 q 275 276 275 251 q 317 356 275 324 q 422 388 358 388 q 528 356 486 388 q 569 276 569 324 q 554 230 569 254 q 519 196 539 206 q 597 100 597 168 q 549 17 597 50 q 422 -17 500 -17 m 353 272 q 422 221 353 221 q 492 272 492 221 q 422 321 492 321 q 372 308 390 321 q 353 272 353 294 m 332 107 q 422 50 332 50 q 513 107 513 50 q 422 163 513 163 q 357 148 382 163 q 332 107 332 133 z "},"⅜":{"ha":856,"x_min":63,"x_max":793,"o":"m 429 583 q 238 685 296 583 l 314 717 q 436 653 354 653 q 497 671 474 653 q 519 715 519 689 q 442 758 519 758 l 394 758 l 394 828 l 425 828 q 481 836 465 828 q 497 869 497 844 q 478 903 497 889 q 428 918 460 918 q 322 857 358 918 l 249 882 q 319 958 271 928 q 426 988 367 988 q 541 958 497 988 q 585 878 585 929 q 565 826 585 849 q 519 801 544 804 q 581 776 553 797 q 608 708 608 754 q 561 619 608 656 q 429 583 514 583 m 63 453 l 63 531 l 793 531 l 793 453 l 63 453 m 422 -17 q 297 17 346 -17 q 247 100 247 50 q 325 196 247 168 q 290 228 304 206 q 275 276 275 251 q 317 356 275 324 q 422 388 358 388 q 528 356 486 388 q 569 276 569 324 q 554 230 569 254 q 519 196 539 206 q 597 100 597 168 q 549 17 597 50 q 422 -17 500 -17 m 353 272 q 422 221 353 221 q 492 272 492 221 q 422 321 492 321 q 372 308 390 321 q 353 272 353 294 m 332 107 q 422 50 332 50 q 513 107 513 50 q 422 163 513 163 q 357 148 382 163 q 332 107 332 133 z "},"⅝":{"ha":856,"x_min":63,"x_max":793,"o":"m 415 583 q 257 647 318 583 l 301 706 q 424 653 344 653 q 497 672 469 653 q 524 722 524 690 q 439 775 524 775 q 333 735 371 775 l 267 760 l 311 978 l 576 978 l 576 901 l 371 901 l 349 811 q 458 844 393 844 q 565 813 522 844 q 608 731 608 781 q 560 625 608 667 q 415 583 511 583 m 63 453 l 63 531 l 793 531 l 793 453 l 63 453 m 422 -17 q 297 17 346 -17 q 247 100 247 50 q 325 196 247 168 q 290 228 304 206 q 275 276 275 251 q 317 356 275 324 q 422 388 358 388 q 528 356 486 388 q 569 276 569 324 q 554 230 569 254 q 519 196 539 206 q 597 100 597 168 q 549 17 597 50 q 422 -17 500 -17 m 353 272 q 422 221 353 221 q 492 272 492 221 q 422 321 492 321 q 372 308 390 321 q 353 272 353 294 m 332 107 q 422 50 332 50 q 513 107 513 50 q 422 163 513 163 q 357 148 382 163 q 332 107 332 133 z "},"⅞":{"ha":856,"x_min":63,"x_max":793,"o":"m 335 600 q 385 779 336 694 q 501 901 435 864 l 260 901 l 260 978 l 594 978 l 594 897 q 466 760 506 843 q 425 600 426 678 l 335 600 m 63 453 l 63 531 l 793 531 l 793 453 l 63 453 m 422 -17 q 297 17 346 -17 q 247 100 247 50 q 325 196 247 168 q 290 228 304 206 q 275 276 275 251 q 317 356 275 324 q 422 388 358 388 q 528 356 486 388 q 569 276 569 324 q 554 230 569 254 q 519 196 539 206 q 597 100 597 168 q 549 17 597 50 q 422 -17 500 -17 m 353 272 q 422 221 353 221 q 492 272 492 221 q 422 321 492 321 q 372 308 390 321 q 353 272 353 294 m 332 107 q 422 50 332 50 q 513 107 513 50 q 422 163 513 163 q 357 148 382 163 q 332 107 332 133 z "},"←":{"ha":856,"x_min":63,"x_max":779,"o":"m 385 272 q 361 283 379 272 l 79 474 q 63 500 63 483 q 79 526 63 515 l 361 718 q 385 729 379 729 q 401 714 401 729 q 393 685 401 707 l 343 539 l 779 554 l 778 446 l 343 461 l 393 317 q 401 288 401 292 q 385 272 401 272 z "},"↑":{"ha":856,"x_min":200,"x_max":656,"o":"m 482 0 l 374 0 l 389 692 l 244 642 q 215 633 222 633 q 200 650 200 633 q 211 674 200 656 l 401 956 q 428 972 411 972 q 454 956 444 972 l 644 674 q 656 650 656 656 q 640 633 656 633 q 611 642 636 633 l 467 692 l 482 0 z "},"→":{"ha":856,"x_min":76,"x_max":793,"o":"m 471 272 q 454 288 454 272 q 463 317 454 292 l 513 461 l 78 446 l 76 554 l 513 539 l 463 685 q 454 714 454 707 q 471 729 454 729 q 494 718 476 729 l 776 526 q 793 500 793 517 q 776 474 793 483 l 494 283 q 471 272 476 272 z "},"↓":{"ha":856,"x_min":200,"x_max":656,"o":"m 451 13 q 428 0 443 0 q 404 13 413 0 l 204 307 q 200 319 200 314 q 206 335 200 328 q 222 342 213 342 q 231 340 228 342 l 389 286 l 374 972 l 482 972 l 467 286 l 625 340 q 633 342 628 342 q 649 335 643 342 q 656 319 656 328 q 651 307 656 314 l 451 13 z "},"↔":{"ha":1711,"x_min":174,"x_max":1538,"o":"m 1215 272 q 1199 288 1199 272 q 1207 317 1199 292 l 1256 457 l 456 457 l 504 317 q 513 288 513 292 q 496 272 513 272 q 472 283 490 272 l 190 474 q 174 500 174 483 q 190 526 174 515 l 472 718 q 496 729 490 729 q 513 714 513 729 q 504 685 513 707 l 456 543 l 1256 543 l 1207 685 q 1199 714 1199 707 q 1215 729 1199 729 q 1239 718 1221 729 l 1521 526 q 1538 500 1538 517 q 1521 474 1538 483 l 1239 283 q 1215 272 1221 272 z "},"↕":{"ha":856,"x_min":200,"x_max":656,"o":"m 454 -219 q 428 -236 444 -236 q 401 -219 411 -236 l 211 63 q 200 86 200 81 q 215 103 200 103 q 244 94 219 103 l 385 46 l 385 782 l 244 733 q 215 725 219 725 q 200 742 200 725 q 211 765 200 747 l 401 1047 q 428 1064 411 1064 q 454 1047 444 1064 l 644 765 q 656 742 656 747 q 640 725 656 725 q 611 733 633 725 l 471 782 l 471 46 l 611 94 q 640 103 633 103 q 656 86 656 103 q 644 63 656 81 l 454 -219 z "},"↖":{"ha":856,"x_min":61,"x_max":794,"o":"m 718 104 l 240 603 l 174 465 q 147 435 160 435 q 126 465 132 435 l 64 792 q 61 811 61 806 q 88 838 61 838 q 107 835 93 838 l 435 772 q 464 751 464 765 q 435 726 464 740 l 294 658 l 794 181 l 718 104 z "},"↗":{"ha":856,"x_min":61,"x_max":794,"o":"m 138 104 l 61 181 l 561 658 l 421 726 q 392 751 392 740 q 421 772 392 765 l 749 835 q 768 838 763 838 q 794 811 794 838 q 792 792 794 806 l 729 465 q 708 435 724 435 q 682 465 696 435 l 615 603 l 138 104 z "},"↘":{"ha":856,"x_min":61,"x_max":794,"o":"m 768 104 q 749 107 763 104 l 421 169 q 392 190 392 176 q 421 215 392 201 l 561 283 l 61 761 l 138 838 l 615 339 l 682 476 q 708 507 696 507 q 729 476 724 507 l 792 150 q 794 131 794 136 q 768 104 794 104 z "},"↙":{"ha":856,"x_min":61,"x_max":794,"o":"m 88 104 q 61 131 61 104 q 64 150 61 136 l 126 476 q 147 507 132 507 q 174 476 160 507 l 240 339 l 718 838 l 794 761 l 294 283 l 435 215 q 464 190 464 201 q 435 169 464 176 l 107 107 q 88 104 93 104 z "},"↨":{"ha":856,"x_min":61,"x_max":794,"o":"m 454 -150 q 428 -167 444 -167 q 401 -150 411 -167 l 211 132 q 200 156 200 150 q 215 172 200 172 q 244 164 219 172 l 385 115 l 385 782 l 244 733 q 215 725 219 725 q 200 742 200 725 q 211 765 200 747 l 401 1047 q 428 1064 411 1064 q 454 1047 444 1064 l 644 765 q 656 742 656 747 q 640 725 656 725 q 611 733 633 725 l 471 782 l 471 115 l 611 164 q 640 172 633 172 q 656 156 656 172 q 644 132 656 150 l 454 -150 m 61 -347 l 61 -261 l 794 -261 l 794 -347 l 61 -347 z "},"↳":{"ha":856,"x_min":104,"x_max":779,"o":"m 763 324 q 779 297 779 313 q 763 271 779 281 l 481 81 q 457 69 463 69 q 440 85 440 69 q 449 114 440 89 l 497 254 l 104 254 l 104 972 l 197 972 l 197 340 l 497 340 l 449 482 q 440 511 440 504 q 457 526 440 526 q 481 515 463 526 l 763 324 z "},"↴":{"ha":856,"x_min":90,"x_max":779,"o":"m 764 453 q 779 436 779 453 q 768 413 779 431 l 578 131 q 551 114 567 114 q 525 131 536 114 l 333 413 q 322 436 322 431 q 338 453 322 453 q 367 444 344 453 l 506 397 l 506 886 l 90 886 l 90 972 l 597 972 l 597 397 l 735 444 q 764 453 760 453 z "},"↵":{"ha":856,"x_min":76,"x_max":751,"o":"m 658 972 l 751 972 l 751 254 l 358 254 l 407 114 q 415 85 415 89 q 399 69 415 69 q 375 81 393 69 l 93 271 q 76 297 76 281 q 93 324 76 314 l 375 515 q 399 526 393 526 q 415 511 415 526 q 407 482 415 504 l 358 340 l 658 340 l 658 972 z "},"↶":{"ha":856,"x_min":56,"x_max":781,"o":"m 318 908 q 358 948 318 908 q 510 988 397 988 q 701 908 622 988 q 781 717 781 829 l 781 0 l 693 0 l 693 717 q 640 849 693 794 q 510 904 586 904 q 380 849 433 904 q 326 717 326 794 l 326 557 l 464 604 q 493 613 489 613 q 508 596 508 613 q 497 572 508 590 l 310 290 q 283 274 300 274 q 257 290 267 274 l 67 572 q 56 596 56 590 q 71 613 56 613 q 100 604 78 613 l 239 557 l 239 717 q 318 908 239 829 z "},"↷":{"ha":856,"x_min":75,"x_max":800,"o":"m 785 613 q 800 596 800 613 q 789 572 800 590 l 599 290 q 572 274 589 274 q 546 290 556 274 l 358 572 q 347 596 347 590 q 363 613 347 613 q 392 604 367 613 l 529 557 l 529 717 q 476 849 529 794 q 346 904 422 904 q 216 849 269 904 q 163 717 163 794 l 163 0 l 75 0 l 75 717 q 154 908 75 829 q 346 988 233 988 q 538 908 458 988 q 617 717 617 829 l 617 557 l 756 604 q 785 613 778 613 z "},"↸":{"ha":856,"x_min":61,"x_max":794,"o":"m 61 886 l 61 972 l 794 972 l 794 886 l 61 886 m 718 10 l 240 508 l 174 371 q 147 340 160 340 q 126 371 132 340 l 64 697 q 61 717 61 711 q 88 743 61 743 q 107 740 93 743 l 435 678 q 464 657 464 671 q 435 632 464 646 l 294 564 l 794 86 l 718 10 z "},"↹":{"ha":856,"x_min":97,"x_max":758,"o":"m 594 515 q 571 526 589 515 l 289 717 q 272 743 272 726 q 289 769 272 758 l 571 961 q 594 972 589 972 q 611 957 611 972 q 603 928 611 950 l 553 782 l 758 797 l 758 689 l 553 704 l 603 560 q 611 531 611 535 q 594 515 611 515 m 97 526 l 97 958 l 194 958 l 194 526 l 97 526 m 261 -278 q 244 -262 244 -278 q 253 -233 244 -258 l 303 -89 l 97 -104 l 97 4 l 303 -11 l 253 135 q 244 164 244 157 q 261 179 244 179 q 285 168 267 179 l 567 -24 q 583 -50 583 -33 q 567 -76 583 -67 l 285 -267 q 261 -278 267 -278 m 661 -267 l 661 165 l 758 165 l 758 -267 l 661 -267 z "},"↺":{"ha":856,"x_min":69,"x_max":856,"o":"m 826 836 q 856 815 856 829 q 826 790 856 804 l 693 725 q 786 486 786 625 q 681 233 786 339 q 428 128 575 128 q 175 233 281 128 q 69 486 69 339 q 175 739 69 633 l 239 674 q 161 486 161 593 q 240 298 161 376 q 428 219 318 219 q 616 298 538 219 q 694 486 694 376 q 629 660 694 583 l 565 529 q 539 499 551 499 q 518 529 524 499 l 456 856 q 453 875 453 869 q 479 901 453 901 q 499 899 485 901 l 826 836 z "},"⇚":{"ha":856,"x_min":63,"x_max":765,"o":"m 765 590 l 360 590 l 339 528 l 765 528 l 765 472 l 339 472 l 361 410 l 765 410 l 765 354 l 381 354 l 393 317 q 401 288 401 292 q 385 272 401 272 q 361 283 379 272 l 79 474 q 63 500 63 483 q 79 526 63 515 l 361 718 q 385 729 379 729 q 401 714 401 729 q 393 685 401 707 l 379 646 l 765 646 l 765 590 z "},"⇛":{"ha":856,"x_min":90,"x_max":793,"o":"m 776 526 q 793 500 793 517 q 776 474 793 483 l 494 283 q 471 272 476 272 q 454 288 454 272 q 463 317 454 292 l 475 354 l 90 354 l 90 410 l 494 410 l 517 472 l 90 472 l 90 528 l 517 528 l 496 590 l 90 590 l 90 646 l 476 646 l 463 685 q 454 714 454 707 q 471 729 454 729 q 494 718 476 729 l 776 526 z "},"⇜":{"ha":856,"x_min":63,"x_max":779,"o":"m 735 543 l 779 543 l 779 457 l 688 457 l 678 497 l 644 349 l 572 349 l 539 499 l 504 349 l 432 349 l 407 457 l 344 457 l 393 317 q 401 288 401 292 q 385 272 401 272 q 361 283 379 272 l 79 474 q 63 500 63 483 q 79 526 63 515 l 361 718 q 385 729 379 729 q 401 714 401 729 q 393 685 401 707 l 344 543 l 454 543 l 468 472 l 503 654 l 574 654 l 608 472 l 643 654 l 714 654 l 735 543 z "},"⇝":{"ha":856,"x_min":76,"x_max":793,"o":"m 776 526 q 793 500 793 517 q 776 474 793 483 l 494 283 q 471 272 476 272 q 454 288 454 272 q 463 317 454 292 l 511 457 l 449 457 l 424 349 l 351 349 l 318 499 l 283 349 l 211 349 l 178 497 l 168 457 l 76 457 l 76 543 l 121 543 l 142 654 l 213 654 l 247 472 l 282 654 l 353 654 l 388 472 l 401 543 l 511 543 l 463 685 q 454 714 454 707 q 471 729 454 729 q 494 718 476 729 l 776 526 z "},"⇞":{"ha":856,"x_min":200,"x_max":656,"o":"m 611 642 l 474 689 l 474 483 l 642 483 l 642 397 l 474 397 l 474 264 l 642 264 l 642 178 l 474 178 l 474 0 l 382 0 l 382 178 l 214 178 l 214 264 l 382 264 l 382 397 l 214 397 l 214 483 l 382 483 l 382 689 l 244 642 q 215 633 222 633 q 200 650 200 633 q 211 674 200 656 l 401 956 q 428 972 411 972 q 454 956 444 972 l 644 674 q 656 650 656 656 q 640 633 656 633 q 611 642 636 633 z "},"⇟":{"ha":856,"x_min":200,"x_max":656,"o":"m 640 339 q 656 322 656 339 q 644 299 656 317 l 454 17 q 428 0 444 0 q 401 17 411 0 l 211 299 q 200 322 200 317 q 215 339 200 339 q 244 331 222 339 l 382 283 l 382 489 l 214 489 l 214 575 l 382 575 l 382 708 l 214 708 l 214 794 l 382 794 l 382 972 l 474 972 l 474 794 l 642 794 l 642 708 l 474 708 l 474 575 l 642 575 l 642 489 l 474 489 l 474 283 l 611 331 q 640 339 636 339 z "},"⇠":{"ha":856,"x_min":63,"x_max":779,"o":"m 385 272 q 361 283 379 272 l 79 474 q 63 500 63 483 q 79 526 63 515 l 361 717 q 385 728 379 728 q 401 713 401 728 q 393 683 401 706 l 346 546 l 435 546 l 435 454 l 346 454 l 393 317 q 401 288 401 292 q 385 272 401 272 m 521 454 l 521 546 l 607 546 l 607 454 l 521 454 m 693 454 l 693 546 l 779 546 l 779 454 l 693 454 z "},"⇡":{"ha":856,"x_min":200,"x_max":656,"o":"m 382 528 l 382 689 l 244 642 q 215 633 222 633 q 200 650 200 633 q 211 674 200 656 l 401 956 q 428 972 411 972 q 454 956 444 972 l 644 674 q 656 650 656 656 q 640 633 656 633 q 611 642 636 633 l 474 689 l 474 528 l 382 528 m 382 264 l 382 425 l 474 425 l 474 264 l 382 264 m 382 0 l 382 161 l 474 161 l 474 0 l 382 0 z "},"⇢":{"ha":856,"x_min":76,"x_max":793,"o":"m 471 272 q 454 288 454 272 q 463 317 454 292 l 510 454 l 421 454 l 421 546 l 510 546 l 463 683 q 454 713 454 706 q 471 728 454 728 q 494 717 476 728 l 776 526 q 793 500 793 517 q 776 474 793 483 l 494 283 q 471 272 476 272 m 76 454 l 76 546 l 163 546 l 163 454 l 76 454 m 249 454 l 249 546 l 335 546 l 335 454 l 249 454 z "},"⇣":{"ha":856,"x_min":200,"x_max":656,"o":"m 382 811 l 382 972 l 474 972 l 474 811 l 382 811 m 382 547 l 382 708 l 474 708 l 474 547 l 382 547 m 454 17 q 428 0 444 0 q 401 17 411 0 l 211 299 q 200 322 200 317 q 215 339 200 339 q 244 331 222 339 l 382 283 l 382 444 l 474 444 l 474 283 l 611 331 q 640 339 636 339 q 656 322 656 339 q 644 299 656 317 l 454 17 z "},"⇤":{"ha":856,"x_min":97,"x_max":758,"o":"m 97 144 l 97 854 l 194 854 l 194 144 l 97 144 m 594 272 q 571 283 589 272 l 289 474 q 272 500 272 483 q 289 526 272 515 l 571 718 q 594 729 589 729 q 611 714 611 729 q 603 685 611 707 l 553 539 l 758 554 l 758 446 l 553 461 l 603 317 q 611 288 611 292 q 594 272 611 272 z "},"⇥":{"ha":856,"x_min":97,"x_max":758,"o":"m 661 144 l 661 854 l 758 854 l 758 144 l 661 144 m 261 272 q 244 288 244 272 q 253 317 244 292 l 303 461 l 97 446 l 97 554 l 303 539 l 253 685 q 244 714 244 707 q 261 729 244 729 q 285 718 267 729 l 567 526 q 583 500 583 515 q 567 474 583 483 l 285 283 q 261 272 267 272 z "},"∀":{"ha":856,"x_min":68,"x_max":788,"o":"m 689 972 l 788 972 l 464 0 l 389 0 l 68 972 l 169 972 l 249 721 l 608 721 l 689 972 m 454 246 l 579 635 l 276 635 l 400 246 q 426 158 419 186 q 454 246 429 172 z "},"∁":{"ha":856,"x_min":78,"x_max":786,"o":"m 458 -15 q 308 9 375 -15 q 199 74 240 33 q 128 167 157 114 q 89 276 100 221 q 78 389 78 331 l 78 585 q 89 698 78 643 q 128 806 100 753 q 199 900 157 860 q 308 965 240 940 q 458 989 375 989 q 694 899 601 989 q 786 674 786 810 l 689 674 q 625 833 689 771 q 458 894 561 894 q 249 814 322 894 q 175 585 175 733 l 175 389 q 249 160 175 240 q 458 79 322 79 q 625 141 561 79 q 689 300 689 203 l 786 300 q 694 74 786 164 q 458 -15 601 -15 z "},"∂":{"ha":856,"x_min":93,"x_max":761,"o":"m 383 -17 q 173 60 253 -17 q 93 254 93 138 q 191 508 93 411 q 421 604 289 604 q 668 458 586 604 q 672 529 672 496 q 646 695 672 624 q 572 809 619 767 q 469 874 525 851 q 346 899 413 896 l 368 989 q 668 835 575 965 q 761 463 761 704 q 749 316 761 385 q 707 185 736 247 q 635 79 678 124 q 528 9 593 35 q 383 -17 464 -17 m 378 78 q 564 142 496 78 q 632 314 632 206 q 425 507 632 507 q 254 449 317 507 q 192 286 192 390 q 244 134 192 190 q 378 78 296 78 z "},"∃":{"ha":856,"x_min":133,"x_max":729,"o":"m 133 0 l 133 94 l 632 94 l 632 375 l 133 375 l 133 469 l 632 469 l 632 747 l 133 747 l 133 842 l 729 842 l 729 0 l 133 0 z "},"∄":{"ha":856,"x_min":133,"x_max":729,"o":"m 729 842 l 729 0 l 310 0 l 278 -94 l 186 -94 l 218 0 l 133 0 l 133 94 l 250 94 l 346 375 l 133 375 l 133 469 l 379 469 l 474 747 l 133 747 l 133 842 l 506 842 l 538 935 l 629 935 l 597 842 l 729 842 m 632 469 l 632 747 l 565 747 l 471 469 l 632 469 m 632 94 l 632 375 l 438 375 l 342 94 l 632 94 z "},"∅":{"ha":856,"x_min":0,"x_max":856,"o":"m 708 807 q 817 663 778 747 q 856 485 856 579 q 729 183 856 308 q 426 57 603 57 q 221 111 317 57 l 143 0 l 32 0 l 146 163 q 0 485 0 293 q 125 788 0 663 q 426 914 250 914 q 633 860 538 914 l 713 972 l 824 972 l 708 807 m 97 485 q 201 242 97 342 l 579 782 q 426 819 507 819 q 194 722 290 819 q 97 485 97 624 m 426 151 q 660 249 563 151 q 758 485 758 347 q 653 729 758 631 l 275 189 q 426 151 347 151 z "},"∆":{"ha":856,"x_min":51,"x_max":804,"o":"m 51 0 l 389 972 l 464 972 l 804 0 l 51 0 m 183 90 l 674 90 l 444 753 q 426 811 432 790 q 408 751 425 806 l 183 90 z "},"∇":{"ha":856,"x_min":51,"x_max":804,"o":"m 51 972 l 804 972 l 464 0 l 389 0 l 51 972 m 183 882 l 408 221 q 426 161 425 167 q 444 219 432 182 l 674 882 l 183 882 z "},"∈":{"ha":856,"x_min":90,"x_max":751,"o":"m 463 615 q 276 559 349 615 q 194 403 204 503 l 751 403 l 751 308 l 194 308 q 276 151 204 208 q 463 94 349 94 l 751 94 l 751 0 l 463 0 q 197 94 304 0 q 90 342 90 189 l 90 369 q 197 616 90 522 q 463 710 304 710 l 751 710 l 751 615 l 463 615 z "},"∉":{"ha":856,"x_min":90,"x_max":751,"o":"m 751 615 l 622 615 l 550 403 l 751 403 l 751 308 l 518 308 l 444 94 l 463 94 l 751 94 l 751 0 l 463 0 q 414 3 444 0 l 368 -131 l 276 -131 l 328 21 q 156 140 221 56 q 90 342 90 225 l 90 369 q 197 616 90 522 q 463 710 304 710 l 563 710 l 611 851 l 703 851 l 654 710 l 751 710 l 751 615 m 458 403 l 531 615 l 463 615 q 276 559 349 615 q 194 403 204 503 l 458 403 m 358 110 l 426 308 l 194 308 q 358 110 207 157 z "},"∊":{"ha":856,"x_min":76,"x_max":765,"o":"m 385 504 q 179 347 199 504 l 765 347 l 765 253 l 181 253 q 385 94 200 94 l 765 94 l 765 0 l 389 0 q 161 78 246 0 q 76 290 76 157 l 76 313 q 161 521 76 443 q 389 599 246 599 l 765 599 l 765 504 l 385 504 z "},"∋":{"ha":856,"x_min":104,"x_max":765,"o":"m 393 710 q 658 616 551 710 q 765 369 765 522 l 765 342 q 658 94 765 189 q 393 0 551 0 l 104 0 l 104 94 l 393 94 q 579 151 507 94 q 661 308 651 208 l 104 308 l 104 403 l 661 403 q 579 559 651 503 q 393 615 507 615 l 104 615 l 104 710 l 393 710 z "},"∌":{"ha":856,"x_min":104,"x_max":765,"o":"m 522 690 q 699 572 632 657 q 765 369 765 488 l 765 342 q 658 94 765 189 q 393 0 551 0 l 288 0 l 243 -131 l 151 -131 l 196 0 l 104 0 l 104 94 l 228 94 l 300 308 l 104 308 l 104 403 l 333 403 l 406 615 l 393 615 l 104 615 l 104 710 l 393 710 q 436 708 422 710 l 481 838 l 572 838 l 522 690 m 492 603 l 425 403 l 661 403 q 610 530 654 478 q 492 603 565 582 m 393 94 q 579 151 507 94 q 661 308 651 208 l 392 308 l 319 94 l 393 94 z "},"∍":{"ha":856,"x_min":90,"x_max":779,"o":"m 467 599 q 694 521 610 599 q 779 313 779 443 l 779 290 q 694 78 779 157 q 467 0 610 0 l 90 0 l 90 94 l 471 94 q 675 253 656 94 l 90 253 l 90 347 l 676 347 q 471 504 657 504 l 90 504 l 90 599 l 467 599 z "},"∎":{"ha":856,"x_min":158,"x_max":674,"o":"m 158 0 l 158 710 l 674 710 l 674 0 l 158 0 z "},"∏":{"ha":856,"x_min":72,"x_max":783,"o":"m 683 -194 l 683 875 l 171 875 l 171 -194 l 72 -194 l 72 972 l 783 972 l 783 -194 l 683 -194 z "},"∐":{"ha":856,"x_min":72,"x_max":783,"o":"m 683 972 l 783 972 l 783 -194 l 72 -194 l 72 972 l 171 972 l 171 -97 l 683 -97 l 683 972 z "},"∑":{"ha":856,"x_min":67,"x_max":789,"o":"m 67 -197 l 67 -115 l 443 400 l 86 888 l 86 969 l 761 969 l 761 875 l 215 875 l 564 403 l 194 -101 l 789 -101 l 789 -197 l 67 -197 z "},"−":{"ha":856,"x_min":101,"x_max":754,"o":"m 101 428 l 101 522 l 754 522 l 754 428 l 101 428 z "},"∓":{"ha":856,"x_min":101,"x_max":754,"o":"m 101 710 l 101 804 l 754 804 l 754 710 l 101 710 m 476 278 l 476 0 l 376 0 l 376 278 l 101 278 l 101 372 l 376 372 l 376 653 l 476 653 l 476 372 l 754 372 l 754 278 l 476 278 z "},"∔":{"ha":856,"x_min":101,"x_max":754,"o":"m 490 774 q 477 760 490 774 q 428 747 464 747 q 366 774 392 747 q 340 835 340 800 q 366 896 340 869 q 428 922 392 922 q 490 896 464 922 q 515 835 515 869 q 490 774 515 800 m 476 278 l 476 0 l 376 0 l 376 278 l 101 278 l 101 372 l 376 372 l 376 653 l 476 653 l 476 372 l 754 372 l 754 278 l 476 278 z "},"∕":{"ha":856,"x_min":44,"x_max":811,"o":"m 44 -17 l 708 989 l 811 989 l 147 -17 l 44 -17 z "},"∖":{"ha":856,"x_min":44,"x_max":811,"o":"m 708 -17 l 44 989 l 147 989 l 811 -17 l 708 -17 z "},"∗":{"ha":856,"x_min":110,"x_max":746,"o":"m 306 181 l 224 228 l 307 372 l 386 461 l 271 438 l 110 438 l 110 532 l 271 532 l 386 508 l 308 597 l 225 742 l 307 789 l 390 644 l 428 532 l 465 644 l 549 789 l 631 742 l 547 597 l 469 508 l 585 532 l 746 532 l 746 438 l 585 438 l 469 461 l 547 372 l 631 228 l 549 181 l 465 325 l 428 438 l 389 325 l 306 181 z "},"∘":{"ha":856,"x_min":268,"x_max":588,"o":"m 540 378 q 517 354 540 378 q 428 331 493 331 q 315 378 363 331 q 268 489 268 425 q 315 598 268 553 q 428 643 363 643 q 540 598 493 643 q 588 489 588 553 q 540 378 588 425 m 428 403 q 483 427 461 403 q 506 489 506 451 q 483 549 506 526 q 428 571 461 571 q 373 548 396 571 q 350 489 350 525 q 373 427 350 451 q 428 403 396 403 z "},"∙":{"ha":856,"x_min":340,"x_max":515,"o":"m 490 424 q 477 410 490 424 q 428 397 464 397 q 366 424 392 397 q 340 485 340 450 q 366 546 340 519 q 428 572 392 572 q 490 546 464 572 q 515 485 515 519 q 490 424 515 450 z "},"√":{"ha":856,"x_min":81,"x_max":783,"o":"m 390 0 l 197 374 l 122 336 l 81 417 l 244 500 l 432 136 l 681 972 l 783 972 l 489 0 l 390 0 z "},"∛":{"ha":856,"x_min":81,"x_max":783,"o":"m 332 576 q 140 678 199 576 l 217 710 q 339 646 257 646 q 399 664 376 646 q 422 708 422 682 q 344 751 422 751 l 297 751 l 297 821 l 328 821 q 384 829 368 821 q 400 863 400 838 q 381 897 400 882 q 331 911 363 911 q 225 850 261 911 l 151 875 q 222 951 174 921 q 329 981 269 981 q 444 951 400 981 q 488 871 488 922 q 467 819 488 842 q 422 794 447 797 q 483 769 456 790 q 511 701 511 747 q 464 613 511 649 q 332 576 417 576 m 390 0 l 197 374 l 122 336 l 81 417 l 244 500 l 432 136 l 681 972 l 783 972 l 489 0 l 390 0 z "},"∜":{"ha":856,"x_min":81,"x_max":783,"o":"m 363 601 l 363 682 l 115 682 l 115 738 l 368 979 l 447 979 l 447 758 l 519 758 l 519 682 l 447 682 l 447 601 l 363 601 m 390 0 l 197 374 l 122 336 l 81 417 l 244 500 l 432 136 l 681 972 l 783 972 l 489 0 l 390 0 m 363 758 l 363 882 l 236 758 l 363 758 z "},"∝":{"ha":856,"x_min":86,"x_max":783,"o":"m 783 660 q 706 616 739 660 q 631 483 674 572 q 677 393 660 424 q 724 335 694 363 q 783 307 753 307 l 783 203 q 674 251 721 203 q 581 386 628 299 q 350 214 483 214 q 161 291 236 214 q 86 483 86 368 q 161 676 86 599 q 350 753 236 753 q 581 581 483 753 q 674 716 628 668 q 783 764 721 764 l 783 660 m 347 301 q 441 348 400 301 q 529 483 482 394 q 441 619 482 572 q 347 665 400 665 q 234 613 279 665 q 189 483 189 561 q 234 353 189 406 q 347 301 279 301 z "},"∞":{"ha":856,"x_min":14,"x_max":840,"o":"m 615 817 q 772 729 704 817 q 840 496 840 642 q 775 265 840 353 q 632 178 710 178 q 524 227 564 178 q 440 383 483 276 q 356 233 406 288 q 229 178 307 178 q 80 265 146 178 q 14 496 14 351 q 80 729 14 642 q 229 817 146 817 q 272 812 253 817 q 307 792 290 807 q 334 765 324 776 q 359 726 344 754 q 380 685 374 699 q 402 633 386 671 q 424 581 418 594 q 508 758 465 699 q 615 817 550 817 m 240 265 q 320 313 292 265 q 392 490 349 361 q 361 559 381 514 q 331 627 342 604 q 303 678 319 650 q 272 717 288 706 q 240 729 257 729 q 153 663 194 729 q 113 496 113 597 q 153 330 113 394 q 240 265 194 265 m 614 265 q 700 330 660 265 q 740 496 740 394 q 699 663 740 597 q 614 729 658 729 q 573 713 592 729 q 537 658 554 696 q 508 589 519 619 q 479 500 497 558 q 476 491 478 494 q 474 483 475 488 q 471 474 472 478 q 489 428 478 457 q 507 383 500 399 q 524 346 514 368 q 543 312 535 324 q 563 288 551 300 q 586 270 574 275 q 614 265 599 265 z "},"∟":{"ha":856,"x_min":89,"x_max":806,"o":"m 89 0 l 89 842 l 186 842 l 186 94 l 806 94 l 806 0 l 89 0 z "},"∠":{"ha":856,"x_min":69,"x_max":786,"o":"m 250 94 l 786 94 l 786 0 l 69 0 l 642 790 l 722 739 l 250 94 z "},"∡":{"ha":856,"x_min":69,"x_max":786,"o":"m 786 94 l 786 0 l 685 0 q 660 -151 681 -75 l 565 -128 q 586 0 582 -61 l 69 0 l 385 436 q 242 508 324 479 l 274 597 q 442 514 365 564 l 642 790 l 722 739 l 514 454 q 683 94 667 310 l 786 94 m 586 94 q 457 376 569 263 l 250 94 l 586 94 z "},"∢":{"ha":856,"x_min":47,"x_max":767,"o":"m 751 526 q 678 251 751 382 l 765 204 l 719 121 l 626 171 q 542 76 585 118 l 475 144 q 542 218 500 168 l 47 485 l 578 783 q 526 856 554 821 l 601 915 q 661 832 640 867 l 719 864 l 767 782 l 706 747 q 751 526 751 639 m 244 486 l 593 297 q 654 526 654 408 q 621 699 654 614 l 244 486 z "},"∣":{"ha":856,"x_min":379,"x_max":476,"o":"m 379 0 l 379 972 l 476 972 l 476 0 l 379 0 z "},"∤":{"ha":856,"x_min":164,"x_max":685,"o":"m 685 579 l 476 436 l 476 0 l 379 0 l 379 369 l 225 264 l 164 353 l 379 500 l 379 972 l 476 972 l 476 567 l 624 668 l 685 579 z "},"∥":{"ha":856,"x_min":275,"x_max":581,"o":"m 275 0 l 275 972 l 372 972 l 372 0 l 275 0 m 483 0 l 483 972 l 581 972 l 581 0 l 483 0 z "},"∦":{"ha":856,"x_min":61,"x_max":799,"o":"m 799 676 l 581 536 l 581 0 l 483 0 l 483 474 l 372 403 l 372 0 l 275 0 l 275 340 l 115 238 l 61 322 l 275 460 l 275 972 l 372 972 l 372 522 l 483 594 l 483 972 l 581 972 l 581 657 l 744 763 l 799 676 z "},"∧":{"ha":856,"x_min":96,"x_max":760,"o":"m 96 0 l 393 613 l 463 613 l 760 0 l 649 0 l 428 471 l 207 0 l 96 0 z "},"∨":{"ha":856,"x_min":96,"x_max":760,"o":"m 96 613 l 207 613 l 428 142 l 649 613 l 760 613 l 463 0 l 393 0 l 96 613 z "},"∩":{"ha":856,"x_min":110,"x_max":746,"o":"m 110 0 l 110 438 q 200 649 110 571 q 428 726 290 726 q 655 649 564 726 q 746 438 746 571 l 746 0 l 649 0 l 649 438 q 589 579 649 526 q 428 632 529 632 q 267 580 326 632 q 207 438 207 528 l 207 0 l 110 0 z "},"∪":{"ha":856,"x_min":97,"x_max":758,"o":"m 665 65 q 618 24 665 65 q 428 -17 571 -17 q 191 65 285 -17 q 97 285 97 146 l 97 710 l 194 710 l 194 285 q 257 134 194 190 q 428 78 319 78 q 599 134 536 78 q 661 285 661 190 l 661 710 l 758 710 l 758 285 q 665 65 758 146 z "},"∫":{"ha":856,"x_min":200,"x_max":654,"o":"m 329 -194 q 200 -164 256 -194 l 200 -92 q 301 -111 258 -111 q 363 -89 347 -111 q 378 -29 378 -67 l 378 831 q 524 989 378 989 q 654 956 593 989 l 654 883 q 553 906 581 906 q 476 821 476 906 l 476 -36 q 329 -194 476 -194 z "},"∬":{"ha":856,"x_min":7,"x_max":849,"o":"m 136 -194 q 7 -164 63 -194 l 7 -92 q 108 -111 65 -111 q 169 -89 154 -111 q 185 -29 185 -67 l 185 831 q 331 989 185 989 q 461 956 400 989 l 461 883 q 360 906 388 906 q 283 821 283 906 l 283 -36 q 136 -194 283 -194 m 524 -194 q 394 -164 450 -194 l 394 -92 q 496 -111 453 -111 q 557 -89 542 -111 q 572 -29 572 -67 l 572 831 q 718 989 572 989 q 849 956 788 989 l 849 883 q 747 906 775 906 q 671 821 671 906 l 671 -36 q 524 -194 671 -194 z "},"∭":{"ha":1711,"x_min":197,"x_max":1513,"o":"m 326 -194 q 197 -164 253 -194 l 197 -92 q 299 -111 256 -111 q 360 -89 344 -111 q 375 -29 375 -67 l 375 831 q 521 989 375 989 q 651 956 590 989 l 651 883 q 550 906 578 906 q 474 821 474 906 l 474 -36 q 326 -194 474 -194 m 757 -194 q 628 -164 683 -194 l 628 -92 q 729 -111 686 -111 q 790 -89 775 -111 q 806 -29 806 -67 l 806 831 q 951 989 806 989 q 1082 956 1021 989 l 1082 883 q 981 906 1008 906 q 904 821 904 906 l 904 -36 q 757 -194 904 -194 m 1188 -194 q 1058 -164 1114 -194 l 1058 -92 q 1160 -111 1117 -111 q 1221 -89 1206 -111 q 1236 -29 1236 -67 l 1236 831 q 1382 989 1236 989 q 1513 956 1451 989 l 1513 883 q 1411 906 1439 906 q 1335 821 1335 906 l 1335 -36 q 1188 -194 1335 -194 z "},"∮":{"ha":856,"x_min":93,"x_max":763,"o":"m 681 613 q 722 566 681 613 q 763 394 763 519 q 681 176 763 269 q 476 64 599 82 l 476 -36 q 329 -194 476 -194 q 200 -164 256 -194 l 200 -92 q 301 -111 258 -111 q 363 -89 347 -111 q 378 -29 378 -67 l 378 64 q 174 176 256 82 q 93 394 93 269 q 174 613 93 519 q 378 725 256 707 l 378 831 q 524 989 378 989 q 654 956 593 989 l 654 883 q 553 906 581 906 q 476 821 476 906 l 476 725 q 681 613 599 707 m 476 160 q 611 242 557 176 q 665 394 665 308 q 611 547 665 481 q 476 629 557 613 l 476 160 m 244 546 q 217 513 244 546 q 190 394 190 481 q 244 243 190 308 q 378 160 297 178 l 378 629 q 244 546 297 611 z "},"∯":{"ha":1711,"x_min":399,"x_max":1311,"o":"m 1099 588 q 1311 396 1311 547 q 1099 203 1311 244 l 1099 -36 q 951 -194 1099 -194 q 822 -164 878 -194 l 822 -92 q 924 -111 881 -111 q 985 -89 969 -111 q 1000 -29 1000 -67 l 1000 189 q 856 183 943 183 q 711 189 768 183 l 711 -36 q 564 -194 711 -194 q 435 -164 490 -194 l 435 -92 q 536 -111 493 -111 q 597 -89 582 -111 q 613 -29 613 -67 l 613 203 q 399 396 399 243 q 613 589 399 547 l 613 831 q 758 989 613 989 q 889 956 828 989 l 889 883 q 788 906 815 906 q 711 821 711 906 l 711 601 q 856 607 768 607 q 1000 601 943 607 l 1000 831 q 1146 989 1000 989 q 1276 956 1215 989 l 1276 883 q 1175 906 1203 906 q 1099 821 1099 906 l 1099 588 m 711 283 q 856 278 767 278 q 1000 283 944 278 l 1000 507 q 856 513 944 513 q 711 507 767 513 l 711 283 m 496 396 q 613 297 496 322 l 613 493 q 496 396 496 467 m 1099 297 q 1214 396 1214 324 q 1099 493 1214 467 l 1099 297 z "}}}
